<?xml version="1.0" encoding="UTF-8"?>
<svg xmlns="http://www.w3.org/2000/svg" xmlns:xlink="http://www.w3.org/1999/xlink" width="576pt" height="432pt" viewBox="0 0 576 432">
<defs>
<g>
<g id="glyph-0-0">
<path d="M 1.59375 -2.671875 L 3.640625 -2.671875 C 4.34375 -2.671875 4.65625 -2.34375 4.65625 -1.5625 L 4.65625 -1.015625 C 4.65625 -0.625 4.71875 -0.25 4.828125 0 L 5.796875 0 L 5.796875 -0.203125 C 5.5 -0.40625 5.4375 -0.625 5.421875 -1.453125 C 5.40625 -2.46875 5.25 -2.78125 4.578125 -3.078125 C 5.265625 -3.421875 5.546875 -3.84375 5.546875 -4.5625 C 5.546875 -5.625 4.890625 -6.21875 3.65625 -6.21875 L 0.796875 -6.21875 L 0.796875 0 L 1.59375 0 Z M 1.59375 -3.375 L 1.59375 -5.515625 L 3.5 -5.515625 C 3.953125 -5.515625 4.203125 -5.453125 4.40625 -5.28125 C 4.609375 -5.109375 4.71875 -4.8125 4.71875 -4.453125 C 4.71875 -3.71875 4.34375 -3.375 3.5 -3.375 Z M 1.59375 -3.375 "/>
</g>
<g id="glyph-0-1">
</g>
<g id="glyph-0-2">
<path d="M 2.4375 0 L 4.140625 -4.46875 L 3.34375 -4.46875 L 2.078125 -0.84375 L 0.890625 -4.46875 L 0.078125 -4.46875 L 1.65625 0 Z M 2.4375 0 "/>
</g>
<g id="glyph-0-3">
<path d="M 4.375 -2 C 4.375 -2.671875 4.328125 -3.09375 4.203125 -3.421875 C 3.90625 -4.15625 3.21875 -4.59375 2.390625 -4.59375 C 1.140625 -4.59375 0.34375 -3.65625 0.34375 -2.171875 C 0.34375 -0.703125 1.109375 0.203125 2.375 0.203125 C 3.390625 0.203125 4.109375 -0.390625 4.28125 -1.359375 L 3.5625 -1.359375 C 3.375 -0.765625 2.96875 -0.453125 2.390625 -0.453125 C 1.9375 -0.453125 1.5625 -0.671875 1.328125 -1.046875 C 1.15625 -1.296875 1.09375 -1.546875 1.078125 -2 Z M 1.09375 -2.578125 C 1.15625 -3.40625 1.65625 -3.9375 2.375 -3.9375 C 3.109375 -3.9375 3.609375 -3.375 3.609375 -2.578125 Z M 1.09375 -2.578125 "/>
</g>
<g id="glyph-0-4">
<path d="M 0.59375 -4.46875 L 0.59375 0 L 1.3125 0 L 1.3125 -2.328125 C 1.3125 -3.390625 1.75 -3.875 2.734375 -3.84375 L 2.734375 -4.578125 C 2.625 -4.59375 2.546875 -4.59375 2.46875 -4.59375 C 2 -4.59375 1.65625 -4.328125 1.25 -3.65625 L 1.25 -4.46875 Z M 0.59375 -4.46875 "/>
</g>
<g id="glyph-0-5">
<path d="M 3.734375 -3.21875 C 3.734375 -4.109375 3.140625 -4.59375 2.109375 -4.59375 C 1.078125 -4.59375 0.40625 -4.0625 0.40625 -3.234375 C 0.40625 -2.53125 0.765625 -2.203125 1.8125 -1.9375 L 2.484375 -1.78125 C 2.984375 -1.65625 3.171875 -1.484375 3.171875 -1.171875 C 3.171875 -0.75 2.75 -0.453125 2.140625 -0.453125 C 1.75 -0.453125 1.421875 -0.578125 1.25 -0.765625 C 1.140625 -0.890625 1.078125 -1.015625 1.046875 -1.328125 L 0.296875 -1.328125 C 0.328125 -0.296875 0.90625 0.203125 2.078125 0.203125 C 3.203125 0.203125 3.921875 -0.359375 3.921875 -1.21875 C 3.921875 -1.890625 3.546875 -2.25 2.65625 -2.46875 L 1.96875 -2.625 C 1.390625 -2.765625 1.140625 -2.953125 1.140625 -3.265625 C 1.140625 -3.6875 1.515625 -3.9375 2.09375 -3.9375 C 2.65625 -3.9375 2.96875 -3.6875 2.984375 -3.21875 Z M 3.734375 -3.21875 "/>
</g>
<g id="glyph-0-6">
<path d="M 1.28125 -4.46875 L 0.578125 -4.46875 L 0.578125 0 L 1.28125 0 Z M 1.28125 -6.21875 L 0.5625 -6.21875 L 0.5625 -5.328125 L 1.28125 -5.328125 Z M 1.28125 -6.21875 "/>
</g>
<g id="glyph-0-7">
<path d="M 2.328125 -4.59375 C 1.0625 -4.59375 0.3125 -3.703125 0.3125 -2.203125 C 0.3125 -0.6875 1.0625 0.203125 2.328125 0.203125 C 3.59375 0.203125 4.34375 -0.703125 4.34375 -2.171875 C 4.34375 -3.71875 3.625 -4.59375 2.328125 -4.59375 Z M 2.328125 -3.9375 C 3.125 -3.9375 3.609375 -3.28125 3.609375 -2.171875 C 3.609375 -1.125 3.109375 -0.453125 2.328125 -0.453125 C 1.53125 -0.453125 1.046875 -1.125 1.046875 -2.203125 C 1.046875 -3.28125 1.53125 -3.9375 2.328125 -3.9375 Z M 2.328125 -3.9375 "/>
</g>
<g id="glyph-0-8">
<path d="M 0.59375 -4.46875 L 0.59375 0 L 1.3125 0 L 1.3125 -2.46875 C 1.3125 -3.375 1.796875 -3.96875 2.53125 -3.96875 C 3.09375 -3.96875 3.453125 -3.640625 3.453125 -3.09375 L 3.453125 0 L 4.15625 0 L 4.15625 -3.375 C 4.15625 -4.125 3.59375 -4.59375 2.734375 -4.59375 C 2.078125 -4.59375 1.640625 -4.34375 1.25 -3.71875 L 1.25 -4.46875 Z M 0.59375 -4.46875 "/>
</g>
<g id="glyph-0-9">
<path d="M 2.796875 -1.5 L 2.796875 0 L 3.546875 0 L 3.546875 -1.5 L 4.4375 -1.5 L 4.4375 -2.171875 L 3.546875 -2.171875 L 3.546875 -6.171875 L 2.984375 -6.171875 L 0.234375 -2.28125 L 0.234375 -1.5 Z M 2.796875 -2.171875 L 0.890625 -2.171875 L 2.796875 -4.890625 Z M 2.796875 -2.171875 "/>
</g>
<g id="glyph-0-10">
<path d="M 1.625 -0.890625 L 0.75 -0.890625 L 0.75 0 L 1.625 0 Z M 1.625 -0.890625 "/>
</g>
<g id="glyph-0-11">
<path d="M 4.0625 -6.046875 L 0.9375 -6.046875 L 0.484375 -2.75 L 1.171875 -2.75 C 1.53125 -3.171875 1.8125 -3.3125 2.296875 -3.3125 C 3.109375 -3.3125 3.609375 -2.765625 3.609375 -1.875 C 3.609375 -1 3.109375 -0.46875 2.28125 -0.46875 C 1.625 -0.46875 1.234375 -0.796875 1.046875 -1.484375 L 0.296875 -1.484375 C 0.40625 -0.984375 0.484375 -0.75 0.671875 -0.53125 C 1 -0.0625 1.625 0.203125 2.296875 0.203125 C 3.53125 0.203125 4.375 -0.6875 4.375 -1.96875 C 4.375 -3.171875 3.578125 -3.984375 2.421875 -3.984375 C 2 -3.984375 1.65625 -3.875 1.3125 -3.625 L 1.546875 -5.3125 L 4.0625 -5.3125 Z M 4.0625 -6.046875 "/>
</g>
<g id="glyph-0-12">
<path d="M 1.890625 -2.84375 L 2.296875 -2.84375 C 3.109375 -2.84375 3.546875 -2.453125 3.546875 -1.71875 C 3.546875 -0.9375 3.078125 -0.46875 2.296875 -0.46875 C 1.46875 -0.46875 1.078125 -0.890625 1.03125 -1.796875 L 0.265625 -1.796875 C 0.3125 -1.296875 0.390625 -0.96875 0.53125 -0.703125 C 0.859375 -0.109375 1.4375 0.203125 2.265625 0.203125 C 3.515625 0.203125 4.3125 -0.546875 4.3125 -1.71875 C 4.3125 -2.515625 4.015625 -2.9375 3.296875 -3.1875 C 3.859375 -3.421875 4.140625 -3.84375 4.140625 -4.46875 C 4.140625 -5.53125 3.453125 -6.171875 2.296875 -6.171875 C 1.078125 -6.171875 0.421875 -5.484375 0.40625 -4.1875 L 1.15625 -4.1875 C 1.15625 -4.5625 1.1875 -4.765625 1.28125 -4.953125 C 1.453125 -5.3125 1.828125 -5.515625 2.296875 -5.515625 C 2.96875 -5.515625 3.375 -5.109375 3.375 -4.4375 C 3.375 -4.015625 3.21875 -3.75 2.890625 -3.59375 C 2.671875 -3.515625 2.40625 -3.484375 1.890625 -3.46875 Z M 1.890625 -2.84375 "/>
</g>
<g id="glyph-0-13">
<path d="M 2.015625 -6.21875 C 1.15625 -5.109375 0.625 -3.546875 0.625 -2.203125 C 0.625 -0.859375 1.15625 0.6875 2.015625 1.8125 L 2.484375 1.8125 C 1.734375 0.59375 1.3125 -0.84375 1.3125 -2.203125 C 1.3125 -3.5625 1.734375 -5.015625 2.484375 -6.21875 Z M 2.015625 -6.21875 "/>
</g>
<g id="glyph-0-14">
<path d="M 4.3125 -0.75 L 1.140625 -0.75 C 1.21875 -1.25 1.484375 -1.578125 2.234375 -2.03125 L 3.078125 -2.515625 C 3.921875 -2.984375 4.359375 -3.609375 4.359375 -4.375 C 4.359375 -4.875 4.15625 -5.359375 3.796875 -5.6875 C 3.4375 -6.015625 3 -6.171875 2.421875 -6.171875 C 1.65625 -6.171875 1.078125 -5.890625 0.75 -5.359375 C 0.53125 -5.046875 0.4375 -4.65625 0.421875 -4.03125 L 1.171875 -4.03125 C 1.203125 -4.453125 1.25 -4.703125 1.359375 -4.90625 C 1.546875 -5.28125 1.9375 -5.515625 2.390625 -5.515625 C 3.078125 -5.515625 3.59375 -5.015625 3.59375 -4.34375 C 3.59375 -3.859375 3.3125 -3.421875 2.765625 -3.125 L 1.984375 -2.65625 C 0.71875 -1.9375 0.359375 -1.359375 0.296875 -0.015625 L 4.3125 -0.015625 Z M 4.3125 -0.75 "/>
</g>
<g id="glyph-0-15">
<path d="M 2.34375 -6.171875 C 1.78125 -6.171875 1.265625 -5.90625 0.953125 -5.5 C 0.5625 -4.953125 0.359375 -4.125 0.359375 -2.984375 C 0.359375 -0.90625 1.046875 0.203125 2.34375 0.203125 C 3.625 0.203125 4.328125 -0.90625 4.328125 -2.9375 C 4.328125 -4.125 4.140625 -4.9375 3.734375 -5.5 C 3.421875 -5.921875 2.921875 -6.171875 2.34375 -6.171875 Z M 2.34375 -5.5 C 3.15625 -5.5 3.5625 -4.671875 3.5625 -3 C 3.5625 -1.25 3.171875 -0.421875 2.328125 -0.421875 C 1.53125 -0.421875 1.140625 -1.28125 1.140625 -2.984375 C 1.140625 -4.671875 1.53125 -5.5 2.34375 -5.5 Z M 2.34375 -5.5 "/>
</g>
<g id="glyph-0-16">
<path d="M 4.25 -4.5625 C 4.109375 -5.578125 3.453125 -6.171875 2.53125 -6.171875 C 1.875 -6.171875 1.265625 -5.84375 0.90625 -5.296875 C 0.53125 -4.6875 0.359375 -3.9375 0.359375 -2.8125 C 0.359375 -1.78125 0.515625 -1.125 0.875 -0.578125 C 1.203125 -0.0625 1.734375 0.203125 2.390625 0.203125 C 3.546875 0.203125 4.375 -0.671875 4.375 -1.875 C 4.375 -3 3.609375 -3.8125 2.53125 -3.8125 C 1.921875 -3.8125 1.453125 -3.578125 1.140625 -3.125 C 1.140625 -4.65625 1.625 -5.5 2.484375 -5.5 C 3.015625 -5.5 3.375 -5.15625 3.5 -4.5625 Z M 2.4375 -3.140625 C 3.15625 -3.140625 3.609375 -2.625 3.609375 -1.8125 C 3.609375 -1.03125 3.09375 -0.46875 2.40625 -0.46875 C 1.703125 -0.46875 1.171875 -1.0625 1.171875 -1.84375 C 1.171875 -2.609375 1.6875 -3.140625 2.4375 -3.140625 Z M 2.4375 -3.140625 "/>
</g>
<g id="glyph-0-17">
<path d="M 2.421875 -2.65625 L 0.390625 -2.65625 L 0.390625 -2.046875 L 2.421875 -2.046875 Z M 2.421875 -2.65625 "/>
</g>
<g id="glyph-0-18">
<path d="M 2.203125 -4.390625 L 2.203125 0 L 2.953125 0 L 2.953125 -6.171875 L 2.46875 -6.171875 C 2.203125 -5.21875 2.03125 -5.09375 0.875 -4.9375 L 0.875 -4.390625 Z M 2.203125 -4.390625 "/>
</g>
<g id="glyph-0-19">
<path d="M 0.796875 1.8125 C 1.640625 0.6875 2.1875 -0.859375 2.1875 -2.203125 C 2.1875 -3.546875 1.640625 -5.109375 0.796875 -6.21875 L 0.328125 -6.21875 C 1.078125 -5 1.5 -3.5625 1.5 -2.203125 C 1.5 -0.84375 1.078125 0.59375 0.328125 1.8125 Z M 0.796875 1.8125 "/>
</g>
<g id="glyph-1-0">
<path d="M 3.515625 -9.25 C 2.671875 -9.25 1.90625 -8.875 1.4375 -8.234375 C 0.84375 -7.421875 0.546875 -6.1875 0.546875 -4.484375 C 0.546875 -1.359375 1.578125 0.296875 3.515625 0.296875 C 5.4375 0.296875 6.484375 -1.359375 6.484375 -4.40625 C 6.484375 -6.1875 6.203125 -7.390625 5.609375 -8.234375 C 5.125 -8.875 4.375 -9.25 3.515625 -9.25 Z M 3.515625 -8.25 C 4.734375 -8.25 5.34375 -7.015625 5.34375 -4.5 C 5.34375 -1.875 4.75 -0.640625 3.5 -0.640625 C 2.296875 -0.640625 1.703125 -1.921875 1.703125 -4.46875 C 1.703125 -7.015625 2.296875 -8.25 3.515625 -8.25 Z M 3.515625 -8.25 "/>
</g>
<g id="glyph-1-1">
<path d="M 3.3125 -6.59375 L 3.3125 0 L 4.4375 0 L 4.4375 -9.25 L 3.703125 -9.25 C 3.296875 -7.828125 3.046875 -7.640625 1.3125 -7.40625 L 1.3125 -6.59375 Z M 3.3125 -6.59375 "/>
</g>
<g id="glyph-1-2">
<path d="M 6.46875 -1.109375 L 1.703125 -1.109375 C 1.8125 -1.875 2.234375 -2.375 3.34375 -3.046875 L 4.625 -3.765625 C 5.890625 -4.46875 6.546875 -5.40625 6.546875 -6.546875 C 6.546875 -7.3125 6.234375 -8.03125 5.6875 -8.53125 C 5.15625 -9.015625 4.484375 -9.25 3.640625 -9.25 C 2.484375 -9.25 1.625 -8.84375 1.125 -8.046875 C 0.8125 -7.5625 0.671875 -6.984375 0.640625 -6.046875 L 1.765625 -6.046875 C 1.796875 -6.6875 1.875 -7.046875 2.03125 -7.359375 C 2.328125 -7.921875 2.921875 -8.265625 3.59375 -8.265625 C 4.625 -8.265625 5.390625 -7.53125 5.390625 -6.53125 C 5.390625 -5.78125 4.96875 -5.140625 4.15625 -4.6875 L 2.984375 -4 C 1.09375 -2.90625 0.53125 -2.03125 0.4375 -0.015625 L 6.46875 -0.015625 Z M 6.46875 -1.109375 "/>
</g>
<g id="glyph-1-3">
<path d="M 2.828125 -4.265625 L 3.4375 -4.265625 C 4.671875 -4.265625 5.328125 -3.6875 5.328125 -2.578125 C 5.328125 -1.40625 4.625 -0.703125 3.453125 -0.703125 C 2.21875 -0.703125 1.609375 -1.328125 1.53125 -2.6875 L 0.40625 -2.6875 C 0.453125 -1.9375 0.59375 -1.453125 0.8125 -1.046875 C 1.28125 -0.15625 2.15625 0.296875 3.40625 0.296875 C 5.265625 0.296875 6.46875 -0.828125 6.46875 -2.578125 C 6.46875 -3.765625 6.03125 -4.40625 4.9375 -4.78125 C 5.78125 -5.125 6.203125 -5.765625 6.203125 -6.703125 C 6.203125 -8.296875 5.171875 -9.25 3.4375 -9.25 C 1.609375 -9.25 0.640625 -8.234375 0.59375 -6.265625 L 1.734375 -6.265625 C 1.734375 -6.828125 1.796875 -7.15625 1.9375 -7.4375 C 2.1875 -7.953125 2.75 -8.265625 3.453125 -8.265625 C 4.453125 -8.265625 5.0625 -7.671875 5.0625 -6.671875 C 5.0625 -6.015625 4.828125 -5.625 4.328125 -5.40625 C 4.015625 -5.265625 3.609375 -5.21875 2.828125 -5.203125 Z M 2.828125 -4.265625 "/>
</g>
<g id="glyph-1-4">
<path d="M 4.1875 -2.234375 L 4.1875 0 L 5.3125 0 L 5.3125 -2.234375 L 6.65625 -2.234375 L 6.65625 -3.25 L 5.3125 -3.25 L 5.3125 -9.25 L 4.484375 -9.25 L 0.359375 -3.421875 L 0.359375 -2.234375 Z M 4.1875 -3.25 L 1.34375 -3.25 L 4.1875 -7.328125 Z M 4.1875 -3.25 "/>
</g>
<g id="glyph-1-5">
<path d="M 6.09375 -9.078125 L 1.40625 -9.078125 L 0.734375 -4.140625 L 1.765625 -4.140625 C 2.296875 -4.765625 2.71875 -4.984375 3.4375 -4.984375 C 4.65625 -4.984375 5.40625 -4.140625 5.40625 -2.796875 C 5.40625 -1.5 4.65625 -0.703125 3.421875 -0.703125 C 2.4375 -0.703125 1.84375 -1.203125 1.578125 -2.234375 L 0.453125 -2.234375 C 0.59375 -1.484375 0.734375 -1.125 1 -0.796875 C 1.515625 -0.109375 2.4375 0.296875 3.453125 0.296875 C 5.28125 0.296875 6.5625 -1.03125 6.5625 -2.953125 C 6.5625 -4.75 5.375 -5.96875 3.640625 -5.96875 C 3 -5.96875 2.484375 -5.8125 1.953125 -5.421875 L 2.3125 -7.953125 L 6.09375 -7.953125 Z M 6.09375 -9.078125 "/>
</g>
<g id="glyph-1-6">
<path d="M 6.375 -6.84375 C 6.15625 -8.359375 5.1875 -9.25 3.796875 -9.25 C 2.796875 -9.25 1.90625 -8.765625 1.375 -7.9375 C 0.796875 -7.03125 0.546875 -5.90625 0.546875 -4.21875 C 0.546875 -2.65625 0.765625 -1.671875 1.3125 -0.859375 C 1.796875 -0.109375 2.59375 0.296875 3.59375 0.296875 C 5.328125 0.296875 6.5625 -1 6.5625 -2.796875 C 6.5625 -4.5 5.40625 -5.703125 3.78125 -5.703125 C 2.890625 -5.703125 2.1875 -5.375 1.703125 -4.703125 C 1.71875 -6.984375 2.4375 -8.25 3.71875 -8.25 C 4.515625 -8.25 5.0625 -7.734375 5.25 -6.84375 Z M 3.640625 -4.703125 C 4.734375 -4.703125 5.40625 -3.9375 5.40625 -2.71875 C 5.40625 -1.546875 4.640625 -0.703125 3.609375 -0.703125 C 2.5625 -0.703125 1.765625 -1.59375 1.765625 -2.765625 C 1.765625 -3.921875 2.53125 -4.703125 3.640625 -4.703125 Z M 3.640625 -4.703125 "/>
</g>
<g id="glyph-1-7">
<path d="M 6.65625 -9.078125 L 0.59375 -9.078125 L 0.59375 -7.953125 L 5.484375 -7.953125 C 3.328125 -4.875 2.4375 -2.984375 1.765625 0 L 2.96875 0 C 3.46875 -2.90625 4.609375 -5.40625 6.65625 -8.125 Z M 6.65625 -9.078125 "/>
</g>
<g id="glyph-1-8">
<path d="M 5 -4.875 C 5.953125 -5.453125 6.25 -5.90625 6.25 -6.78125 C 6.25 -8.234375 5.125 -9.25 3.515625 -9.25 C 1.921875 -9.25 0.796875 -8.234375 0.796875 -6.796875 C 0.796875 -5.90625 1.09375 -5.46875 2.015625 -4.875 C 0.984375 -4.34375 0.46875 -3.59375 0.46875 -2.578125 C 0.46875 -0.890625 1.71875 0.296875 3.515625 0.296875 C 5.3125 0.296875 6.5625 -0.890625 6.5625 -2.578125 C 6.5625 -3.59375 6.046875 -4.34375 5 -4.875 Z M 3.515625 -8.25 C 4.484375 -8.25 5.09375 -7.671875 5.09375 -6.75 C 5.09375 -5.890625 4.46875 -5.3125 3.515625 -5.3125 C 2.5625 -5.3125 1.9375 -5.890625 1.9375 -6.78125 C 1.9375 -7.671875 2.5625 -8.25 3.515625 -8.25 Z M 3.515625 -4.359375 C 4.640625 -4.359375 5.40625 -3.625 5.40625 -2.546875 C 5.40625 -1.4375 4.65625 -0.703125 3.5 -0.703125 C 2.390625 -0.703125 1.625 -1.453125 1.625 -2.53125 C 1.625 -3.640625 2.375 -4.359375 3.515625 -4.359375 Z M 3.515625 -4.359375 "/>
</g>
<g id="glyph-1-9">
<path d="M 1.140625 0 L 4.734375 0 C 7.09375 0 8.53125 -1.765625 8.53125 -4.671875 C 8.53125 -7.5625 7.109375 -9.328125 4.734375 -9.328125 L 1.140625 -9.328125 Z M 2.328125 -1.046875 L 2.328125 -8.28125 L 4.53125 -8.28125 C 6.375 -8.28125 7.34375 -7.03125 7.34375 -4.65625 C 7.34375 -2.296875 6.375 -1.046875 4.53125 -1.046875 Z M 2.328125 -1.046875 "/>
</g>
<g id="glyph-1-10">
<path d="M 6.84375 -0.625 C 6.734375 -0.59375 6.6875 -0.59375 6.609375 -0.59375 C 6.25 -0.59375 6.046875 -0.796875 6.046875 -1.125 L 6.046875 -5.0625 C 6.046875 -6.25 5.171875 -6.890625 3.515625 -6.890625 C 2.53125 -6.890625 1.75 -6.609375 1.296875 -6.109375 C 0.984375 -5.765625 0.859375 -5.390625 0.828125 -4.71875 L 1.90625 -4.71875 C 2 -5.546875 2.484375 -5.90625 3.484375 -5.90625 C 4.453125 -5.90625 4.984375 -5.546875 4.984375 -4.90625 L 4.984375 -4.625 C 4.96875 -4.171875 4.734375 -4 3.859375 -3.890625 C 2.359375 -3.703125 2.125 -3.640625 1.71875 -3.484375 C 0.9375 -3.140625 0.53125 -2.5625 0.53125 -1.6875 C 0.53125 -0.46875 1.375 0.296875 2.734375 0.296875 C 3.578125 0.296875 4.265625 0 5.015625 -0.6875 C 5.09375 0 5.421875 0.296875 6.109375 0.296875 C 6.34375 0.296875 6.484375 0.265625 6.84375 0.171875 Z M 4.984375 -2.109375 C 4.984375 -1.75 4.875 -1.53125 4.5625 -1.234375 C 4.125 -0.84375 3.59375 -0.640625 2.96875 -0.640625 C 2.140625 -0.640625 1.65625 -1.03125 1.65625 -1.71875 C 1.65625 -2.421875 2.109375 -2.78125 3.265625 -2.9375 C 4.40625 -3.09375 4.625 -3.140625 4.984375 -3.3125 Z M 4.984375 -2.109375 "/>
</g>
<g id="glyph-1-11">
<path d="M 3.25 -6.703125 L 2.15625 -6.703125 L 2.15625 -8.546875 L 1.09375 -8.546875 L 1.09375 -6.703125 L 0.171875 -6.703125 L 0.171875 -5.828125 L 1.09375 -5.828125 L 1.09375 -0.765625 C 1.09375 -0.078125 1.546875 0.296875 2.375 0.296875 C 2.65625 0.296875 2.890625 0.265625 3.25 0.203125 L 3.25 -0.6875 C 3.09375 -0.65625 2.953125 -0.640625 2.734375 -0.640625 C 2.28125 -0.640625 2.15625 -0.765625 2.15625 -1.234375 L 2.15625 -5.828125 L 3.25 -5.828125 Z M 3.25 -6.703125 "/>
</g>
<g id="glyph-1-12">
<path d="M 2.734375 -1.328125 L 1.40625 -1.328125 L 1.40625 0 L 2.734375 0 Z M 2.734375 -6.703125 L 1.40625 -6.703125 L 1.40625 -5.375 L 2.734375 -5.375 Z M 2.734375 -6.703125 "/>
</g>
<g id="glyph-1-13">
</g>
<g id="glyph-1-14">
<path d="M 0.890625 -9.328125 L 0.890625 0 L 1.953125 0 L 1.953125 -3.703125 C 1.953125 -5.0625 2.671875 -5.96875 3.78125 -5.96875 C 4.140625 -5.96875 4.46875 -5.859375 4.71875 -5.671875 C 5.03125 -5.4375 5.15625 -5.125 5.15625 -4.640625 L 5.15625 0 L 6.21875 0 L 6.21875 -5.0625 C 6.21875 -6.1875 5.40625 -6.890625 4.109375 -6.890625 C 3.15625 -6.890625 2.578125 -6.609375 1.953125 -5.78125 L 1.953125 -9.328125 Z M 0.890625 -9.328125 "/>
</g>
<g id="glyph-1-15">
<path d="M 0.6875 2.796875 L 1.765625 2.796875 L 1.765625 -0.703125 C 2.328125 -0.015625 2.953125 0.296875 3.828125 0.296875 C 5.5625 0.296875 6.6875 -1.09375 6.6875 -3.234375 C 6.6875 -5.484375 5.59375 -6.890625 3.8125 -6.890625 C 2.90625 -6.890625 2.171875 -6.484375 1.671875 -5.6875 L 1.671875 -6.703125 L 0.6875 -6.703125 Z M 3.640625 -5.90625 C 4.8125 -5.90625 5.578125 -4.859375 5.578125 -3.265625 C 5.578125 -1.734375 4.796875 -0.703125 3.640625 -0.703125 C 2.5 -0.703125 1.765625 -1.734375 1.765625 -3.296875 C 1.765625 -4.875 2.5 -5.90625 3.640625 -5.90625 Z M 3.640625 -5.90625 "/>
</g>
<g id="glyph-1-16">
<path d="M 5.609375 -4.84375 C 5.59375 -6.15625 4.71875 -6.890625 3.171875 -6.890625 C 1.609375 -6.890625 0.59375 -6.09375 0.59375 -4.84375 C 0.59375 -3.796875 1.140625 -3.296875 2.71875 -2.921875 L 3.71875 -2.671875 C 4.46875 -2.5 4.765625 -2.234375 4.765625 -1.75 C 4.765625 -1.109375 4.140625 -0.6875 3.203125 -0.6875 C 2.625 -0.6875 2.140625 -0.859375 1.875 -1.140625 C 1.703125 -1.328125 1.625 -1.515625 1.5625 -2 L 0.4375 -2 C 0.484375 -0.453125 1.359375 0.296875 3.109375 0.296875 C 4.796875 0.296875 5.875 -0.53125 5.875 -1.828125 C 5.875 -2.828125 5.3125 -3.375 3.984375 -3.703125 L 2.953125 -3.9375 C 2.078125 -4.140625 1.71875 -4.421875 1.71875 -4.90625 C 1.71875 -5.53125 2.265625 -5.90625 3.140625 -5.90625 C 4 -5.90625 4.453125 -5.546875 4.484375 -4.84375 Z M 5.609375 -4.84375 "/>
</g>
<g id="glyph-1-17">
<path d="M 2.9375 -9.328125 L -0.109375 0.25 L 0.59375 0.25 L 3.640625 -9.328125 Z M 2.9375 -9.328125 "/>
</g>
<g id="glyph-1-18">
<path d="M 5.171875 -6.703125 L 5.171875 -5.734375 C 4.625 -6.546875 4.046875 -6.890625 3.203125 -6.890625 C 1.578125 -6.890625 0.453125 -5.390625 0.453125 -3.234375 C 0.453125 -2.109375 0.71875 -1.296875 1.296875 -0.609375 C 1.796875 -0.03125 2.4375 0.296875 3.125 0.296875 C 3.921875 0.296875 4.5 -0.0625 5.0625 -0.90625 L 5.0625 -0.5625 C 5.0625 1.234375 4.5625 1.890625 3.234375 1.890625 C 2.328125 1.890625 1.859375 1.53125 1.75 0.765625 L 0.671875 0.765625 C 0.765625 2.015625 1.75 2.796875 3.21875 2.796875 C 4.203125 2.796875 5.015625 2.46875 5.453125 1.9375 C 5.96875 1.3125 6.15625 0.46875 6.15625 -1.09375 L 6.15625 -6.703125 Z M 3.296875 -5.90625 C 4.421875 -5.90625 5.0625 -4.96875 5.0625 -3.265625 C 5.0625 -1.640625 4.421875 -0.6875 3.296875 -0.6875 C 2.203125 -0.6875 1.5625 -1.65625 1.5625 -3.296875 C 1.5625 -4.9375 2.203125 -5.90625 3.296875 -5.90625 Z M 3.296875 -5.90625 "/>
</g>
<g id="glyph-1-19">
<path d="M 1.921875 -6.703125 L 0.859375 -6.703125 L 0.859375 0 L 1.921875 0 Z M 1.921875 -9.328125 L 0.84375 -9.328125 L 0.84375 -7.984375 L 1.921875 -7.984375 Z M 1.921875 -9.328125 "/>
</g>
<g id="glyph-1-20">
<path d="M 6.171875 0 L 6.171875 -6.703125 L 5.109375 -6.703125 L 5.109375 -2.90625 C 5.109375 -1.53125 4.390625 -0.640625 3.28125 -0.640625 C 2.4375 -0.640625 1.890625 -1.15625 1.890625 -1.953125 L 1.890625 -6.703125 L 0.828125 -6.703125 L 0.828125 -1.53125 C 0.828125 -0.421875 1.65625 0.296875 2.96875 0.296875 C 3.953125 0.296875 4.578125 -0.046875 5.203125 -0.9375 L 5.203125 0 Z M 6.171875 0 "/>
</g>
<g id="glyph-1-21">
<path d="M 0.6875 -9.328125 L 0.6875 0 L 1.65625 0 L 1.65625 -0.859375 C 2.15625 -0.078125 2.84375 0.296875 3.78125 0.296875 C 5.546875 0.296875 6.6875 -1.15625 6.6875 -3.375 C 6.6875 -5.546875 5.609375 -6.890625 3.828125 -6.890625 C 2.90625 -6.890625 2.25 -6.546875 1.75 -5.796875 L 1.75 -9.328125 Z M 3.625 -5.90625 C 4.8125 -5.90625 5.578125 -4.859375 5.578125 -3.265625 C 5.578125 -1.734375 4.78125 -0.703125 3.625 -0.703125 C 2.484375 -0.703125 1.75 -1.734375 1.75 -3.296875 C 1.75 -4.875 2.484375 -5.90625 3.625 -5.90625 Z M 3.625 -5.90625 "/>
</g>
<g id="glyph-1-22">
<path d="M 2.4375 -1.328125 L 1.109375 -1.328125 L 1.109375 0 L 2.4375 0 Z M 2.4375 -1.328125 "/>
</g>
<g id="glyph-1-23">
<path d="M 6.03125 -4.453125 C 5.96875 -5.109375 5.828125 -5.53125 5.578125 -5.90625 C 5.125 -6.53125 4.3125 -6.890625 3.375 -6.890625 C 1.5625 -6.890625 0.390625 -5.46875 0.390625 -3.234375 C 0.390625 -1.078125 1.546875 0.296875 3.359375 0.296875 C 4.96875 0.296875 5.96875 -0.671875 6.109375 -2.296875 L 5.03125 -2.296875 C 4.84375 -1.234375 4.296875 -0.6875 3.390625 -0.6875 C 2.21875 -0.6875 1.515625 -1.65625 1.515625 -3.234375 C 1.515625 -4.90625 2.203125 -5.90625 3.359375 -5.90625 C 4.265625 -5.90625 4.828125 -5.390625 4.953125 -4.453125 Z M 6.03125 -4.453125 "/>
</g>
<g id="glyph-1-24">
<path d="M 3.484375 -6.890625 C 1.59375 -6.890625 0.453125 -5.546875 0.453125 -3.296875 C 0.453125 -1.03125 1.59375 0.296875 3.5 0.296875 C 5.390625 0.296875 6.53125 -1.046875 6.53125 -3.25 C 6.53125 -5.578125 5.421875 -6.890625 3.484375 -6.890625 Z M 3.5 -5.90625 C 4.703125 -5.90625 5.40625 -4.921875 5.40625 -3.265625 C 5.40625 -1.671875 4.671875 -0.6875 3.5 -0.6875 C 2.296875 -0.6875 1.578125 -1.671875 1.578125 -3.296875 C 1.578125 -4.921875 2.296875 -5.90625 3.5 -5.90625 Z M 3.5 -5.90625 "/>
</g>
<g id="glyph-1-25">
<path d="M 0.890625 -6.703125 L 0.890625 0 L 1.96875 0 L 1.96875 -4.203125 C 1.96875 -5.1875 2.671875 -5.96875 3.546875 -5.96875 C 4.34375 -5.96875 4.78125 -5.484375 4.78125 -4.625 L 4.78125 0 L 5.859375 0 L 5.859375 -4.203125 C 5.859375 -5.1875 6.5625 -5.96875 7.4375 -5.96875 C 8.21875 -5.96875 8.671875 -5.46875 8.671875 -4.625 L 8.671875 0 L 9.75 0 L 9.75 -5.03125 C 9.75 -6.234375 9.0625 -6.890625 7.8125 -6.890625 C 6.90625 -6.890625 6.375 -6.625 5.75 -5.875 C 5.34375 -6.59375 4.8125 -6.890625 3.9375 -6.890625 C 3.046875 -6.890625 2.4375 -6.5625 1.875 -5.765625 L 1.875 -6.703125 Z M 0.890625 -6.703125 "/>
</g>
<g id="glyph-1-26">
<path d="M 6.5625 -3 C 6.5625 -4.015625 6.484375 -4.625 6.296875 -5.125 C 5.859375 -6.234375 4.84375 -6.890625 3.578125 -6.890625 C 1.71875 -6.890625 0.515625 -5.484375 0.515625 -3.265625 C 0.515625 -1.046875 1.65625 0.296875 3.5625 0.296875 C 5.09375 0.296875 6.15625 -0.578125 6.421875 -2.03125 L 5.34375 -2.03125 C 5.0625 -1.15625 4.453125 -0.6875 3.59375 -0.6875 C 2.921875 -0.6875 2.34375 -1 1.984375 -1.5625 C 1.734375 -1.9375 1.640625 -2.328125 1.625 -3 Z M 1.65625 -3.859375 C 1.734375 -5.109375 2.5 -5.90625 3.578125 -5.90625 C 4.65625 -5.90625 5.40625 -5.0625 5.40625 -3.859375 Z M 1.65625 -3.859375 "/>
</g>
<g id="glyph-1-27">
<path d="M 0.890625 -6.703125 L 0.890625 0 L 1.96875 0 L 1.96875 -3.703125 C 1.96875 -5.0625 2.6875 -5.96875 3.78125 -5.96875 C 4.625 -5.96875 5.171875 -5.453125 5.171875 -4.640625 L 5.171875 0 L 6.234375 0 L 6.234375 -5.0625 C 6.234375 -6.1875 5.40625 -6.890625 4.109375 -6.890625 C 3.109375 -6.890625 2.46875 -6.515625 1.875 -5.578125 L 1.875 -6.703125 Z M 0.890625 -6.703125 "/>
</g>
<g id="glyph-1-28">
<path d="M 1.9375 -9.328125 L 0.875 -9.328125 L 0.875 0 L 1.9375 0 Z M 1.9375 -9.328125 "/>
</g>
<g id="glyph-1-29">
<path d="M 0.890625 -6.703125 L 0.890625 0 L 1.953125 0 L 1.953125 -3.484375 C 1.96875 -5.09375 2.640625 -5.8125 4.109375 -5.765625 L 4.109375 -6.859375 C 3.921875 -6.890625 3.828125 -6.890625 3.703125 -6.890625 C 3 -6.890625 2.484375 -6.484375 1.875 -5.484375 L 1.875 -6.703125 Z M 0.890625 -6.703125 "/>
</g>
<g id="glyph-1-30">
<path d="M 6.328125 -9.328125 L 5.265625 -9.328125 L 5.265625 -5.859375 C 4.828125 -6.546875 4.109375 -6.890625 3.21875 -6.890625 C 1.46875 -6.890625 0.328125 -5.5 0.328125 -3.359375 C 0.328125 -1.09375 1.4375 0.296875 3.25 0.296875 C 4.171875 0.296875 4.8125 -0.046875 5.390625 -0.890625 L 5.390625 0 L 6.328125 0 Z M 3.390625 -5.90625 C 4.546875 -5.90625 5.265625 -4.890625 5.265625 -3.28125 C 5.265625 -1.734375 4.53125 -0.703125 3.40625 -0.703125 C 2.234375 -0.703125 1.453125 -1.734375 1.453125 -3.296875 C 1.453125 -4.859375 2.234375 -5.90625 3.390625 -5.90625 Z M 3.390625 -5.90625 "/>
</g>
<g id="glyph-1-31">
<path d="M 3.640625 -4 L 0.59375 -4 L 0.59375 -3.078125 L 3.640625 -3.078125 Z M 3.640625 -4 "/>
</g>
<g id="glyph-1-32">
<path d="M 7.09375 0 L 9.0625 -6.703125 L 7.859375 -6.703125 L 6.53125 -1.484375 L 5.203125 -6.703125 L 3.90625 -6.703125 L 2.625 -1.484375 L 1.25 -6.703125 L 0.078125 -6.703125 L 2.015625 0 L 3.21875 0 L 4.515625 -5.265625 L 5.875 0 Z M 7.09375 0 "/>
</g>
<g id="glyph-1-33">
<path d="M 5.671875 -6.703125 L 0.671875 -6.703125 L 0.671875 -5.765625 L 4.40625 -5.765625 L 0.390625 -0.953125 L 0.390625 0 L 5.84375 0 L 5.84375 -0.9375 L 1.6875 -0.9375 L 5.671875 -5.765625 Z M 5.671875 -6.703125 "/>
</g>
<g id="glyph-2-0">
<path d="M 6.1875 -4.578125 L 10.578125 -11.65625 L 8.796875 -11.65625 L 5.46875 -5.984375 L 2.046875 -11.65625 L 0.203125 -11.65625 L 4.703125 -4.578125 L 4.703125 0 L 6.1875 0 Z M 6.1875 -4.578125 "/>
</g>
<g id="glyph-2-1">
<path d="M 8.203125 -3.75 C 8.203125 -5.03125 8.109375 -5.796875 7.875 -6.421875 C 7.328125 -7.796875 6.046875 -8.625 4.484375 -8.625 C 2.140625 -8.625 0.640625 -6.84375 0.640625 -4.078125 C 0.640625 -1.3125 2.078125 0.375 4.453125 0.375 C 6.375 0.375 7.703125 -0.71875 8.03125 -2.546875 L 6.6875 -2.546875 C 6.3125 -1.4375 5.5625 -0.859375 4.5 -0.859375 C 3.640625 -0.859375 2.921875 -1.25 2.484375 -1.953125 C 2.15625 -2.4375 2.046875 -2.90625 2.03125 -3.75 Z M 2.0625 -4.828125 C 2.171875 -6.390625 3.125 -7.390625 4.46875 -7.390625 C 5.828125 -7.390625 6.765625 -6.34375 6.765625 -4.828125 Z M 2.0625 -4.828125 "/>
</g>
<g id="glyph-2-2">
<path d="M 8.5625 -0.78125 C 8.421875 -0.75 8.359375 -0.75 8.265625 -0.75 C 7.8125 -0.75 7.546875 -0.984375 7.546875 -1.40625 L 7.546875 -6.34375 C 7.546875 -7.828125 6.46875 -8.625 4.40625 -8.625 C 3.171875 -8.625 2.1875 -8.265625 1.609375 -7.640625 C 1.234375 -7.21875 1.078125 -6.734375 1.046875 -5.90625 L 2.390625 -5.90625 C 2.5 -6.921875 3.109375 -7.390625 4.359375 -7.390625 C 5.5625 -7.390625 6.21875 -6.9375 6.21875 -6.140625 L 6.21875 -5.796875 C 6.203125 -5.21875 5.921875 -5.015625 4.828125 -4.859375 C 2.9375 -4.625 2.65625 -4.5625 2.140625 -4.359375 C 1.171875 -3.9375 0.671875 -3.203125 0.671875 -2.109375 C 0.671875 -0.59375 1.734375 0.375 3.421875 0.375 C 4.484375 0.375 5.328125 0 6.265625 -0.859375 C 6.375 0 6.78125 0.375 7.640625 0.375 C 7.9375 0.375 8.109375 0.34375 8.5625 0.21875 Z M 6.21875 -2.640625 C 6.21875 -2.1875 6.09375 -1.921875 5.703125 -1.546875 C 5.15625 -1.0625 4.5 -0.796875 3.71875 -0.796875 C 2.671875 -0.796875 2.0625 -1.296875 2.0625 -2.140625 C 2.0625 -3.03125 2.640625 -3.46875 4.078125 -3.6875 C 5.5 -3.875 5.78125 -3.9375 6.21875 -4.140625 Z M 6.21875 -2.640625 "/>
</g>
<g id="glyph-2-3">
<path d="M 1.109375 -8.390625 L 1.109375 0 L 2.453125 0 L 2.453125 -4.359375 C 2.46875 -6.375 3.296875 -7.265625 5.140625 -7.21875 L 5.140625 -8.578125 C 4.90625 -8.609375 4.78125 -8.625 4.625 -8.625 C 3.765625 -8.625 3.109375 -8.109375 2.34375 -6.859375 L 2.34375 -8.390625 Z M 1.109375 -8.390625 "/>
</g>
<g id="glyph-2-4">
<path d="M 7.015625 -6.046875 C 6.984375 -7.703125 5.90625 -8.625 3.96875 -8.625 C 2.015625 -8.625 0.75 -7.609375 0.75 -6.0625 C 0.75 -4.75 1.421875 -4.125 3.40625 -3.640625 L 4.65625 -3.34375 C 5.578125 -3.125 5.953125 -2.78125 5.953125 -2.1875 C 5.953125 -1.390625 5.171875 -0.859375 4 -0.859375 C 3.28125 -0.859375 2.671875 -1.078125 2.34375 -1.421875 C 2.125 -1.65625 2.03125 -1.90625 1.953125 -2.5 L 0.546875 -2.5 C 0.609375 -0.5625 1.703125 0.375 3.890625 0.375 C 6 0.375 7.34375 -0.671875 7.34375 -2.28125 C 7.34375 -3.53125 6.640625 -4.21875 4.96875 -4.625 L 3.703125 -4.921875 C 2.609375 -5.1875 2.140625 -5.53125 2.140625 -6.125 C 2.140625 -6.90625 2.828125 -7.390625 3.921875 -7.390625 C 4.984375 -7.390625 5.5625 -6.921875 5.59375 -6.046875 Z M 7.015625 -6.046875 "/>
</g>
<g id="glyph-3-0">
<path d="M -4.9375 -2.9375 L -4.9375 -6.609375 C -4.9375 -7.515625 -5.21875 -8.234375 -5.78125 -8.859375 C -6.421875 -9.5625 -7.171875 -9.875 -8.234375 -9.875 C -10.4375 -9.875 -11.65625 -8.578125 -11.65625 -6.265625 L -11.65625 -1.453125 L 0 -1.453125 L 0 -2.9375 Z M -6.25 -2.9375 L -10.359375 -2.9375 L -10.359375 -6.046875 C -10.359375 -7.46875 -9.578125 -8.3125 -8.296875 -8.3125 C -7.03125 -8.3125 -6.25 -7.46875 -6.25 -6.046875 Z M -6.25 -2.9375 "/>
</g>
<g id="glyph-3-1">
<path d="M -8.390625 -1.109375 L 0 -1.109375 L 0 -2.453125 L -4.359375 -2.453125 C -6.375 -2.46875 -7.265625 -3.296875 -7.21875 -5.140625 L -8.578125 -5.140625 C -8.609375 -4.90625 -8.625 -4.78125 -8.625 -4.625 C -8.625 -3.765625 -8.109375 -3.109375 -6.859375 -2.34375 L -8.390625 -2.34375 Z M -8.390625 -1.109375 "/>
</g>
<g id="glyph-3-2">
<path d="M -8.390625 -2.40625 L -8.390625 -1.078125 L 0 -1.078125 L 0 -2.40625 Z M -11.65625 -2.40625 L -11.65625 -1.0625 L -9.984375 -1.0625 L -9.984375 -2.40625 Z M -11.65625 -2.40625 "/>
</g>
<g id="glyph-3-3">
<path d="M -5.5625 -7.53125 C -6.390625 -7.46875 -6.90625 -7.296875 -7.375 -6.96875 C -8.15625 -6.40625 -8.625 -5.390625 -8.625 -4.21875 C -8.625 -1.953125 -6.828125 -0.5 -4.046875 -0.5 C -1.34375 -0.5 0.375 -1.9375 0.375 -4.203125 C 0.375 -6.203125 -0.828125 -7.46875 -2.875 -7.625 L -2.875 -6.28125 C -1.53125 -6.0625 -0.859375 -5.375 -0.859375 -4.234375 C -0.859375 -2.765625 -2.0625 -1.890625 -4.046875 -1.890625 C -6.140625 -1.890625 -7.390625 -2.75 -7.390625 -4.203125 C -7.390625 -5.328125 -6.734375 -6.03125 -5.5625 -6.1875 Z M -5.5625 -7.53125 "/>
</g>
<g id="glyph-3-4">
<path d="M -3.75 -8.203125 C -5.03125 -8.203125 -5.796875 -8.109375 -6.421875 -7.875 C -7.796875 -7.328125 -8.625 -6.046875 -8.625 -4.484375 C -8.625 -2.140625 -6.84375 -0.640625 -4.078125 -0.640625 C -1.3125 -0.640625 0.375 -2.078125 0.375 -4.453125 C 0.375 -6.375 -0.71875 -7.703125 -2.546875 -8.03125 L -2.546875 -6.6875 C -1.4375 -6.3125 -0.859375 -5.5625 -0.859375 -4.5 C -0.859375 -3.640625 -1.25 -2.921875 -1.953125 -2.484375 C -2.4375 -2.15625 -2.90625 -2.046875 -3.75 -2.03125 Z M -4.828125 -2.0625 C -6.390625 -2.171875 -7.390625 -3.125 -7.390625 -4.46875 C -7.390625 -5.828125 -6.34375 -6.765625 -4.828125 -6.765625 Z M -4.828125 -2.0625 "/>
</g>
<g id="glyph-3-5">
</g>
<g id="glyph-3-6">
<path d="M -12.3125 -4 L -11.453125 -4 C -11.203125 -1.953125 -10.078125 -0.84375 -8.25 -0.84375 C -7.25 -0.84375 -6.46875 -1.234375 -5.921875 -1.96875 C -5.609375 -2.40625 -5.4375 -2.84375 -5.09375 -4 L -0.734375 -4 C -0.828125 -3.28125 -1.15625 -2.671875 -1.640625 -2.296875 C -2.015625 -2.0625 -2.28125 -2 -3.328125 -1.90625 L -3.328125 -0.640625 C -1.109375 -0.53125 0.21875 -1.75 0.375 -4 L 2.015625 -4 L 2.015625 -4.9375 L 0.375 -4.9375 C 0.296875 -5.8125 0.125 -6.40625 -0.1875 -6.921875 C -0.765625 -7.859375 -1.859375 -8.40625 -3.125 -8.40625 C -4.25 -8.40625 -5.0625 -7.96875 -5.578125 -7.046875 C -5.828125 -6.625 -5.90625 -6.421875 -6.359375 -4.9375 L -10.34375 -4.9375 C -10.28125 -6.015625 -9.46875 -6.765625 -8.296875 -6.78125 L -8.296875 -8.046875 C -10.125 -8.046875 -11.3125 -6.875 -11.453125 -4.9375 L -12.3125 -4.9375 Z M -6.484375 -4 C -6.8125 -2.734375 -7.4375 -2.140625 -8.421875 -2.140625 C -9.46875 -2.140625 -10.15625 -2.8125 -10.3125 -4 Z M -4.9375 -4.9375 C -4.46875 -6.578125 -3.984375 -7.09375 -2.921875 -7.09375 C -2.296875 -7.09375 -1.75 -6.84375 -1.328125 -6.421875 C -0.953125 -6.03125 -0.8125 -5.625 -0.734375 -4.9375 Z M -4.9375 -4.9375 "/>
</g>
<g id="glyph-3-7">
<path d="M -11.65625 -10.34375 L -11.65625 -8.921875 L -2.125 -8.921875 L -11.65625 -2.828125 L -11.65625 -1.21875 L 0 -1.21875 L 0 -2.625 L -9.453125 -2.625 L 0 -8.65625 L 0 -10.34375 Z M -11.65625 -10.34375 "/>
</g>
<g id="glyph-3-8">
<path d="M -11.65625 -9.296875 L -11.65625 -0.890625 L -10.359375 -0.890625 L -10.359375 -7.453125 L -1.3125 -0.453125 L 0 -0.453125 L 0 -9.328125 L -1.3125 -9.328125 L -1.3125 -2.3125 L -10.3125 -9.296875 Z M -11.65625 -9.296875 "/>
</g>
<g id="glyph-3-9">
<path d="M 0 -1.421875 L 0 -5.921875 C 0 -8.859375 -2.203125 -10.671875 -5.84375 -10.671875 C -9.453125 -10.671875 -11.65625 -8.875 -11.65625 -5.921875 L -11.65625 -1.421875 Z M -1.3125 -2.90625 L -10.359375 -2.90625 L -10.359375 -5.65625 C -10.359375 -7.96875 -8.796875 -9.1875 -5.828125 -9.1875 C -2.859375 -9.1875 -1.3125 -7.96875 -1.3125 -5.65625 Z M -1.3125 -2.90625 "/>
</g>
<g id="glyph-4-0">
<path d="M 9.234375 -4.21875 C 9.234375 -5.65625 9.125 -6.515625 8.859375 -7.21875 C 8.25 -8.765625 6.796875 -9.703125 5.046875 -9.703125 C 2.40625 -9.703125 0.71875 -7.703125 0.71875 -4.59375 C 0.71875 -1.46875 2.34375 0.40625 5 0.40625 C 7.15625 0.40625 8.65625 -0.8125 9.03125 -2.859375 L 7.53125 -2.859375 C 7.109375 -1.625 6.265625 -0.96875 5.0625 -0.96875 C 4.109375 -0.96875 3.296875 -1.40625 2.796875 -2.203125 C 2.4375 -2.734375 2.296875 -3.28125 2.28125 -4.21875 Z M 2.328125 -5.4375 C 2.453125 -7.1875 3.515625 -8.3125 5.015625 -8.3125 C 6.546875 -8.3125 7.609375 -7.125 7.609375 -5.4375 Z M 2.328125 -5.4375 "/>
</g>
<g id="glyph-4-1">
<path d="M 1.265625 -9.4375 L 1.265625 0 L 2.765625 0 L 2.765625 -5.921875 C 2.765625 -7.296875 3.765625 -8.390625 4.984375 -8.390625 C 6.109375 -8.390625 6.734375 -7.703125 6.734375 -6.5 L 6.734375 0 L 8.25 0 L 8.25 -5.921875 C 8.25 -7.296875 9.234375 -8.390625 10.453125 -8.390625 C 11.5625 -8.390625 12.203125 -7.6875 12.203125 -6.5 L 12.203125 0 L 13.71875 0 L 13.71875 -7.078125 C 13.71875 -8.765625 12.75 -9.703125 10.984375 -9.703125 C 9.71875 -9.703125 8.96875 -9.328125 8.078125 -8.265625 C 7.53125 -9.265625 6.765625 -9.703125 5.546875 -9.703125 C 4.28125 -9.703125 3.4375 -9.234375 2.640625 -8.09375 L 2.640625 -9.4375 Z M 1.265625 -9.4375 "/>
</g>
<g id="glyph-4-2">
<path d="M 7.890625 -6.796875 C 7.859375 -8.65625 6.640625 -9.703125 4.46875 -9.703125 C 2.265625 -9.703125 0.84375 -8.5625 0.84375 -6.828125 C 0.84375 -5.34375 1.609375 -4.640625 3.828125 -4.109375 L 5.234375 -3.765625 C 6.28125 -3.515625 6.703125 -3.125 6.703125 -2.46875 C 6.703125 -1.5625 5.8125 -0.96875 4.5 -0.96875 C 3.6875 -0.96875 3 -1.203125 2.625 -1.609375 C 2.390625 -1.875 2.28125 -2.140625 2.203125 -2.8125 L 0.609375 -2.8125 C 0.6875 -0.625 1.90625 0.40625 4.375 0.40625 C 6.75 0.40625 8.265625 -0.75 8.265625 -2.578125 C 8.265625 -3.984375 7.46875 -4.75 5.59375 -5.203125 L 4.15625 -5.546875 C 2.9375 -5.828125 2.40625 -6.234375 2.40625 -6.890625 C 2.40625 -7.78125 3.1875 -8.3125 4.40625 -8.3125 C 5.609375 -8.3125 6.265625 -7.796875 6.296875 -6.796875 Z M 7.890625 -6.796875 "/>
</g>
<g id="glyph-4-3">
<path d="M 6.375 -11.640625 L 10.671875 -11.640625 L 10.671875 -13.125 L 0.375 -13.125 L 0.375 -11.640625 L 4.703125 -11.640625 L 4.703125 0 L 6.375 0 Z M 6.375 -11.640625 "/>
</g>
<g id="glyph-4-4">
<path d="M 1.234375 -9.4375 L 1.234375 0 L 2.75 0 L 2.75 -4.890625 C 2.765625 -7.15625 3.703125 -8.171875 5.78125 -8.125 L 5.78125 -9.640625 C 5.53125 -9.6875 5.375 -9.703125 5.203125 -9.703125 C 4.234375 -9.703125 3.484375 -9.125 2.625 -7.71875 L 2.625 -9.4375 Z M 1.234375 -9.4375 "/>
</g>
<g id="glyph-4-5">
<path d="M 9.625 -0.875 C 9.46875 -0.84375 9.390625 -0.84375 9.3125 -0.84375 C 8.78125 -0.84375 8.5 -1.109375 8.5 -1.578125 L 8.5 -7.125 C 8.5 -8.796875 7.265625 -9.703125 4.953125 -9.703125 C 3.5625 -9.703125 2.46875 -9.3125 1.8125 -8.609375 C 1.390625 -8.125 1.203125 -7.578125 1.171875 -6.640625 L 2.6875 -6.640625 C 2.8125 -7.796875 3.484375 -8.3125 4.890625 -8.3125 C 6.265625 -8.3125 7 -7.8125 7 -6.90625 L 7 -6.515625 C 6.984375 -5.875 6.65625 -5.640625 5.4375 -5.46875 C 3.3125 -5.203125 2.984375 -5.125 2.40625 -4.890625 C 1.3125 -4.421875 0.75 -3.59375 0.75 -2.375 C 0.75 -0.671875 1.9375 0.40625 3.859375 0.40625 C 5.046875 0.40625 6 0 7.0625 -0.96875 C 7.15625 0 7.625 0.40625 8.609375 0.40625 C 8.921875 0.40625 9.125 0.375 9.625 0.25 Z M 7 -2.96875 C 7 -2.46875 6.859375 -2.15625 6.40625 -1.75 C 5.796875 -1.1875 5.0625 -0.90625 4.171875 -0.90625 C 3 -0.90625 2.328125 -1.453125 2.328125 -2.40625 C 2.328125 -3.40625 2.96875 -3.90625 4.59375 -4.140625 C 6.1875 -4.359375 6.5 -4.421875 7 -4.65625 Z M 7 -2.96875 "/>
</g>
<g id="glyph-4-6">
<path d="M 8.90625 -13.125 L 7.421875 -13.125 L 7.421875 -8.25 C 6.78125 -9.203125 5.78125 -9.703125 4.515625 -9.703125 C 2.0625 -9.703125 0.46875 -7.734375 0.46875 -4.734375 C 0.46875 -1.546875 2.015625 0.40625 4.578125 0.40625 C 5.875 0.40625 6.765625 -0.078125 7.578125 -1.234375 L 7.578125 0 L 8.90625 0 Z M 4.765625 -8.296875 C 6.390625 -8.296875 7.421875 -6.875 7.421875 -4.609375 C 7.421875 -2.4375 6.375 -0.984375 4.78125 -0.984375 C 3.125 -0.984375 2.03125 -2.453125 2.03125 -4.640625 C 2.03125 -6.84375 3.125 -8.296875 4.765625 -8.296875 Z M 4.765625 -8.296875 "/>
</g>
<g id="glyph-4-7">
<path d="M 0.96875 3.921875 L 2.484375 3.921875 L 2.484375 -0.984375 C 3.28125 -0.015625 4.15625 0.40625 5.375 0.40625 C 7.828125 0.40625 9.40625 -1.546875 9.40625 -4.546875 C 9.40625 -7.71875 7.859375 -9.703125 5.359375 -9.703125 C 4.09375 -9.703125 3.0625 -9.125 2.359375 -8.015625 L 2.359375 -9.4375 L 0.96875 -9.4375 Z M 5.109375 -8.296875 C 6.765625 -8.296875 7.84375 -6.84375 7.84375 -4.59375 C 7.84375 -2.453125 6.75 -0.984375 5.109375 -0.984375 C 3.515625 -0.984375 2.484375 -2.4375 2.484375 -4.640625 C 2.484375 -6.859375 3.515625 -8.296875 5.109375 -8.296875 Z M 5.109375 -8.296875 "/>
</g>
<g id="glyph-4-8">
<path d="M 4.890625 -9.703125 C 2.234375 -9.703125 0.640625 -7.8125 0.640625 -4.640625 C 0.640625 -1.453125 2.234375 0.40625 4.90625 0.40625 C 7.578125 0.40625 9.1875 -1.46875 9.1875 -4.578125 C 9.1875 -7.84375 7.625 -9.703125 4.890625 -9.703125 Z M 4.90625 -8.3125 C 6.609375 -8.3125 7.609375 -6.9375 7.609375 -4.59375 C 7.609375 -2.359375 6.5625 -0.96875 4.90625 -0.96875 C 3.234375 -0.96875 2.21875 -2.359375 2.21875 -4.640625 C 2.21875 -6.9375 3.234375 -8.3125 4.90625 -8.3125 Z M 4.90625 -8.3125 "/>
</g>
<g id="glyph-4-9">
<path d="M 2.703125 -9.4375 L 1.203125 -9.4375 L 1.203125 0 L 2.703125 0 Z M 2.703125 -13.125 L 1.1875 -13.125 L 1.1875 -11.234375 L 2.703125 -11.234375 Z M 2.703125 -13.125 "/>
</g>
<g id="glyph-4-10">
<path d="M 1.265625 -9.4375 L 1.265625 0 L 2.765625 0 L 2.765625 -5.203125 C 2.765625 -7.125 3.78125 -8.390625 5.328125 -8.390625 C 6.515625 -8.390625 7.265625 -7.671875 7.265625 -6.53125 L 7.265625 0 L 8.765625 0 L 8.765625 -7.125 C 8.765625 -8.6875 7.59375 -9.703125 5.78125 -9.703125 C 4.375 -9.703125 3.46875 -9.15625 2.640625 -7.84375 L 2.640625 -9.4375 Z M 1.265625 -9.4375 "/>
</g>
<g id="glyph-4-11">
<path d="M 4.578125 -9.4375 L 3.03125 -9.4375 L 3.03125 -12.03125 L 1.53125 -12.03125 L 1.53125 -9.4375 L 0.25 -9.4375 L 0.25 -8.203125 L 1.53125 -8.203125 L 1.53125 -1.078125 C 1.53125 -0.109375 2.171875 0.40625 3.34375 0.40625 C 3.75 0.40625 4.0625 0.375 4.578125 0.28125 L 4.578125 -0.96875 C 4.359375 -0.921875 4.15625 -0.90625 3.859375 -0.90625 C 3.203125 -0.90625 3.03125 -1.078125 3.03125 -1.75 L 3.03125 -8.203125 L 4.578125 -8.203125 Z M 4.578125 -9.4375 "/>
</g>
<g id="glyph-4-12">
</g>
<g id="glyph-4-13">
<path d="M 11.625 -13.125 L 10.046875 -13.125 L 10.046875 -2.390625 L 3.1875 -13.125 L 1.375 -13.125 L 1.375 0 L 2.953125 0 L 2.953125 -10.640625 L 9.734375 0 L 11.625 0 Z M 11.625 -13.125 "/>
</g>
<g id="glyph-4-14">
<path d="M 9.96875 0 L 12.75 -9.4375 L 11.046875 -9.4375 L 9.1875 -2.09375 L 7.328125 -9.4375 L 5.484375 -9.4375 L 3.6875 -2.09375 L 1.765625 -9.4375 L 0.109375 -9.4375 L 2.84375 0 L 4.53125 0 L 6.359375 -7.390625 L 8.265625 0 Z M 9.96875 0 "/>
</g>
<g id="glyph-4-15">
<path d="M 10.453125 -13.125 L 1.015625 -13.125 L 1.015625 -11.640625 L 8.390625 -11.640625 L 0.5 -1.46875 L 0.5 0 L 10.5 0 L 10.5 -1.46875 L 2.609375 -1.46875 L 10.453125 -11.609375 Z M 10.453125 -13.125 "/>
</g>
<g id="glyph-4-16">
<path d="M 2.734375 -13.125 L 1.21875 -13.125 L 1.21875 0 L 2.734375 0 Z M 2.734375 -13.125 "/>
</g>
<g id="glyph-4-17">
<path d="M 9.9375 -13.125 L 9.9375 -3.90625 C 9.9375 -2.140625 8.65625 -1.0625 6.546875 -1.0625 C 5.578125 -1.0625 4.78125 -1.296875 4.15625 -1.75 C 3.515625 -2.25 3.203125 -2.921875 3.203125 -3.90625 L 3.203125 -13.125 L 1.53125 -13.125 L 1.53125 -3.90625 C 1.53125 -1.234375 3.4375 0.40625 6.546875 0.40625 C 9.625 0.40625 11.609375 -1.28125 11.609375 -3.90625 L 11.609375 -13.125 Z M 9.9375 -13.125 "/>
</g>
<g id="glyph-4-18">
<path d="M 4.25 -13.125 C 2.453125 -10.765625 1.3125 -7.484375 1.3125 -4.65625 C 1.3125 -1.8125 2.453125 1.453125 4.25 3.8125 L 5.234375 3.8125 C 3.65625 1.234375 2.765625 -1.78125 2.765625 -4.65625 C 2.765625 -7.53125 3.65625 -10.5625 5.234375 -13.125 Z M 4.25 -13.125 "/>
</g>
<g id="glyph-4-19">
<path d="M 1.671875 3.8125 C 3.46875 1.453125 4.609375 -1.8125 4.609375 -4.640625 C 4.609375 -7.484375 3.46875 -10.765625 1.671875 -13.125 L 0.6875 -13.125 C 2.265625 -10.546875 3.15625 -7.53125 3.15625 -4.640625 C 3.15625 -1.78125 2.265625 1.265625 0.6875 3.8125 Z M 1.671875 3.8125 "/>
</g>
<g id="glyph-4-20">
<path d="M 6.984375 -9.4375 L 4.375 -2.09375 L 1.96875 -9.4375 L 0.359375 -9.4375 L 3.546875 0.03125 L 2.96875 1.53125 C 2.71875 2.203125 2.390625 2.453125 1.765625 2.453125 C 1.515625 2.453125 1.296875 2.40625 0.96875 2.34375 L 0.96875 3.6875 C 1.28125 3.859375 1.578125 3.921875 1.984375 3.921875 C 2.46875 3.921875 2.984375 3.765625 3.390625 3.46875 C 3.859375 3.125 4.125 2.734375 4.40625 1.984375 L 8.609375 -9.4375 Z M 6.984375 -9.4375 "/>
</g>
<g id="glyph-4-21">
<path d="M 8.484375 -6.265625 C 8.40625 -7.1875 8.203125 -7.78125 7.84375 -8.296875 C 7.203125 -9.1875 6.0625 -9.703125 4.75 -9.703125 C 2.203125 -9.703125 0.5625 -7.6875 0.5625 -4.546875 C 0.5625 -1.515625 2.171875 0.40625 4.734375 0.40625 C 6.984375 0.40625 8.40625 -0.9375 8.59375 -3.234375 L 7.078125 -3.234375 C 6.828125 -1.734375 6.046875 -0.96875 4.765625 -0.96875 C 3.109375 -0.96875 2.125 -2.328125 2.125 -4.546875 C 2.125 -6.90625 3.09375 -8.3125 4.734375 -8.3125 C 6 -8.3125 6.78125 -7.578125 6.96875 -6.265625 Z M 8.484375 -6.265625 "/>
</g>
</g>
<clipPath id="clip-0">
<path clip-rule="nonzero" d="M 45.144531 33.941406 L 568.03125 33.941406 L 568.03125 366.886719 L 45.144531 366.886719 Z M 45.144531 33.941406 "/>
</clipPath>
<clipPath id="clip-1">
<path clip-rule="nonzero" d="M 45.144531 340 L 568.03125 340 L 568.03125 342 L 45.144531 342 Z M 45.144531 340 "/>
</clipPath>
<clipPath id="clip-2">
<path clip-rule="nonzero" d="M 45.144531 305 L 568.03125 305 L 568.03125 307 L 45.144531 307 Z M 45.144531 305 "/>
</clipPath>
<clipPath id="clip-3">
<path clip-rule="nonzero" d="M 45.144531 270 L 568.03125 270 L 568.03125 272 L 45.144531 272 Z M 45.144531 270 "/>
</clipPath>
<clipPath id="clip-4">
<path clip-rule="nonzero" d="M 45.144531 235 L 568.03125 235 L 568.03125 237 L 45.144531 237 Z M 45.144531 235 "/>
</clipPath>
<clipPath id="clip-5">
<path clip-rule="nonzero" d="M 45.144531 200 L 568.03125 200 L 568.03125 202 L 45.144531 202 Z M 45.144531 200 "/>
</clipPath>
<clipPath id="clip-6">
<path clip-rule="nonzero" d="M 45.144531 165 L 568.03125 165 L 568.03125 167 L 45.144531 167 Z M 45.144531 165 "/>
</clipPath>
<clipPath id="clip-7">
<path clip-rule="nonzero" d="M 45.144531 130 L 568.03125 130 L 568.03125 132 L 45.144531 132 Z M 45.144531 130 "/>
</clipPath>
<clipPath id="clip-8">
<path clip-rule="nonzero" d="M 45.144531 95 L 568.03125 95 L 568.03125 97 L 45.144531 97 Z M 45.144531 95 "/>
</clipPath>
<clipPath id="clip-9">
<path clip-rule="nonzero" d="M 45.144531 60 L 568.03125 60 L 568.03125 62 L 45.144531 62 Z M 45.144531 60 "/>
</clipPath>
<clipPath id="clip-10">
<path clip-rule="nonzero" d="M 45.144531 43 L 568.03125 43 L 568.03125 44 L 45.144531 44 Z M 45.144531 43 "/>
</clipPath>
<clipPath id="clip-11">
<path clip-rule="nonzero" d="M 100 33.941406 L 101 33.941406 L 101 366.886719 L 100 366.886719 Z M 100 33.941406 "/>
</clipPath>
<clipPath id="clip-12">
<path clip-rule="nonzero" d="M 185 33.941406 L 187 33.941406 L 187 366.886719 L 185 366.886719 Z M 185 33.941406 "/>
</clipPath>
<clipPath id="clip-13">
<path clip-rule="nonzero" d="M 270 33.941406 L 272 33.941406 L 272 366.886719 L 270 366.886719 Z M 270 33.941406 "/>
</clipPath>
<clipPath id="clip-14">
<path clip-rule="nonzero" d="M 355 33.941406 L 357 33.941406 L 357 366.886719 L 355 366.886719 Z M 355 33.941406 "/>
</clipPath>
<clipPath id="clip-15">
<path clip-rule="nonzero" d="M 440 33.941406 L 442 33.941406 L 442 366.886719 L 440 366.886719 Z M 440 33.941406 "/>
</clipPath>
<clipPath id="clip-16">
<path clip-rule="nonzero" d="M 526 33.941406 L 527 33.941406 L 527 366.886719 L 526 366.886719 Z M 526 33.941406 "/>
</clipPath>
<clipPath id="clip-17">
<path clip-rule="nonzero" d="M 45.144531 357 L 568.03125 357 L 568.03125 360 L 45.144531 360 Z M 45.144531 357 "/>
</clipPath>
<clipPath id="clip-18">
<path clip-rule="nonzero" d="M 45.144531 322 L 568.03125 322 L 568.03125 325 L 45.144531 325 Z M 45.144531 322 "/>
</clipPath>
<clipPath id="clip-19">
<path clip-rule="nonzero" d="M 45.144531 287 L 568.03125 287 L 568.03125 290 L 45.144531 290 Z M 45.144531 287 "/>
</clipPath>
<clipPath id="clip-20">
<path clip-rule="nonzero" d="M 45.144531 252 L 568.03125 252 L 568.03125 255 L 45.144531 255 Z M 45.144531 252 "/>
</clipPath>
<clipPath id="clip-21">
<path clip-rule="nonzero" d="M 45.144531 217 L 568.03125 217 L 568.03125 220 L 45.144531 220 Z M 45.144531 217 "/>
</clipPath>
<clipPath id="clip-22">
<path clip-rule="nonzero" d="M 45.144531 182 L 568.03125 182 L 568.03125 185 L 45.144531 185 Z M 45.144531 182 "/>
</clipPath>
<clipPath id="clip-23">
<path clip-rule="nonzero" d="M 45.144531 147 L 568.03125 147 L 568.03125 150 L 45.144531 150 Z M 45.144531 147 "/>
</clipPath>
<clipPath id="clip-24">
<path clip-rule="nonzero" d="M 45.144531 112 L 568.03125 112 L 568.03125 115 L 45.144531 115 Z M 45.144531 112 "/>
</clipPath>
<clipPath id="clip-25">
<path clip-rule="nonzero" d="M 45.144531 77 L 568.03125 77 L 568.03125 80 L 45.144531 80 Z M 45.144531 77 "/>
</clipPath>
<clipPath id="clip-26">
<path clip-rule="nonzero" d="M 57 33.941406 L 59 33.941406 L 59 366.886719 L 57 366.886719 Z M 57 33.941406 "/>
</clipPath>
<clipPath id="clip-27">
<path clip-rule="nonzero" d="M 142 33.941406 L 144 33.941406 L 144 366.886719 L 142 366.886719 Z M 142 33.941406 "/>
</clipPath>
<clipPath id="clip-28">
<path clip-rule="nonzero" d="M 227 33.941406 L 229 33.941406 L 229 366.886719 L 227 366.886719 Z M 227 33.941406 "/>
</clipPath>
<clipPath id="clip-29">
<path clip-rule="nonzero" d="M 312 33.941406 L 315 33.941406 L 315 366.886719 L 312 366.886719 Z M 312 33.941406 "/>
</clipPath>
<clipPath id="clip-30">
<path clip-rule="nonzero" d="M 397 33.941406 L 400 33.941406 L 400 366.886719 L 397 366.886719 Z M 397 33.941406 "/>
</clipPath>
<clipPath id="clip-31">
<path clip-rule="nonzero" d="M 483 33.941406 L 485 33.941406 L 485 366.886719 L 483 366.886719 Z M 483 33.941406 "/>
</clipPath>
</defs>
<rect x="-57.6" y="-43.2" width="691.2" height="518.4" fill="rgb(100%, 100%, 100%)" fill-opacity="1"/>
<rect x="-57.6" y="-43.2" width="691.2" height="518.4" fill="rgb(100%, 100%, 100%)" fill-opacity="1"/>
<path fill="none" stroke-width="1.551969" stroke-linecap="round" stroke-linejoin="round" stroke="rgb(100%, 100%, 100%)" stroke-opacity="1" stroke-miterlimit="10" d="M 0 432 L 576 432 L 576 0 L 0 0 Z M 0 432 "/>
<g clip-path="url(#clip-0)">
<path fill-rule="nonzero" fill="rgb(92.156863%, 92.156863%, 92.156863%)" fill-opacity="1" d="M 45.144531 366.886719 L 568.03125 366.886719 L 568.03125 33.941406 L 45.144531 33.941406 Z M 45.144531 366.886719 "/>
</g>
<g clip-path="url(#clip-1)">
<path fill="none" stroke-width="0.775984" stroke-linecap="butt" stroke-linejoin="round" stroke="rgb(100%, 100%, 100%)" stroke-opacity="1" stroke-miterlimit="10" d="M 45.144531 341.242188 L 568.03125 341.242188 "/>
</g>
<g clip-path="url(#clip-2)">
<path fill="none" stroke-width="0.775984" stroke-linecap="butt" stroke-linejoin="round" stroke="rgb(100%, 100%, 100%)" stroke-opacity="1" stroke-miterlimit="10" d="M 45.144531 306.210938 L 568.03125 306.210938 "/>
</g>
<g clip-path="url(#clip-3)">
<path fill="none" stroke-width="0.775984" stroke-linecap="butt" stroke-linejoin="round" stroke="rgb(100%, 100%, 100%)" stroke-opacity="1" stroke-miterlimit="10" d="M 45.144531 271.179688 L 568.03125 271.179688 "/>
</g>
<g clip-path="url(#clip-4)">
<path fill="none" stroke-width="0.775984" stroke-linecap="butt" stroke-linejoin="round" stroke="rgb(100%, 100%, 100%)" stroke-opacity="1" stroke-miterlimit="10" d="M 45.144531 236.144531 L 568.03125 236.144531 "/>
</g>
<g clip-path="url(#clip-5)">
<path fill="none" stroke-width="0.775984" stroke-linecap="butt" stroke-linejoin="round" stroke="rgb(100%, 100%, 100%)" stroke-opacity="1" stroke-miterlimit="10" d="M 45.144531 201.113281 L 568.03125 201.113281 "/>
</g>
<g clip-path="url(#clip-6)">
<path fill="none" stroke-width="0.775984" stroke-linecap="butt" stroke-linejoin="round" stroke="rgb(100%, 100%, 100%)" stroke-opacity="1" stroke-miterlimit="10" d="M 45.144531 166.082031 L 568.03125 166.082031 "/>
</g>
<g clip-path="url(#clip-7)">
<path fill="none" stroke-width="0.775984" stroke-linecap="butt" stroke-linejoin="round" stroke="rgb(100%, 100%, 100%)" stroke-opacity="1" stroke-miterlimit="10" d="M 45.144531 131.050781 L 568.03125 131.050781 "/>
</g>
<g clip-path="url(#clip-8)">
<path fill="none" stroke-width="0.775984" stroke-linecap="butt" stroke-linejoin="round" stroke="rgb(100%, 100%, 100%)" stroke-opacity="1" stroke-miterlimit="10" d="M 45.144531 96.015625 L 568.03125 96.015625 "/>
</g>
<g clip-path="url(#clip-9)">
<path fill="none" stroke-width="0.775984" stroke-linecap="butt" stroke-linejoin="round" stroke="rgb(100%, 100%, 100%)" stroke-opacity="1" stroke-miterlimit="10" d="M 45.144531 60.984375 L 568.03125 60.984375 "/>
</g>
<g clip-path="url(#clip-10)">
<path fill="none" stroke-width="0.775984" stroke-linecap="butt" stroke-linejoin="round" stroke="rgb(100%, 100%, 100%)" stroke-opacity="1" stroke-miterlimit="10" d="M 45.144531 43.46875 L 568.03125 43.46875 "/>
</g>
<g clip-path="url(#clip-11)">
<path fill="none" stroke-width="0.775984" stroke-linecap="butt" stroke-linejoin="round" stroke="rgb(100%, 100%, 100%)" stroke-opacity="1" stroke-miterlimit="10" d="M 100.515625 366.886719 L 100.515625 33.941406 "/>
</g>
<g clip-path="url(#clip-12)">
<path fill="none" stroke-width="0.775984" stroke-linecap="butt" stroke-linejoin="round" stroke="rgb(100%, 100%, 100%)" stroke-opacity="1" stroke-miterlimit="10" d="M 185.648438 366.886719 L 185.648438 33.941406 "/>
</g>
<g clip-path="url(#clip-13)">
<path fill="none" stroke-width="0.775984" stroke-linecap="butt" stroke-linejoin="round" stroke="rgb(100%, 100%, 100%)" stroke-opacity="1" stroke-miterlimit="10" d="M 270.785156 366.886719 L 270.785156 33.941406 "/>
</g>
<g clip-path="url(#clip-14)">
<path fill="none" stroke-width="0.775984" stroke-linecap="butt" stroke-linejoin="round" stroke="rgb(100%, 100%, 100%)" stroke-opacity="1" stroke-miterlimit="10" d="M 356.035156 366.886719 L 356.035156 33.941406 "/>
</g>
<g clip-path="url(#clip-15)">
<path fill="none" stroke-width="0.775984" stroke-linecap="butt" stroke-linejoin="round" stroke="rgb(100%, 100%, 100%)" stroke-opacity="1" stroke-miterlimit="10" d="M 441.285156 366.886719 L 441.285156 33.941406 "/>
</g>
<g clip-path="url(#clip-16)">
<path fill="none" stroke-width="0.775984" stroke-linecap="butt" stroke-linejoin="round" stroke="rgb(100%, 100%, 100%)" stroke-opacity="1" stroke-miterlimit="10" d="M 526.417969 366.886719 L 526.417969 33.941406 "/>
</g>
<g clip-path="url(#clip-17)">
<path fill="none" stroke-width="1.551969" stroke-linecap="butt" stroke-linejoin="round" stroke="rgb(100%, 100%, 100%)" stroke-opacity="1" stroke-miterlimit="10" d="M 45.144531 358.757812 L 568.03125 358.757812 "/>
</g>
<g clip-path="url(#clip-18)">
<path fill="none" stroke-width="1.551969" stroke-linecap="butt" stroke-linejoin="round" stroke="rgb(100%, 100%, 100%)" stroke-opacity="1" stroke-miterlimit="10" d="M 45.144531 323.726562 L 568.03125 323.726562 "/>
</g>
<g clip-path="url(#clip-19)">
<path fill="none" stroke-width="1.551969" stroke-linecap="butt" stroke-linejoin="round" stroke="rgb(100%, 100%, 100%)" stroke-opacity="1" stroke-miterlimit="10" d="M 45.144531 288.695312 L 568.03125 288.695312 "/>
</g>
<g clip-path="url(#clip-20)">
<path fill="none" stroke-width="1.551969" stroke-linecap="butt" stroke-linejoin="round" stroke="rgb(100%, 100%, 100%)" stroke-opacity="1" stroke-miterlimit="10" d="M 45.144531 253.664062 L 568.03125 253.664062 "/>
</g>
<g clip-path="url(#clip-21)">
<path fill="none" stroke-width="1.551969" stroke-linecap="butt" stroke-linejoin="round" stroke="rgb(100%, 100%, 100%)" stroke-opacity="1" stroke-miterlimit="10" d="M 45.144531 218.628906 L 568.03125 218.628906 "/>
</g>
<g clip-path="url(#clip-22)">
<path fill="none" stroke-width="1.551969" stroke-linecap="butt" stroke-linejoin="round" stroke="rgb(100%, 100%, 100%)" stroke-opacity="1" stroke-miterlimit="10" d="M 45.144531 183.597656 L 568.03125 183.597656 "/>
</g>
<g clip-path="url(#clip-23)">
<path fill="none" stroke-width="1.551969" stroke-linecap="butt" stroke-linejoin="round" stroke="rgb(100%, 100%, 100%)" stroke-opacity="1" stroke-miterlimit="10" d="M 45.144531 148.566406 L 568.03125 148.566406 "/>
</g>
<g clip-path="url(#clip-24)">
<path fill="none" stroke-width="1.551969" stroke-linecap="butt" stroke-linejoin="round" stroke="rgb(100%, 100%, 100%)" stroke-opacity="1" stroke-miterlimit="10" d="M 45.144531 113.535156 L 568.03125 113.535156 "/>
</g>
<g clip-path="url(#clip-25)">
<path fill="none" stroke-width="1.551969" stroke-linecap="butt" stroke-linejoin="round" stroke="rgb(100%, 100%, 100%)" stroke-opacity="1" stroke-miterlimit="10" d="M 45.144531 78.5 L 568.03125 78.5 "/>
</g>
<g clip-path="url(#clip-26)">
<path fill="none" stroke-width="1.551969" stroke-linecap="butt" stroke-linejoin="round" stroke="rgb(100%, 100%, 100%)" stroke-opacity="1" stroke-miterlimit="10" d="M 57.949219 366.886719 L 57.949219 33.941406 "/>
</g>
<g clip-path="url(#clip-27)">
<path fill="none" stroke-width="1.551969" stroke-linecap="butt" stroke-linejoin="round" stroke="rgb(100%, 100%, 100%)" stroke-opacity="1" stroke-miterlimit="10" d="M 143.082031 366.886719 L 143.082031 33.941406 "/>
</g>
<g clip-path="url(#clip-28)">
<path fill="none" stroke-width="1.551969" stroke-linecap="butt" stroke-linejoin="round" stroke="rgb(100%, 100%, 100%)" stroke-opacity="1" stroke-miterlimit="10" d="M 228.214844 366.886719 L 228.214844 33.941406 "/>
</g>
<g clip-path="url(#clip-29)">
<path fill="none" stroke-width="1.551969" stroke-linecap="butt" stroke-linejoin="round" stroke="rgb(100%, 100%, 100%)" stroke-opacity="1" stroke-miterlimit="10" d="M 313.351562 366.886719 L 313.351562 33.941406 "/>
</g>
<g clip-path="url(#clip-30)">
<path fill="none" stroke-width="1.551969" stroke-linecap="butt" stroke-linejoin="round" stroke="rgb(100%, 100%, 100%)" stroke-opacity="1" stroke-miterlimit="10" d="M 398.71875 366.886719 L 398.71875 33.941406 "/>
</g>
<g clip-path="url(#clip-31)">
<path fill="none" stroke-width="1.551969" stroke-linecap="butt" stroke-linejoin="round" stroke="rgb(100%, 100%, 100%)" stroke-opacity="1" stroke-miterlimit="10" d="M 483.851562 366.886719 L 483.851562 33.941406 "/>
</g>
<path fill="none" stroke-width="1.551969" stroke-linecap="butt" stroke-linejoin="round" stroke="rgb(72.156863%, 0%, 0%)" stroke-opacity="1" stroke-miterlimit="10" d="M 68.910156 218.628906 L 72.175781 222.308594 L 78.707031 222.132812 L 80.105469 222.132812 L 89.667969 214.601562 L 90.371094 228.542969 L 91.535156 227.386719 L 96.199219 217.753906 L 104.597656 190.605469 L 107.863281 188.046875 L 109.496094 186.402344 L 110.195312 183.597656 L 110.894531 185.347656 L 111.828125 185 L 112.527344 182.617188 L 113.226562 181.320312 L 114.859375 152.070312 L 116.027344 141.558594 L 116.726562 127.546875 L 125.589844 131.050781 L 126.523438 131.050781 L 127.6875 130.875 L 127.921875 131.050781 L 147.28125 103.023438 L 147.515625 99.519531 L 151.011719 85.507812 L 151.945312 87.257812 L 153.578125 64.488281 L 155.210938 71.496094 L 155.445312 73.246094 L 155.675781 74.996094 L 155.910156 77.625 L 157.308594 74.996094 L 157.542969 82.003906 L 158.242188 84.632812 L 158.476562 92.515625 L 158.710938 96.894531 L 161.042969 104.777344 L 162.207031 102.742188 L 162.441406 98.996094 L 164.074219 94.265625 L 164.773438 94.265625 L 166.640625 92.792969 L 167.105469 90.761719 L 168.507812 89.011719 L 168.738281 89.992188 L 169.90625 92.515625 L 170.140625 92.515625 L 171.304688 96.015625 L 171.539062 92.515625 L 172.003906 91.988281 L 173.171875 90.414062 L 175.035156 90.414062 L 176.4375 89.011719 L 176.667969 89.011719 L 176.902344 87.960938 L 177.835938 89.816406 L 178.535156 90.0625 L 178.769531 89.710938 L 180.167969 88.136719 L 180.402344 90.414062 L 181.101562 89.1875 L 181.335938 90.761719 L 181.566406 89.886719 L 182.035156 89.292969 L 182.96875 91.113281 L 183.433594 90.761719 L 183.667969 90.9375 L 184.367188 92.515625 L 185.066406 92.515625 L 185.300781 92.652344 L 186 94.617188 L 186.234375 94.265625 L 186.699219 99.519531 L 186.933594 102.671875 L 187.632812 98.644531 L 187.867188 100.394531 L 188.097656 103.375 L 188.566406 102.5 L 189.496094 103.199219 L 189.964844 102.5 L 190.898438 103.304688 L 191.363281 89.011719 L 191.597656 76.75 L 191.832031 79.378906 L 192.996094 80.253906 L 193.464844 80.078125 L 194.394531 79.203125 L 194.628906 78.5 L 195.097656 78.5 L 195.796875 77.625 L 196.027344 75.347656 L 196.496094 62.738281 L 197.195312 60.984375 L 197.660156 60.285156 L 197.894531 59.234375 L 198.128906 59.582031 L 198.359375 57.480469 L 199.0625 55.730469 L 199.292969 55.308594 L 199.527344 56.429688 L 199.761719 55.203125 L 199.992188 54.960938 L 200.925781 53.980469 L 201.160156 56.082031 L 201.625 58.53125 L 202.558594 52.226562 L 203.257812 67.816406 L 204.191406 67.992188 L 204.890625 72.371094 L 205.824219 74.121094 L 206.058594 81.128906 L 207.222656 85.332031 L 207.457031 85.507812 L 208.855469 67.992188 L 209.089844 69.742188 L 211.191406 76.75 L 212.589844 74.121094 L 212.824219 71.496094 L 213.054688 70.023438 L 214.457031 67.992188 L 214.6875 61.859375 L 215.386719 60.109375 L 215.855469 52.925781 L 216.085938 50.894531 L 216.320312 51.175781 L 217.019531 50.824219 L 217.71875 49.074219 L 217.953125 49.601562 L 218.886719 50.125 L 219.351562 54.679688 L 219.585938 56.78125 L 220.519531 59.582031 L 220.753906 63.960938 L 220.984375 65.539062 L 222.152344 71.496094 L 222.617188 69.742188 L 222.851562 68.867188 L 224.019531 69.742188 L 224.25 63.960938 L 224.484375 87.257812 L 225.183594 89.011719 L 226.117188 90.761719 L 227.285156 87.257812 L 228.917969 90.761719 L 229.148438 93.566406 L 230.550781 101.273438 L 234.980469 107.402344 L 237.078125 109.328125 L 237.3125 110.03125 L 238.246094 109.679688 L 238.480469 109.328125 L 238.710938 110.03125 L 238.945312 109.679688 L 239.179688 113.183594 L 240.34375 124.042969 L 240.8125 124.042969 L 241.511719 125.792969 L 241.746094 127.546875 L 241.976562 130.171875 L 242.210938 126.671875 L 243.609375 128.773438 L 243.84375 127.546875 L 244.078125 127.964844 L 244.777344 125.792969 L 245.242188 113.535156 L 246.644531 131.050781 L 247.109375 131.050781 L 247.34375 140.683594 L 247.574219 141.558594 L 248.042969 141.558594 L 248.277344 145.0625 L 248.507812 155.570312 L 248.742188 159.074219 L 248.976562 166.082031 L 249.675781 183.597656 L 249.910156 166.082031 L 251.539062 159.074219 L 252.242188 131.050781 L 253.171875 142.433594 L 253.40625 152.945312 L 253.640625 150.316406 L 253.875 146.8125 L 254.105469 144.1875 L 254.574219 145.0625 L 255.039062 145.0625 L 256.4375 171.335938 L 256.671875 171.335938 L 256.90625 180.96875 L 257.140625 180.09375 L 257.839844 180.09375 L 258.539062 183.597656 L 258.773438 181.847656 L 259.472656 178.34375 L 259.703125 182.441406 L 259.9375 182.195312 L 260.171875 181.847656 L 260.402344 175.714844 L 261.105469 174.839844 L 261.570312 171.335938 L 261.804688 173.089844 L 262.96875 171.335938 L 263.4375 171.335938 L 263.667969 167.414062 L 264.601562 169.585938 L 265.070312 162.578125 L 266.003906 162.578125 L 266.234375 164.332031 L 266.46875 153.820312 L 266.933594 155.570312 L 267.636719 155.570312 L 267.867188 180.09375 L 269.96875 216.003906 L 270.199219 218.628906 L 271.367188 230.890625 L 272.53125 219.332031 L 273.234375 223.886719 L 273.933594 239.648438 L 274.164062 208.121094 L 274.398438 192.355469 L 274.867188 197.609375 L 275.097656 201.113281 L 275.796875 204.617188 L 276.03125 183.597656 L 276.265625 131.050781 L 276.5 135.429688 L 277.898438 157.324219 L 278.128906 166.082031 L 278.363281 166.082031 L 279.0625 159.074219 L 279.296875 155.570312 L 279.53125 148.566406 L 280.929688 148.566406 L 281.164062 146.8125 L 281.394531 145.0625 L 281.628906 138.054688 L 281.863281 136.304688 L 282.328125 132.695312 L 282.5625 131.574219 L 282.796875 131.050781 L 283.261719 127.546875 L 284.195312 127.546875 L 284.429688 124.917969 L 284.660156 122.292969 L 284.894531 115.285156 L 285.59375 113.535156 L 286.0625 113.535156 L 286.292969 110.449219 L 286.527344 107.402344 L 287.925781 110.03125 L 288.394531 113.535156 L 289.09375 131.050781 L 289.328125 131.050781 L 289.558594 128.421875 L 289.792969 131.050781 L 290.027344 132.800781 L 290.492188 123.167969 L 290.726562 134.554688 L 290.960938 136.304688 L 291.191406 131.050781 L 292.125 131.050781 L 292.59375 134.554688 L 292.824219 120.539062 L 293.058594 130.171875 L 293.757812 131.050781 L 293.992188 129.296875 L 294.226562 124.394531 L 294.691406 124.042969 L 295.390625 127.371094 L 295.625 122.292969 L 295.855469 118.367188 L 297.257812 120.539062 L 297.488281 118.367188 L 297.722656 117.035156 L 298.65625 117.035156 L 299.121094 115.285156 L 299.355469 115.285156 L 299.589844 117.035156 L 300.289062 113.535156 L 300.523438 112.832031 L 300.753906 110.03125 L 302.15625 110.378906 L 302.386719 113.535156 L 303.554688 113.535156 L 303.789062 112.65625 L 304.019531 112.832031 L 304.253906 112.761719 L 304.488281 110.207031 L 305.1875 106.527344 L 305.421875 103.023438 L 305.652344 96.015625 L 305.886719 101.273438 L 306.121094 99.941406 L 306.585938 97.769531 L 306.820312 96.015625 L 307.285156 96.894531 L 307.519531 110.03125 L 308.453125 113.535156 L 308.6875 110.03125 L 308.917969 106.703125 L 309.152344 108.277344 L 309.386719 110.03125 L 310.085938 110.03125 L 310.785156 113.535156 L 315.917969 119.3125 L 318.25 124.042969 L 318.480469 122.292969 L 318.714844 117.035156 L 319.183594 115.109375 L 320.113281 112.65625 L 320.347656 103.023438 L 320.582031 102.601562 L 320.8125 103.023438 L 323.148438 103.023438 L 323.378906 110.03125 L 323.613281 113.535156 L 323.847656 113.535156 L 324.078125 118.789062 L 324.78125 119.136719 L 325.011719 116.160156 L 325.246094 124.917969 L 325.480469 125.792969 L 326.644531 125.792969 L 327.113281 128.421875 L 327.34375 124.917969 L 328.046875 131.050781 L 328.277344 127.546875 L 328.511719 123.167969 L 328.746094 120.539062 L 328.976562 117.035156 L 329.675781 119.664062 L 329.910156 117.035156 L 330.144531 122.292969 L 330.609375 131.050781 L 331.308594 131.050781 L 331.542969 131.925781 L 331.777344 138.054688 L 332.011719 174.839844 L 332.242188 169.164062 L 332.941406 169.585938 L 333.644531 162.578125 L 334.808594 159.074219 L 335.042969 153.820312 L 335.277344 156.449219 L 336.207031 158.199219 L 336.441406 166.082031 L 336.675781 169.585938 L 336.910156 171.335938 L 337.140625 169.585938 L 337.609375 169.585938 L 337.839844 174.839844 L 338.308594 176.589844 L 338.539062 174.839844 L 339.472656 166.082031 L 339.707031 164.332031 L 339.941406 166.082031 L 341.105469 169.585938 L 341.574219 166.082031 L 341.804688 172.28125 L 342.039062 172.5625 L 342.738281 166.082031 L 343.207031 166.082031 L 343.4375 169.585938 L 343.671875 169.410156 L 344.371094 169.585938 L 344.605469 170.460938 L 345.070312 169.585938 L 345.304688 176.589844 L 346.003906 201.113281 L 346.472656 202.867188 L 346.703125 199.363281 L 346.9375 202.867188 L 347.402344 202.867188 L 347.636719 204.617188 L 347.871094 202.867188 L 348.105469 197.609375 L 348.335938 194.109375 L 348.570312 190.605469 L 349.269531 197.609375 L 349.503906 176.589844 L 349.738281 166.082031 L 349.96875 166.082031 L 350.203125 171.335938 L 351.136719 174.839844 L 351.371094 174.839844 L 351.601562 173.089844 L 351.835938 179.21875 L 352.535156 184.019531 L 353.003906 192.777344 L 353.234375 194.109375 L 353.46875 185.347656 L 354.167969 187.101562 L 354.636719 191.480469 L 355.335938 187.976562 L 355.800781 183.597656 L 356.035156 176.589844 L 356.265625 180.09375 L 356.5 180.09375 L 357.433594 179.21875 L 357.667969 176.871094 L 357.898438 175.714844 L 358.132812 172.210938 L 358.367188 174.839844 L 359.066406 174.839844 L 359.300781 169.585938 L 359.53125 167.832031 L 360.699219 174.839844 L 360.933594 180.09375 L 361.164062 181.847656 L 361.398438 182.722656 L 361.632812 182.898438 L 362.332031 183.597656 L 362.566406 176.589844 L 362.796875 178.34375 L 363.03125 180.09375 L 363.265625 174.839844 L 363.964844 173.089844 L 364.429688 174.839844 L 365.832031 173.089844 L 366.0625 173.089844 L 367.230469 168.710938 L 367.464844 148.566406 L 367.695312 152.070312 L 368.164062 149.441406 L 368.863281 148.566406 L 369.097656 146.8125 L 369.5625 145.0625 L 369.796875 145.0625 L 370.496094 141.558594 L 370.730469 143.3125 L 370.960938 145.0625 L 371.195312 143.3125 L 371.429688 146.8125 L 372.128906 143.484375 L 372.363281 143.3125 L 372.59375 143.660156 L 372.828125 145.0625 L 374.226562 145.0625 L 374.460938 143.3125 L 374.695312 142.890625 L 375.394531 145.0625 L 375.625 144.363281 L 375.859375 141.558594 L 377.027344 141.558594 L 377.257812 141.140625 L 377.492188 139.808594 L 377.726562 140.332031 L 378.890625 143.3125 L 379.359375 140.507812 L 379.59375 139.808594 L 380.292969 141.140625 L 380.523438 138.933594 L 380.757812 139.808594 L 380.992188 138.054688 L 381.226562 139.808594 L 382.15625 138.757812 L 382.390625 139.28125 L 382.855469 138.757812 L 383.789062 139.808594 L 384.023438 138.933594 L 384.257812 138.054688 L 384.488281 138.054688 L 385.421875 136.304688 L 385.890625 136.304688 L 386.121094 135.953125 L 386.824219 136.304688 L 387.054688 135.953125 L 387.523438 135.605469 L 387.753906 135.253906 L 389.386719 135.253906 L 390.089844 136.480469 L 390.320312 136.304688 L 390.554688 136.304688 L 390.789062 135.253906 L 391.71875 136.480469 L 391.953125 134.554688 L 392.1875 132.800781 L 392.421875 136.828125 L 392.652344 139.808594 L 393.351562 148.566406 L 394.285156 137.707031 L 394.984375 143.3125 L 395.21875 138.054688 L 395.6875 146.8125 L 396.617188 149.617188 L 397.550781 141.558594 L 398.484375 140.507812 L 399.183594 138.054688 L 399.882812 137.179688 L 400.582031 137.179688 L 400.816406 139.808594 L 401.515625 141.558594 L 401.75 137.707031 L 402.214844 138.054688 L 402.449219 138.054688 L 403.148438 137.179688 L 403.382812 138.054688 L 403.617188 139.808594 L 403.847656 134.554688 L 404.082031 137.636719 L 404.78125 138.054688 L 405.015625 137.179688 L 405.25 138.054688 L 405.714844 135.429688 L 406.414062 136.726562 L 406.648438 136.304688 L 406.882812 136.65625 L 407.113281 136.304688 L 407.347656 137.355469 L 408.046875 138.054688 L 408.980469 138.054688 L 409.914062 139.808594 L 410.148438 137.707031 L 410.378906 139.808594 L 410.613281 139.808594 L 411.3125 138.054688 L 411.78125 138.230469 L 412.011719 138.054688 L 412.945312 138.230469 L 413.179688 139.808594 L 413.878906 143.3125 L 414.113281 142.433594 L 415.046875 143.3125 L 415.277344 145.0625 L 415.511719 147.234375 L 416.210938 148.566406 L 416.445312 150.667969 L 416.679688 150.738281 L 416.910156 150.316406 L 417.144531 150.316406 L 417.84375 152.070312 L 418.078125 153.820312 L 418.308594 161.703125 L 418.542969 155.570312 L 418.777344 152.945312 L 419.476562 159.074219 L 419.710938 159.074219 L 419.941406 160.898438 L 420.175781 166.082031 L 420.410156 166.082031 L 421.34375 166.605469 L 421.574219 167.832031 L 422.042969 167.832031 L 422.742188 169.585938 L 422.976562 173.089844 L 423.207031 183.597656 L 423.441406 184.472656 L 423.675781 183.597656 L 424.839844 178.34375 L 426.007812 190.605469 L 426.242188 192.355469 L 426.472656 190.605469 L 426.707031 182.722656 L 427.640625 183.597656 L 427.875 180.09375 L 428.105469 180.96875 L 428.339844 181.847656 L 428.574219 187.101562 L 429.273438 176.242188 L 429.507812 173.4375 L 429.972656 163.628906 L 430.207031 166.082031 L 430.90625 164.332031 L 432.539062 169.585938 L 432.773438 169.585938 L 433.003906 166.082031 L 433.238281 166.886719 L 433.472656 166.957031 L 434.40625 166.082031 L 434.636719 166.082031 L 434.871094 163.453125 L 435.105469 166.082031 L 436.035156 159.953125 L 436.269531 159.953125 L 436.503906 159.496094 L 436.738281 159.917969 L 437.4375 159.074219 L 437.667969 160.828125 L 437.902344 157.324219 L 438.136719 157.324219 L 439.070312 153.820312 L 439.300781 152.070312 L 439.535156 152.070312 L 440.703125 153.820312 L 441.402344 159.074219 L 441.636719 159.074219 L 442.335938 157.324219 L 442.566406 155.570312 L 442.800781 155.503906 L 443.035156 157.324219 L 444.199219 155.570312 L 444.433594 155.570312 L 446.066406 162.578125 L 446.300781 160.125 L 447 160.125 L 447.464844 162.578125 L 447.699219 162.578125 L 447.933594 164.332031 L 448.164062 160.828125 L 448.867188 159.074219 L 449.097656 159.074219 L 450.730469 159.25 L 451.199219 160.828125 L 451.429688 160.828125 L 452.132812 161.703125 L 453.996094 162.929688 L 454.230469 161.703125 L 454.464844 159.074219 L 455.394531 159.074219 L 455.628906 162.578125 L 455.863281 159.074219 L 456.097656 159.074219 L 456.328125 157.324219 L 457.261719 157.324219 L 457.496094 155.570312 L 457.960938 155.570312 L 458.894531 157.394531 L 459.128906 157.324219 L 459.59375 158.164062 L 460.292969 159.953125 L 460.527344 155.992188 L 460.761719 157.746094 L 460.996094 159.003906 L 461.925781 158.726562 L 462.160156 158.898438 L 462.394531 159.074219 L 462.625 160.019531 L 463.558594 159.25 L 463.792969 160.476562 L 464.027344 164.332031 L 465.425781 162.578125 L 465.890625 162.578125 L 466.125 162.929688 L 467.058594 164.679688 L 468.691406 166.433594 L 468.925781 173.089844 L 469.15625 173.4375 L 470.089844 173.089844 L 470.324219 176.589844 L 470.558594 180.96875 L 471.023438 205.492188 L 471.722656 204.195312 L 471.957031 201.113281 L 472.191406 194.984375 L 472.421875 206.789062 L 473.355469 208.121094 L 473.824219 205.492188 L 474.988281 201.113281 L 475.457031 208.121094 L 475.6875 218.628906 L 477.554688 213.375 L 478.253906 218.628906 L 478.722656 218.628906 L 478.953125 219.507812 L 479.1875 220.207031 L 480.121094 221.539062 L 480.351562 225.636719 L 480.585938 225.636719 L 480.820312 218.628906 L 484.785156 219.507812 L 485.019531 220.382812 L 485.71875 228.613281 L 486.417969 232.644531 L 486.652344 232.117188 L 486.882812 234.042969 L 487.117188 236.144531 L 487.351562 242.453125 L 487.816406 241.050781 L 488.050781 241.050781 L 488.285156 232.644531 L 488.75 226.511719 L 488.984375 237.722656 L 489.683594 239.648438 L 489.917969 239.230469 L 490.148438 238.949219 L 490.382812 237.898438 L 490.617188 236.144531 L 491.316406 236.144531 L 491.550781 232.644531 L 491.78125 228.265625 L 492.015625 226.511719 L 492.949219 224.761719 L 493.183594 222.132812 L 493.414062 217.753906 L 493.648438 204.617188 L 494.582031 218.628906 L 494.816406 212.5 L 495.046875 208.121094 L 495.28125 208.644531 L 495.515625 202.691406 L 495.746094 208.121094 L 496.214844 200.0625 L 496.449219 194.984375 L 496.679688 192.355469 L 497.847656 194.109375 L 498.546875 208.121094 L 498.78125 203.566406 L 499.246094 203.566406 L 499.480469 201.113281 L 499.710938 203.144531 L 499.945312 204.617188 L 500.414062 205.492188 L 501.113281 213.375 L 501.578125 218.628906 L 501.8125 215.128906 L 502.046875 218.628906 L 502.746094 218.628906 L 502.976562 216.878906 L 503.210938 211.625 L 503.445312 211.625 L 503.679688 213.375 L 506.242188 213.375 L 506.476562 212.5 L 506.710938 208.121094 L 506.941406 201.113281 L 507.644531 201.113281 L 507.875 197.609375 L 508.109375 199.363281 L 508.34375 197.609375 L 508.574219 195.859375 L 509.277344 188.851562 L 509.507812 187.101562 L 509.742188 187.101562 L 509.976562 186.925781 L 510.207031 183.597656 L 511.609375 183.597656 L 511.839844 180.09375 L 512.542969 170.460938 L 513.242188 173.089844 L 513.472656 176.589844 L 514.171875 177.46875 L 514.40625 177.011719 L 514.875 183.597656 L 515.105469 179.21875 L 515.804688 176.589844 L 516.039062 176.589844 L 516.273438 169.585938 L 516.507812 169.933594 L 516.738281 176.589844 L 517.4375 176.589844 L 517.671875 175.714844 L 517.90625 173.789062 L 518.140625 181.847656 L 519.304688 179.21875 L 519.539062 180.09375 L 519.773438 176.589844 L 520.003906 183.597656 L 520.703125 176.589844 L 520.9375 174.839844 L 521.171875 176.589844 L 521.40625 173.089844 L 522.804688 173.089844 L 523.035156 169.585938 L 523.96875 169.585938 L 524.203125 166.082031 L 524.667969 169.585938 L 525.601562 166.082031 L 526.070312 169.585938 L 526.535156 169.585938 L 527.46875 171.265625 L 527.703125 169.585938 L 527.933594 169.585938 L 529.101562 174.839844 L 529.335938 169.933594 L 529.566406 169.761719 L 529.800781 168.640625 L 530.5 169.058594 L 530.734375 166.082031 L 530.96875 162.929688 L 531.199219 162.578125 L 532.367188 162.226562 L 532.601562 165.207031 L 532.832031 165.207031 L 533.765625 166.082031 L 534 166.082031 L 534.464844 165.207031 L 534.699219 166.082031 L 535.398438 169.585938 L 535.632812 167.132812 L 536.097656 166.886719 L 537.5 173.089844 L 538.664062 173.089844 L 538.898438 180.09375 L 539.132812 180.09375 L 539.597656 177.46875 L 539.832031 179.21875 L 540.296875 178.34375 L 541.230469 180.09375 L 541.929688 183.597656 L 542.394531 201.113281 L 542.628906 185.699219 L 543.5625 187.101562 L 543.796875 180.09375 L 544.027344 179.21875 L 544.261719 176.589844 "/>
<g fill="rgb(0%, 0%, 0%)" fill-opacity="1">
<use xlink:href="#glyph-0-0" x="433.261719" y="354.475586"/>
<use xlink:href="#glyph-0-1" x="439.261719" y="354.475586"/>
<use xlink:href="#glyph-0-2" x="441.261719" y="354.475586"/>
<use xlink:href="#glyph-0-3" x="445.261719" y="354.475586"/>
<use xlink:href="#glyph-0-4" x="450.261719" y="354.475586"/>
<use xlink:href="#glyph-0-5" x="453.261719" y="354.475586"/>
<use xlink:href="#glyph-0-6" x="457.261719" y="354.475586"/>
<use xlink:href="#glyph-0-7" x="459.261719" y="354.475586"/>
<use xlink:href="#glyph-0-8" x="464.261719" y="354.475586"/>
<use xlink:href="#glyph-0-1" x="469.261719" y="354.475586"/>
<use xlink:href="#glyph-0-9" x="471.261719" y="354.475586"/>
<use xlink:href="#glyph-0-10" x="476.261719" y="354.475586"/>
<use xlink:href="#glyph-0-11" x="478.261719" y="354.475586"/>
<use xlink:href="#glyph-0-10" x="483.261719" y="354.475586"/>
<use xlink:href="#glyph-0-12" x="485.261719" y="354.475586"/>
<use xlink:href="#glyph-0-1" x="490.261719" y="354.475586"/>
<use xlink:href="#glyph-0-13" x="492.261719" y="354.475586"/>
<use xlink:href="#glyph-0-14" x="495.261719" y="354.475586"/>
<use xlink:href="#glyph-0-15" x="500.261719" y="354.475586"/>
<use xlink:href="#glyph-0-14" x="505.261719" y="354.475586"/>
<use xlink:href="#glyph-0-16" x="510.261719" y="354.475586"/>
<use xlink:href="#glyph-0-17" x="515.261719" y="354.475586"/>
<use xlink:href="#glyph-0-15" x="518.261719" y="354.475586"/>
<use xlink:href="#glyph-0-12" x="523.261719" y="354.475586"/>
<use xlink:href="#glyph-0-17" x="528.261719" y="354.475586"/>
<use xlink:href="#glyph-0-18" x="531.261719" y="354.475586"/>
<use xlink:href="#glyph-0-18" x="536.261719" y="354.475586"/>
<use xlink:href="#glyph-0-19" x="541.261719" y="354.475586"/>
</g>
<g fill="rgb(30.196078%, 30.196078%, 30.196078%)" fill-opacity="1">
<use xlink:href="#glyph-1-0" x="34.957031" y="363.088867"/>
</g>
<g fill="rgb(30.196078%, 30.196078%, 30.196078%)" fill-opacity="1">
<use xlink:href="#glyph-1-1" x="27.957031" y="328.057617"/>
<use xlink:href="#glyph-1-0" x="34.957031" y="328.057617"/>
</g>
<g fill="rgb(30.196078%, 30.196078%, 30.196078%)" fill-opacity="1">
<use xlink:href="#glyph-1-2" x="27.957031" y="293.026367"/>
<use xlink:href="#glyph-1-0" x="34.957031" y="293.026367"/>
</g>
<g fill="rgb(30.196078%, 30.196078%, 30.196078%)" fill-opacity="1">
<use xlink:href="#glyph-1-3" x="27.957031" y="257.995117"/>
<use xlink:href="#glyph-1-0" x="34.957031" y="257.995117"/>
</g>
<g fill="rgb(30.196078%, 30.196078%, 30.196078%)" fill-opacity="1">
<use xlink:href="#glyph-1-4" x="27.957031" y="222.959961"/>
<use xlink:href="#glyph-1-0" x="34.957031" y="222.959961"/>
</g>
<g fill="rgb(30.196078%, 30.196078%, 30.196078%)" fill-opacity="1">
<use xlink:href="#glyph-1-5" x="27.957031" y="187.928711"/>
<use xlink:href="#glyph-1-0" x="34.957031" y="187.928711"/>
</g>
<g fill="rgb(30.196078%, 30.196078%, 30.196078%)" fill-opacity="1">
<use xlink:href="#glyph-1-6" x="27.957031" y="152.897461"/>
<use xlink:href="#glyph-1-0" x="34.957031" y="152.897461"/>
</g>
<g fill="rgb(30.196078%, 30.196078%, 30.196078%)" fill-opacity="1">
<use xlink:href="#glyph-1-7" x="27.957031" y="117.866211"/>
<use xlink:href="#glyph-1-0" x="34.957031" y="117.866211"/>
</g>
<g fill="rgb(30.196078%, 30.196078%, 30.196078%)" fill-opacity="1">
<use xlink:href="#glyph-1-8" x="27.957031" y="82.831055"/>
<use xlink:href="#glyph-1-0" x="34.957031" y="82.831055"/>
</g>
<path fill="none" stroke-width="1.551969" stroke-linecap="butt" stroke-linejoin="round" stroke="rgb(20%, 20%, 20%)" stroke-opacity="1" stroke-miterlimit="10" d="M 48.132812 358.757812 L 45.144531 358.757812 "/>
<path fill="none" stroke-width="1.551969" stroke-linecap="butt" stroke-linejoin="round" stroke="rgb(20%, 20%, 20%)" stroke-opacity="1" stroke-miterlimit="10" d="M 48.132812 323.726562 L 45.144531 323.726562 "/>
<path fill="none" stroke-width="1.551969" stroke-linecap="butt" stroke-linejoin="round" stroke="rgb(20%, 20%, 20%)" stroke-opacity="1" stroke-miterlimit="10" d="M 48.132812 288.695312 L 45.144531 288.695312 "/>
<path fill="none" stroke-width="1.551969" stroke-linecap="butt" stroke-linejoin="round" stroke="rgb(20%, 20%, 20%)" stroke-opacity="1" stroke-miterlimit="10" d="M 48.132812 253.664062 L 45.144531 253.664062 "/>
<path fill="none" stroke-width="1.551969" stroke-linecap="butt" stroke-linejoin="round" stroke="rgb(20%, 20%, 20%)" stroke-opacity="1" stroke-miterlimit="10" d="M 48.132812 218.628906 L 45.144531 218.628906 "/>
<path fill="none" stroke-width="1.551969" stroke-linecap="butt" stroke-linejoin="round" stroke="rgb(20%, 20%, 20%)" stroke-opacity="1" stroke-miterlimit="10" d="M 48.132812 183.597656 L 45.144531 183.597656 "/>
<path fill="none" stroke-width="1.551969" stroke-linecap="butt" stroke-linejoin="round" stroke="rgb(20%, 20%, 20%)" stroke-opacity="1" stroke-miterlimit="10" d="M 48.132812 148.566406 L 45.144531 148.566406 "/>
<path fill="none" stroke-width="1.551969" stroke-linecap="butt" stroke-linejoin="round" stroke="rgb(20%, 20%, 20%)" stroke-opacity="1" stroke-miterlimit="10" d="M 48.132812 113.535156 L 45.144531 113.535156 "/>
<path fill="none" stroke-width="1.551969" stroke-linecap="butt" stroke-linejoin="round" stroke="rgb(20%, 20%, 20%)" stroke-opacity="1" stroke-miterlimit="10" d="M 48.132812 78.5 L 45.144531 78.5 "/>
<path fill="none" stroke-width="1.551969" stroke-linecap="butt" stroke-linejoin="round" stroke="rgb(20%, 20%, 20%)" stroke-opacity="1" stroke-miterlimit="10" d="M 57.949219 363.898438 L 57.949219 366.886719 "/>
<path fill="none" stroke-width="1.551969" stroke-linecap="butt" stroke-linejoin="round" stroke="rgb(20%, 20%, 20%)" stroke-opacity="1" stroke-miterlimit="10" d="M 143.082031 363.898438 L 143.082031 366.886719 "/>
<path fill="none" stroke-width="1.551969" stroke-linecap="butt" stroke-linejoin="round" stroke="rgb(20%, 20%, 20%)" stroke-opacity="1" stroke-miterlimit="10" d="M 228.214844 363.898438 L 228.214844 366.886719 "/>
<path fill="none" stroke-width="1.551969" stroke-linecap="butt" stroke-linejoin="round" stroke="rgb(20%, 20%, 20%)" stroke-opacity="1" stroke-miterlimit="10" d="M 313.351562 363.898438 L 313.351562 366.886719 "/>
<path fill="none" stroke-width="1.551969" stroke-linecap="butt" stroke-linejoin="round" stroke="rgb(20%, 20%, 20%)" stroke-opacity="1" stroke-miterlimit="10" d="M 398.71875 363.898438 L 398.71875 366.886719 "/>
<path fill="none" stroke-width="1.551969" stroke-linecap="butt" stroke-linejoin="round" stroke="rgb(20%, 20%, 20%)" stroke-opacity="1" stroke-miterlimit="10" d="M 483.851562 363.898438 L 483.851562 366.886719 "/>
<g fill="rgb(30.196078%, 30.196078%, 30.196078%)" fill-opacity="1">
<use xlink:href="#glyph-1-2" x="43.949219" y="379.405273"/>
<use xlink:href="#glyph-1-0" x="50.949219" y="379.405273"/>
<use xlink:href="#glyph-1-2" x="57.949219" y="379.405273"/>
<use xlink:href="#glyph-1-1" x="64.949219" y="379.405273"/>
</g>
<g fill="rgb(30.196078%, 30.196078%, 30.196078%)" fill-opacity="1">
<use xlink:href="#glyph-1-2" x="129.082031" y="379.405273"/>
<use xlink:href="#glyph-1-0" x="136.082031" y="379.405273"/>
<use xlink:href="#glyph-1-2" x="143.082031" y="379.405273"/>
<use xlink:href="#glyph-1-2" x="150.082031" y="379.405273"/>
</g>
<g fill="rgb(30.196078%, 30.196078%, 30.196078%)" fill-opacity="1">
<use xlink:href="#glyph-1-2" x="214.214844" y="379.405273"/>
<use xlink:href="#glyph-1-0" x="221.214844" y="379.405273"/>
<use xlink:href="#glyph-1-2" x="228.214844" y="379.405273"/>
<use xlink:href="#glyph-1-3" x="235.214844" y="379.405273"/>
</g>
<g fill="rgb(30.196078%, 30.196078%, 30.196078%)" fill-opacity="1">
<use xlink:href="#glyph-1-2" x="299.351562" y="379.405273"/>
<use xlink:href="#glyph-1-0" x="306.351562" y="379.405273"/>
<use xlink:href="#glyph-1-2" x="313.351562" y="379.405273"/>
<use xlink:href="#glyph-1-4" x="320.351562" y="379.405273"/>
</g>
<g fill="rgb(30.196078%, 30.196078%, 30.196078%)" fill-opacity="1">
<use xlink:href="#glyph-1-2" x="384.71875" y="379.405273"/>
<use xlink:href="#glyph-1-0" x="391.71875" y="379.405273"/>
<use xlink:href="#glyph-1-2" x="398.71875" y="379.405273"/>
<use xlink:href="#glyph-1-5" x="405.71875" y="379.405273"/>
</g>
<g fill="rgb(30.196078%, 30.196078%, 30.196078%)" fill-opacity="1">
<use xlink:href="#glyph-1-2" x="469.851562" y="379.405273"/>
<use xlink:href="#glyph-1-0" x="476.851562" y="379.405273"/>
<use xlink:href="#glyph-1-2" x="483.851562" y="379.405273"/>
<use xlink:href="#glyph-1-6" x="490.851562" y="379.405273"/>
</g>
<g fill="rgb(0%, 0%, 0%)" fill-opacity="1">
<use xlink:href="#glyph-2-0" x="286.585938" y="398.722656"/>
<use xlink:href="#glyph-2-1" x="295.585938" y="398.722656"/>
<use xlink:href="#glyph-2-2" x="304.585938" y="398.722656"/>
<use xlink:href="#glyph-2-3" x="313.585938" y="398.722656"/>
<use xlink:href="#glyph-2-4" x="318.585938" y="398.722656"/>
</g>
<g fill="rgb(0%, 0%, 0%)" fill-opacity="1">
<use xlink:href="#glyph-3-0" x="19.632812" y="241.914062"/>
<use xlink:href="#glyph-3-1" x="19.632812" y="230.914062"/>
<use xlink:href="#glyph-3-2" x="19.632812" y="225.914062"/>
<use xlink:href="#glyph-3-3" x="19.632812" y="221.914062"/>
<use xlink:href="#glyph-3-4" x="19.632812" y="213.914062"/>
<use xlink:href="#glyph-3-5" x="19.632812" y="204.914062"/>
<use xlink:href="#glyph-3-6" x="19.632813" y="200.914062"/>
<use xlink:href="#glyph-3-7" x="19.632813" y="191.914062"/>
<use xlink:href="#glyph-3-8" x="19.632813" y="180.914062"/>
<use xlink:href="#glyph-3-9" x="19.632813" y="170.914062"/>
</g>
<g fill="rgb(0%, 0%, 0%)" fill-opacity="1">
<use xlink:href="#glyph-4-0" x="67.085938" y="25.09082"/>
<use xlink:href="#glyph-4-1" x="77.085938" y="25.09082"/>
<use xlink:href="#glyph-4-2" x="92.085938" y="25.09082"/>
<use xlink:href="#glyph-4-3" x="101.085938" y="25.09082"/>
<use xlink:href="#glyph-4-4" x="110.085938" y="25.09082"/>
<use xlink:href="#glyph-4-5" x="116.085938" y="25.09082"/>
<use xlink:href="#glyph-4-6" x="126.085938" y="25.09082"/>
<use xlink:href="#glyph-4-0" x="136.085938" y="25.09082"/>
<use xlink:href="#glyph-4-7" x="146.085938" y="25.09082"/>
<use xlink:href="#glyph-4-8" x="156.085938" y="25.09082"/>
<use xlink:href="#glyph-4-9" x="166.085938" y="25.09082"/>
<use xlink:href="#glyph-4-10" x="170.085938" y="25.09082"/>
<use xlink:href="#glyph-4-11" x="180.085938" y="25.09082"/>
<use xlink:href="#glyph-4-12" x="185.085938" y="25.09082"/>
<use xlink:href="#glyph-4-13" x="190.085938" y="25.09082"/>
<use xlink:href="#glyph-4-0" x="203.085938" y="25.09082"/>
<use xlink:href="#glyph-4-14" x="213.085938" y="25.09082"/>
<use xlink:href="#glyph-4-12" x="226.085938" y="25.09082"/>
<use xlink:href="#glyph-4-15" x="231.085938" y="25.09082"/>
<use xlink:href="#glyph-4-0" x="242.085938" y="25.09082"/>
<use xlink:href="#glyph-4-5" x="252.085938" y="25.09082"/>
<use xlink:href="#glyph-4-16" x="262.085938" y="25.09082"/>
<use xlink:href="#glyph-4-5" x="266.085938" y="25.09082"/>
<use xlink:href="#glyph-4-10" x="276.085938" y="25.09082"/>
<use xlink:href="#glyph-4-6" x="286.085938" y="25.09082"/>
<use xlink:href="#glyph-4-12" x="296.085938" y="25.09082"/>
<use xlink:href="#glyph-4-17" x="301.085938" y="25.09082"/>
<use xlink:href="#glyph-4-10" x="314.085938" y="25.09082"/>
<use xlink:href="#glyph-4-9" x="324.085938" y="25.09082"/>
<use xlink:href="#glyph-4-11" x="328.085938" y="25.09082"/>
<use xlink:href="#glyph-4-12" x="333.085938" y="25.09082"/>
<use xlink:href="#glyph-4-18" x="338.085938" y="25.09082"/>
<use xlink:href="#glyph-4-13" x="344.085938" y="25.09082"/>
<use xlink:href="#glyph-4-15" x="357.085938" y="25.09082"/>
<use xlink:href="#glyph-4-17" x="368.085938" y="25.09082"/>
<use xlink:href="#glyph-4-19" x="381.085938" y="25.09082"/>
<use xlink:href="#glyph-4-12" x="387.085938" y="25.09082"/>
<use xlink:href="#glyph-4-1" x="392.085938" y="25.09082"/>
<use xlink:href="#glyph-4-0" x="407.085938" y="25.09082"/>
<use xlink:href="#glyph-4-6" x="417.085938" y="25.09082"/>
<use xlink:href="#glyph-4-9" x="427.085938" y="25.09082"/>
<use xlink:href="#glyph-4-5" x="431.085938" y="25.09082"/>
<use xlink:href="#glyph-4-10" x="441.085938" y="25.09082"/>
<use xlink:href="#glyph-4-12" x="451.085938" y="25.09082"/>
<use xlink:href="#glyph-4-6" x="456.085938" y="25.09082"/>
<use xlink:href="#glyph-4-5" x="466.085938" y="25.09082"/>
<use xlink:href="#glyph-4-9" x="476.085938" y="25.09082"/>
<use xlink:href="#glyph-4-16" x="480.085938" y="25.09082"/>
<use xlink:href="#glyph-4-20" x="484.085938" y="25.09082"/>
<use xlink:href="#glyph-4-12" x="493.085938" y="25.09082"/>
<use xlink:href="#glyph-4-7" x="498.085938" y="25.09082"/>
<use xlink:href="#glyph-4-4" x="508.085938" y="25.09082"/>
<use xlink:href="#glyph-4-9" x="514.085938" y="25.09082"/>
<use xlink:href="#glyph-4-21" x="518.085938" y="25.09082"/>
<use xlink:href="#glyph-4-0" x="527.085938" y="25.09082"/>
<use xlink:href="#glyph-4-2" x="537.085938" y="25.09082"/>
</g>
<g fill="rgb(0%, 0%, 0%)" fill-opacity="1">
<use xlink:href="#glyph-1-9" x="63.085938" y="420.362305"/>
<use xlink:href="#glyph-1-10" x="72.085938" y="420.362305"/>
<use xlink:href="#glyph-1-11" x="79.085938" y="420.362305"/>
<use xlink:href="#glyph-1-10" x="83.085938" y="420.362305"/>
<use xlink:href="#glyph-1-12" x="90.085938" y="420.362305"/>
<use xlink:href="#glyph-1-13" x="94.085938" y="420.362305"/>
<use xlink:href="#glyph-1-14" x="98.085938" y="420.362305"/>
<use xlink:href="#glyph-1-11" x="105.085938" y="420.362305"/>
<use xlink:href="#glyph-1-11" x="109.085938" y="420.362305"/>
<use xlink:href="#glyph-1-15" x="113.085938" y="420.362305"/>
<use xlink:href="#glyph-1-16" x="120.085938" y="420.362305"/>
<use xlink:href="#glyph-1-12" x="126.085938" y="420.362305"/>
<use xlink:href="#glyph-1-17" x="130.085938" y="420.362305"/>
<use xlink:href="#glyph-1-17" x="134.085938" y="420.362305"/>
<use xlink:href="#glyph-1-18" x="138.085938" y="420.362305"/>
<use xlink:href="#glyph-1-19" x="145.085938" y="420.362305"/>
<use xlink:href="#glyph-1-11" x="148.085938" y="420.362305"/>
<use xlink:href="#glyph-1-14" x="151.085938" y="420.362305"/>
<use xlink:href="#glyph-1-20" x="158.085938" y="420.362305"/>
<use xlink:href="#glyph-1-21" x="165.085938" y="420.362305"/>
<use xlink:href="#glyph-1-22" x="172.085938" y="420.362305"/>
<use xlink:href="#glyph-1-23" x="176.085938" y="420.362305"/>
<use xlink:href="#glyph-1-24" x="183.085938" y="420.362305"/>
<use xlink:href="#glyph-1-25" x="190.085938" y="420.362305"/>
<use xlink:href="#glyph-1-17" x="201.085938" y="420.362305"/>
<use xlink:href="#glyph-1-11" x="205.085938" y="420.362305"/>
<use xlink:href="#glyph-1-14" x="208.085938" y="420.362305"/>
<use xlink:href="#glyph-1-26" x="215.085938" y="420.362305"/>
<use xlink:href="#glyph-1-26" x="222.085938" y="420.362305"/>
<use xlink:href="#glyph-1-23" x="229.085938" y="420.362305"/>
<use xlink:href="#glyph-1-10" x="235.085938" y="420.362305"/>
<use xlink:href="#glyph-1-27" x="242.085938" y="420.362305"/>
<use xlink:href="#glyph-1-25" x="249.085938" y="420.362305"/>
<use xlink:href="#glyph-1-24" x="260.085938" y="420.362305"/>
<use xlink:href="#glyph-1-28" x="267.085938" y="420.362305"/>
<use xlink:href="#glyph-1-26" x="270.085938" y="420.362305"/>
<use xlink:href="#glyph-1-17" x="277.085938" y="420.362305"/>
<use xlink:href="#glyph-1-26" x="281.085938" y="420.362305"/>
<use xlink:href="#glyph-1-25" x="288.085938" y="420.362305"/>
<use xlink:href="#glyph-1-16" x="299.085938" y="420.362305"/>
<use xlink:href="#glyph-1-11" x="305.085938" y="420.362305"/>
<use xlink:href="#glyph-1-29" x="308.085938" y="420.362305"/>
<use xlink:href="#glyph-1-10" x="312.085938" y="420.362305"/>
<use xlink:href="#glyph-1-30" x="319.085938" y="420.362305"/>
<use xlink:href="#glyph-1-26" x="326.085938" y="420.362305"/>
<use xlink:href="#glyph-1-15" x="333.085938" y="420.362305"/>
<use xlink:href="#glyph-1-24" x="340.085938" y="420.362305"/>
<use xlink:href="#glyph-1-19" x="347.085938" y="420.362305"/>
<use xlink:href="#glyph-1-27" x="350.085938" y="420.362305"/>
<use xlink:href="#glyph-1-11" x="357.085938" y="420.362305"/>
<use xlink:href="#glyph-1-31" x="360.085938" y="420.362305"/>
<use xlink:href="#glyph-1-27" x="364.085938" y="420.362305"/>
<use xlink:href="#glyph-1-26" x="371.085938" y="420.362305"/>
<use xlink:href="#glyph-1-32" x="378.085938" y="420.362305"/>
<use xlink:href="#glyph-1-31" x="387.085938" y="420.362305"/>
<use xlink:href="#glyph-1-33" x="391.085938" y="420.362305"/>
<use xlink:href="#glyph-1-26" x="397.085938" y="420.362305"/>
<use xlink:href="#glyph-1-10" x="404.085938" y="420.362305"/>
<use xlink:href="#glyph-1-28" x="411.085938" y="420.362305"/>
<use xlink:href="#glyph-1-10" x="414.085938" y="420.362305"/>
<use xlink:href="#glyph-1-27" x="421.085938" y="420.362305"/>
<use xlink:href="#glyph-1-30" x="428.085938" y="420.362305"/>
<use xlink:href="#glyph-1-31" x="435.085938" y="420.362305"/>
<use xlink:href="#glyph-1-26" x="439.085938" y="420.362305"/>
<use xlink:href="#glyph-1-25" x="446.085938" y="420.362305"/>
<use xlink:href="#glyph-1-19" x="457.085938" y="420.362305"/>
<use xlink:href="#glyph-1-16" x="460.085938" y="420.362305"/>
<use xlink:href="#glyph-1-16" x="466.085938" y="420.362305"/>
<use xlink:href="#glyph-1-19" x="472.085938" y="420.362305"/>
<use xlink:href="#glyph-1-24" x="475.085938" y="420.362305"/>
<use xlink:href="#glyph-1-27" x="482.085938" y="420.362305"/>
<use xlink:href="#glyph-1-31" x="489.085938" y="420.362305"/>
<use xlink:href="#glyph-1-20" x="493.085938" y="420.362305"/>
<use xlink:href="#glyph-1-27" x="500.085938" y="420.362305"/>
<use xlink:href="#glyph-1-19" x="507.085938" y="420.362305"/>
<use xlink:href="#glyph-1-11" x="510.085938" y="420.362305"/>
<use xlink:href="#glyph-1-31" x="513.085938" y="420.362305"/>
<use xlink:href="#glyph-1-15" x="517.085938" y="420.362305"/>
<use xlink:href="#glyph-1-29" x="524.085938" y="420.362305"/>
<use xlink:href="#glyph-1-19" x="528.085938" y="420.362305"/>
<use xlink:href="#glyph-1-23" x="531.085938" y="420.362305"/>
<use xlink:href="#glyph-1-26" x="537.085938" y="420.362305"/>
<use xlink:href="#glyph-1-16" x="544.085938" y="420.362305"/>
</g>
</svg>
