<?xml version="1.0" encoding="UTF-8"?>
<svg xmlns="http://www.w3.org/2000/svg" xmlns:xlink="http://www.w3.org/1999/xlink" width="576pt" height="432pt" viewBox="0 0 576 432" version="1.1">
<defs>
<g>
<symbol overflow="visible" id="glyph0-0">
<path style="stroke:none;" d=""/>
</symbol>
<symbol overflow="visible" id="glyph0-1">
<path style="stroke:none;" d="M 1.59375 -2.671875 L 3.640625 -2.671875 C 4.34375 -2.671875 4.65625 -2.34375 4.65625 -1.5625 L 4.65625 -1.015625 C 4.65625 -0.625 4.71875 -0.25 4.828125 0 L 5.796875 0 L 5.796875 -0.203125 C 5.5 -0.40625 5.4375 -0.625 5.421875 -1.453125 C 5.40625 -2.46875 5.25 -2.78125 4.578125 -3.078125 C 5.265625 -3.421875 5.546875 -3.84375 5.546875 -4.5625 C 5.546875 -5.625 4.890625 -6.21875 3.65625 -6.21875 L 0.796875 -6.21875 L 0.796875 0 L 1.59375 0 Z M 1.59375 -3.375 L 1.59375 -5.515625 L 3.5 -5.515625 C 3.953125 -5.515625 4.203125 -5.453125 4.40625 -5.28125 C 4.609375 -5.109375 4.71875 -4.8125 4.71875 -4.453125 C 4.71875 -3.71875 4.34375 -3.375 3.5 -3.375 Z M 1.59375 -3.375 "/>
</symbol>
<symbol overflow="visible" id="glyph0-2">
<path style="stroke:none;" d=""/>
</symbol>
<symbol overflow="visible" id="glyph0-3">
<path style="stroke:none;" d="M 2.4375 0 L 4.140625 -4.46875 L 3.34375 -4.46875 L 2.078125 -0.84375 L 0.890625 -4.46875 L 0.078125 -4.46875 L 1.65625 0 Z M 2.4375 0 "/>
</symbol>
<symbol overflow="visible" id="glyph0-4">
<path style="stroke:none;" d="M 4.375 -2 C 4.375 -2.671875 4.328125 -3.09375 4.203125 -3.421875 C 3.90625 -4.15625 3.21875 -4.59375 2.390625 -4.59375 C 1.140625 -4.59375 0.34375 -3.65625 0.34375 -2.171875 C 0.34375 -0.703125 1.109375 0.203125 2.375 0.203125 C 3.390625 0.203125 4.109375 -0.390625 4.28125 -1.359375 L 3.5625 -1.359375 C 3.375 -0.765625 2.96875 -0.453125 2.390625 -0.453125 C 1.9375 -0.453125 1.5625 -0.671875 1.328125 -1.046875 C 1.15625 -1.296875 1.09375 -1.546875 1.078125 -2 Z M 1.09375 -2.578125 C 1.15625 -3.40625 1.65625 -3.9375 2.375 -3.9375 C 3.109375 -3.9375 3.609375 -3.375 3.609375 -2.578125 Z M 1.09375 -2.578125 "/>
</symbol>
<symbol overflow="visible" id="glyph0-5">
<path style="stroke:none;" d="M 0.59375 -4.46875 L 0.59375 0 L 1.3125 0 L 1.3125 -2.328125 C 1.3125 -3.390625 1.75 -3.875 2.734375 -3.84375 L 2.734375 -4.578125 C 2.625 -4.59375 2.546875 -4.59375 2.46875 -4.59375 C 2 -4.59375 1.65625 -4.328125 1.25 -3.65625 L 1.25 -4.46875 Z M 0.59375 -4.46875 "/>
</symbol>
<symbol overflow="visible" id="glyph0-6">
<path style="stroke:none;" d="M 3.734375 -3.21875 C 3.734375 -4.109375 3.140625 -4.59375 2.109375 -4.59375 C 1.078125 -4.59375 0.40625 -4.0625 0.40625 -3.234375 C 0.40625 -2.53125 0.765625 -2.203125 1.8125 -1.9375 L 2.484375 -1.78125 C 2.984375 -1.65625 3.171875 -1.484375 3.171875 -1.171875 C 3.171875 -0.75 2.75 -0.453125 2.140625 -0.453125 C 1.75 -0.453125 1.421875 -0.578125 1.25 -0.765625 C 1.140625 -0.890625 1.078125 -1.015625 1.046875 -1.328125 L 0.296875 -1.328125 C 0.328125 -0.296875 0.90625 0.203125 2.078125 0.203125 C 3.203125 0.203125 3.921875 -0.359375 3.921875 -1.21875 C 3.921875 -1.890625 3.546875 -2.25 2.65625 -2.46875 L 1.96875 -2.625 C 1.390625 -2.765625 1.140625 -2.953125 1.140625 -3.265625 C 1.140625 -3.6875 1.515625 -3.9375 2.09375 -3.9375 C 2.65625 -3.9375 2.96875 -3.6875 2.984375 -3.21875 Z M 3.734375 -3.21875 "/>
</symbol>
<symbol overflow="visible" id="glyph0-7">
<path style="stroke:none;" d="M 1.28125 -4.46875 L 0.578125 -4.46875 L 0.578125 0 L 1.28125 0 Z M 1.28125 -6.21875 L 0.5625 -6.21875 L 0.5625 -5.328125 L 1.28125 -5.328125 Z M 1.28125 -6.21875 "/>
</symbol>
<symbol overflow="visible" id="glyph0-8">
<path style="stroke:none;" d="M 2.328125 -4.59375 C 1.0625 -4.59375 0.3125 -3.703125 0.3125 -2.203125 C 0.3125 -0.6875 1.0625 0.203125 2.328125 0.203125 C 3.59375 0.203125 4.34375 -0.703125 4.34375 -2.171875 C 4.34375 -3.71875 3.625 -4.59375 2.328125 -4.59375 Z M 2.328125 -3.9375 C 3.125 -3.9375 3.609375 -3.28125 3.609375 -2.171875 C 3.609375 -1.125 3.109375 -0.453125 2.328125 -0.453125 C 1.53125 -0.453125 1.046875 -1.125 1.046875 -2.203125 C 1.046875 -3.28125 1.53125 -3.9375 2.328125 -3.9375 Z M 2.328125 -3.9375 "/>
</symbol>
<symbol overflow="visible" id="glyph0-9">
<path style="stroke:none;" d="M 0.59375 -4.46875 L 0.59375 0 L 1.3125 0 L 1.3125 -2.46875 C 1.3125 -3.375 1.796875 -3.96875 2.53125 -3.96875 C 3.09375 -3.96875 3.453125 -3.640625 3.453125 -3.09375 L 3.453125 0 L 4.15625 0 L 4.15625 -3.375 C 4.15625 -4.125 3.59375 -4.59375 2.734375 -4.59375 C 2.078125 -4.59375 1.640625 -4.34375 1.25 -3.71875 L 1.25 -4.46875 Z M 0.59375 -4.46875 "/>
</symbol>
<symbol overflow="visible" id="glyph0-10">
<path style="stroke:none;" d="M 2.796875 -1.5 L 2.796875 0 L 3.546875 0 L 3.546875 -1.5 L 4.4375 -1.5 L 4.4375 -2.171875 L 3.546875 -2.171875 L 3.546875 -6.171875 L 2.984375 -6.171875 L 0.234375 -2.28125 L 0.234375 -1.5 Z M 2.796875 -2.171875 L 0.890625 -2.171875 L 2.796875 -4.890625 Z M 2.796875 -2.171875 "/>
</symbol>
<symbol overflow="visible" id="glyph0-11">
<path style="stroke:none;" d="M 1.625 -0.890625 L 0.75 -0.890625 L 0.75 0 L 1.625 0 Z M 1.625 -0.890625 "/>
</symbol>
<symbol overflow="visible" id="glyph0-12">
<path style="stroke:none;" d="M 4.3125 -0.75 L 1.140625 -0.75 C 1.21875 -1.25 1.484375 -1.578125 2.234375 -2.03125 L 3.078125 -2.515625 C 3.921875 -2.984375 4.359375 -3.609375 4.359375 -4.375 C 4.359375 -4.875 4.15625 -5.359375 3.796875 -5.6875 C 3.4375 -6.015625 3 -6.171875 2.421875 -6.171875 C 1.65625 -6.171875 1.078125 -5.890625 0.75 -5.359375 C 0.53125 -5.046875 0.4375 -4.65625 0.421875 -4.03125 L 1.171875 -4.03125 C 1.203125 -4.453125 1.25 -4.703125 1.359375 -4.90625 C 1.546875 -5.28125 1.9375 -5.515625 2.390625 -5.515625 C 3.078125 -5.515625 3.59375 -5.015625 3.59375 -4.34375 C 3.59375 -3.859375 3.3125 -3.421875 2.765625 -3.125 L 1.984375 -2.65625 C 0.71875 -1.9375 0.359375 -1.359375 0.296875 -0.015625 L 4.3125 -0.015625 Z M 4.3125 -0.75 "/>
</symbol>
<symbol overflow="visible" id="glyph0-13">
<path style="stroke:none;" d="M 1.5625 -2.640625 L 3.53125 -2.640625 C 4.015625 -2.640625 4.390625 -2.78125 4.71875 -3.078125 C 5.109375 -3.421875 5.265625 -3.828125 5.265625 -4.390625 C 5.265625 -5.5625 4.578125 -6.21875 3.34375 -6.21875 L 0.78125 -6.21875 L 0.78125 0 L 1.5625 0 Z M 1.5625 -3.328125 L 1.5625 -5.515625 L 3.21875 -5.515625 C 3.984375 -5.515625 4.4375 -5.109375 4.4375 -4.421875 C 4.4375 -3.75 3.984375 -3.328125 3.21875 -3.328125 Z M 1.5625 -3.328125 "/>
</symbol>
<symbol overflow="visible" id="glyph0-14">
<path style="stroke:none;" d="M 4.5625 -0.421875 C 4.484375 -0.40625 4.453125 -0.40625 4.40625 -0.40625 C 4.15625 -0.40625 4.03125 -0.53125 4.03125 -0.75 L 4.03125 -3.375 C 4.03125 -4.171875 3.453125 -4.59375 2.34375 -4.59375 C 1.6875 -4.59375 1.171875 -4.40625 0.859375 -4.078125 C 0.65625 -3.84375 0.578125 -3.59375 0.546875 -3.140625 L 1.265625 -3.140625 C 1.328125 -3.6875 1.65625 -3.9375 2.328125 -3.9375 C 2.96875 -3.9375 3.3125 -3.703125 3.3125 -3.28125 L 3.3125 -3.09375 C 3.3125 -2.78125 3.15625 -2.671875 2.578125 -2.59375 C 1.5625 -2.46875 1.421875 -2.4375 1.140625 -2.328125 C 0.625 -2.09375 0.359375 -1.703125 0.359375 -1.125 C 0.359375 -0.3125 0.921875 0.203125 1.828125 0.203125 C 2.390625 0.203125 2.84375 0 3.34375 -0.453125 C 3.390625 0 3.625 0.203125 4.078125 0.203125 C 4.234375 0.203125 4.328125 0.171875 4.5625 0.125 Z M 3.3125 -1.40625 C 3.3125 -1.171875 3.25 -1.03125 3.03125 -0.828125 C 2.75 -0.5625 2.390625 -0.421875 1.984375 -0.421875 C 1.421875 -0.421875 1.09375 -0.6875 1.09375 -1.140625 C 1.09375 -1.609375 1.40625 -1.84375 2.171875 -1.96875 C 2.9375 -2.0625 3.078125 -2.09375 3.3125 -2.203125 Z M 3.3125 -1.40625 "/>
</symbol>
<symbol overflow="visible" id="glyph0-15">
<path style="stroke:none;" d="M 2.171875 -4.46875 L 1.4375 -4.46875 L 1.4375 -5.703125 L 0.71875 -5.703125 L 0.71875 -4.46875 L 0.125 -4.46875 L 0.125 -3.890625 L 0.71875 -3.890625 L 0.71875 -0.515625 C 0.71875 -0.046875 1.03125 0.203125 1.59375 0.203125 C 1.78125 0.203125 1.921875 0.171875 2.171875 0.140625 L 2.171875 -0.453125 C 2.0625 -0.4375 1.96875 -0.421875 1.828125 -0.421875 C 1.515625 -0.421875 1.4375 -0.515625 1.4375 -0.828125 L 1.4375 -3.890625 L 2.171875 -3.890625 Z M 2.171875 -4.46875 "/>
</symbol>
<symbol overflow="visible" id="glyph0-16">
<path style="stroke:none;" d="M 4.015625 -2.96875 C 3.984375 -3.40625 3.890625 -3.6875 3.71875 -3.9375 C 3.40625 -4.34375 2.875 -4.59375 2.25 -4.59375 C 1.046875 -4.59375 0.265625 -3.640625 0.265625 -2.15625 C 0.265625 -0.71875 1.03125 0.203125 2.25 0.203125 C 3.3125 0.203125 3.984375 -0.4375 4.0625 -1.53125 L 3.359375 -1.53125 C 3.234375 -0.8125 2.859375 -0.453125 2.265625 -0.453125 C 1.46875 -0.453125 1 -1.09375 1 -2.15625 C 1 -3.28125 1.46875 -3.9375 2.25 -3.9375 C 2.84375 -3.9375 3.21875 -3.59375 3.296875 -2.96875 Z M 4.015625 -2.96875 "/>
</symbol>
<symbol overflow="visible" id="glyph0-17">
<path style="stroke:none;" d="M 0.59375 -6.21875 L 0.59375 0 L 1.3125 0 L 1.3125 -2.46875 C 1.3125 -3.375 1.78125 -3.96875 2.515625 -3.96875 C 2.75 -3.96875 2.984375 -3.90625 3.140625 -3.78125 C 3.359375 -3.625 3.4375 -3.40625 3.4375 -3.09375 L 3.4375 0 L 4.140625 0 L 4.140625 -3.375 C 4.140625 -4.125 3.609375 -4.59375 2.734375 -4.59375 C 2.109375 -4.59375 1.71875 -4.40625 1.3125 -3.859375 L 1.3125 -6.21875 Z M 0.59375 -6.21875 "/>
</symbol>
<symbol overflow="visible" id="glyph0-18">
<path style="stroke:none;" d="M 4.21875 -6.21875 L 3.515625 -6.21875 L 3.515625 -3.90625 C 3.21875 -4.359375 2.734375 -4.59375 2.140625 -4.59375 C 0.984375 -4.59375 0.21875 -3.671875 0.21875 -2.25 C 0.21875 -0.734375 0.953125 0.203125 2.171875 0.203125 C 2.78125 0.203125 3.203125 -0.03125 3.59375 -0.59375 L 3.59375 0 L 4.21875 0 Z M 2.265625 -3.9375 C 3.03125 -3.9375 3.515625 -3.265625 3.515625 -2.1875 C 3.515625 -1.15625 3.015625 -0.46875 2.265625 -0.46875 C 1.484375 -0.46875 0.96875 -1.15625 0.96875 -2.203125 C 0.96875 -3.234375 1.484375 -3.9375 2.265625 -3.9375 Z M 2.265625 -3.9375 "/>
</symbol>
<symbol overflow="visible" id="glyph0-19">
<path style="stroke:none;" d="M 2.015625 -6.21875 C 1.15625 -5.109375 0.625 -3.546875 0.625 -2.203125 C 0.625 -0.859375 1.15625 0.6875 2.015625 1.8125 L 2.484375 1.8125 C 1.734375 0.59375 1.3125 -0.84375 1.3125 -2.203125 C 1.3125 -3.5625 1.734375 -5.015625 2.484375 -6.21875 Z M 2.015625 -6.21875 "/>
</symbol>
<symbol overflow="visible" id="glyph0-20">
<path style="stroke:none;" d="M 2.34375 -6.171875 C 1.78125 -6.171875 1.265625 -5.90625 0.953125 -5.5 C 0.5625 -4.953125 0.359375 -4.125 0.359375 -2.984375 C 0.359375 -0.90625 1.046875 0.203125 2.34375 0.203125 C 3.625 0.203125 4.328125 -0.90625 4.328125 -2.9375 C 4.328125 -4.125 4.140625 -4.9375 3.734375 -5.5 C 3.421875 -5.921875 2.921875 -6.171875 2.34375 -6.171875 Z M 2.34375 -5.5 C 3.15625 -5.5 3.5625 -4.671875 3.5625 -3 C 3.5625 -1.25 3.171875 -0.421875 2.328125 -0.421875 C 1.53125 -0.421875 1.140625 -1.28125 1.140625 -2.984375 C 1.140625 -4.671875 1.53125 -5.5 2.34375 -5.5 Z M 2.34375 -5.5 "/>
</symbol>
<symbol overflow="visible" id="glyph0-21">
<path style="stroke:none;" d="M 2.421875 -2.65625 L 0.390625 -2.65625 L 0.390625 -2.046875 L 2.421875 -2.046875 Z M 2.421875 -2.65625 "/>
</symbol>
<symbol overflow="visible" id="glyph0-22">
<path style="stroke:none;" d="M 2.203125 -4.390625 L 2.203125 0 L 2.953125 0 L 2.953125 -6.171875 L 2.46875 -6.171875 C 2.203125 -5.21875 2.03125 -5.09375 0.875 -4.9375 L 0.875 -4.390625 Z M 2.203125 -4.390625 "/>
</symbol>
<symbol overflow="visible" id="glyph0-23">
<path style="stroke:none;" d="M 3.328125 -3.25 C 3.96875 -3.640625 4.15625 -3.9375 4.15625 -4.515625 C 4.15625 -5.5 3.421875 -6.171875 2.34375 -6.171875 C 1.28125 -6.171875 0.53125 -5.5 0.53125 -4.53125 C 0.53125 -3.9375 0.71875 -3.640625 1.34375 -3.25 C 0.65625 -2.90625 0.3125 -2.390625 0.3125 -1.71875 C 0.3125 -0.59375 1.140625 0.203125 2.34375 0.203125 C 3.546875 0.203125 4.375 -0.59375 4.375 -1.71875 C 4.375 -2.390625 4.03125 -2.90625 3.328125 -3.25 Z M 2.34375 -5.5 C 2.984375 -5.5 3.390625 -5.125 3.390625 -4.5 C 3.390625 -3.921875 2.984375 -3.546875 2.34375 -3.546875 C 1.703125 -3.546875 1.296875 -3.921875 1.296875 -4.515625 C 1.296875 -5.125 1.703125 -5.5 2.34375 -5.5 Z M 2.34375 -2.90625 C 3.09375 -2.90625 3.609375 -2.421875 3.609375 -1.703125 C 3.609375 -0.953125 3.109375 -0.46875 2.328125 -0.46875 C 1.59375 -0.46875 1.078125 -0.96875 1.078125 -1.6875 C 1.078125 -2.421875 1.59375 -2.90625 2.34375 -2.90625 Z M 2.34375 -2.90625 "/>
</symbol>
<symbol overflow="visible" id="glyph0-24">
<path style="stroke:none;" d="M 1.890625 -2.84375 L 2.296875 -2.84375 C 3.109375 -2.84375 3.546875 -2.453125 3.546875 -1.71875 C 3.546875 -0.9375 3.078125 -0.46875 2.296875 -0.46875 C 1.46875 -0.46875 1.078125 -0.890625 1.03125 -1.796875 L 0.265625 -1.796875 C 0.3125 -1.296875 0.390625 -0.96875 0.53125 -0.703125 C 0.859375 -0.109375 1.4375 0.203125 2.265625 0.203125 C 3.515625 0.203125 4.3125 -0.546875 4.3125 -1.71875 C 4.3125 -2.515625 4.015625 -2.9375 3.296875 -3.1875 C 3.859375 -3.421875 4.140625 -3.84375 4.140625 -4.46875 C 4.140625 -5.53125 3.453125 -6.171875 2.296875 -6.171875 C 1.078125 -6.171875 0.421875 -5.484375 0.40625 -4.1875 L 1.15625 -4.1875 C 1.15625 -4.5625 1.1875 -4.765625 1.28125 -4.953125 C 1.453125 -5.3125 1.828125 -5.515625 2.296875 -5.515625 C 2.96875 -5.515625 3.375 -5.109375 3.375 -4.4375 C 3.375 -4.015625 3.21875 -3.75 2.890625 -3.59375 C 2.671875 -3.515625 2.40625 -3.484375 1.890625 -3.46875 Z M 1.890625 -2.84375 "/>
</symbol>
<symbol overflow="visible" id="glyph0-25">
<path style="stroke:none;" d="M 0.796875 1.8125 C 1.640625 0.6875 2.1875 -0.859375 2.1875 -2.203125 C 2.1875 -3.546875 1.640625 -5.109375 0.796875 -6.21875 L 0.328125 -6.21875 C 1.078125 -5 1.5 -3.5625 1.5 -2.203125 C 1.5 -0.84375 1.078125 0.59375 0.328125 1.8125 Z M 0.796875 1.8125 "/>
</symbol>
<symbol overflow="visible" id="glyph1-0">
<path style="stroke:none;" d=""/>
</symbol>
<symbol overflow="visible" id="glyph1-1">
<path style="stroke:none;" d="M 3.078125 -8.09375 C 2.34375 -8.09375 1.671875 -7.765625 1.25 -7.21875 C 0.734375 -6.5 0.484375 -5.421875 0.484375 -3.921875 C 0.484375 -1.1875 1.375 0.25 3.078125 0.25 C 4.765625 0.25 5.6875 -1.1875 5.6875 -3.859375 C 5.6875 -5.421875 5.4375 -6.46875 4.90625 -7.21875 C 4.5 -7.78125 3.828125 -8.09375 3.078125 -8.09375 Z M 3.078125 -7.21875 C 4.140625 -7.21875 4.671875 -6.140625 4.671875 -3.9375 C 4.671875 -1.640625 4.15625 -0.5625 3.0625 -0.5625 C 2.015625 -0.5625 1.484375 -1.6875 1.484375 -3.90625 C 1.484375 -6.140625 2.015625 -7.21875 3.078125 -7.21875 Z M 3.078125 -7.21875 "/>
</symbol>
<symbol overflow="visible" id="glyph1-2">
<path style="stroke:none;" d="M 2.90625 -5.765625 L 2.90625 0 L 3.890625 0 L 3.890625 -8.09375 L 3.234375 -8.09375 C 2.890625 -6.859375 2.671875 -6.6875 1.140625 -6.484375 L 1.140625 -5.765625 Z M 2.90625 -5.765625 "/>
</symbol>
<symbol overflow="visible" id="glyph1-3">
<path style="stroke:none;" d="M 5.671875 -0.96875 L 1.484375 -0.96875 C 1.59375 -1.640625 1.953125 -2.078125 2.921875 -2.671875 L 4.046875 -3.296875 C 5.15625 -3.90625 5.71875 -4.734375 5.71875 -5.734375 C 5.71875 -6.40625 5.453125 -7.03125 4.984375 -7.46875 C 4.515625 -7.890625 3.9375 -8.09375 3.1875 -8.09375 C 2.171875 -8.09375 1.421875 -7.734375 0.984375 -7.046875 C 0.703125 -6.625 0.578125 -6.109375 0.5625 -5.296875 L 1.546875 -5.296875 C 1.578125 -5.84375 1.640625 -6.171875 1.78125 -6.4375 C 2.03125 -6.9375 2.546875 -7.234375 3.140625 -7.234375 C 4.046875 -7.234375 4.71875 -6.59375 4.71875 -5.71875 C 4.71875 -5.0625 4.34375 -4.5 3.640625 -4.09375 L 2.609375 -3.5 C 0.953125 -2.546875 0.46875 -1.78125 0.375 -0.015625 L 5.671875 -0.015625 Z M 5.671875 -0.96875 "/>
</symbol>
<symbol overflow="visible" id="glyph1-4">
<path style="stroke:none;" d="M 2.46875 -3.734375 L 3.015625 -3.734375 C 4.09375 -3.734375 4.65625 -3.21875 4.65625 -2.25 C 4.65625 -1.234375 4.046875 -0.609375 3.03125 -0.609375 C 1.9375 -0.609375 1.40625 -1.171875 1.34375 -2.359375 L 0.359375 -2.359375 C 0.40625 -1.703125 0.515625 -1.28125 0.703125 -0.921875 C 1.125 -0.140625 1.890625 0.25 2.984375 0.25 C 4.609375 0.25 5.671875 -0.734375 5.671875 -2.265625 C 5.671875 -3.296875 5.28125 -3.859375 4.328125 -4.1875 C 5.0625 -4.5 5.4375 -5.046875 5.4375 -5.875 C 5.4375 -7.265625 4.53125 -8.09375 3.015625 -8.09375 C 1.40625 -8.09375 0.5625 -7.203125 0.53125 -5.484375 L 1.515625 -5.484375 C 1.53125 -5.984375 1.5625 -6.265625 1.6875 -6.515625 C 1.921875 -6.96875 2.40625 -7.234375 3.03125 -7.234375 C 3.90625 -7.234375 4.421875 -6.703125 4.421875 -5.84375 C 4.421875 -5.265625 4.21875 -4.921875 3.78125 -4.734375 C 3.515625 -4.609375 3.15625 -4.578125 2.46875 -4.5625 Z M 2.46875 -3.734375 "/>
</symbol>
<symbol overflow="visible" id="glyph1-5">
<path style="stroke:none;" d="M 3.65625 -1.953125 L 3.65625 0 L 4.65625 0 L 4.65625 -1.953125 L 5.828125 -1.953125 L 5.828125 -2.84375 L 4.65625 -2.84375 L 4.65625 -8.09375 L 3.921875 -8.09375 L 0.3125 -3 L 0.3125 -1.953125 Z M 3.65625 -2.84375 L 1.171875 -2.84375 L 3.65625 -6.421875 Z M 3.65625 -2.84375 "/>
</symbol>
<symbol overflow="visible" id="glyph1-6">
<path style="stroke:none;" d="M 5.328125 -7.9375 L 1.234375 -7.9375 L 0.640625 -3.625 L 1.546875 -3.625 C 2 -4.171875 2.390625 -4.359375 3.015625 -4.359375 C 4.078125 -4.359375 4.734375 -3.625 4.734375 -2.453125 C 4.734375 -1.3125 4.078125 -0.609375 3 -0.609375 C 2.140625 -0.609375 1.609375 -1.046875 1.375 -1.953125 L 0.390625 -1.953125 C 0.53125 -1.296875 0.640625 -0.984375 0.875 -0.6875 C 1.328125 -0.09375 2.125 0.25 3.03125 0.25 C 4.625 0.25 5.75 -0.90625 5.75 -2.59375 C 5.75 -4.15625 4.703125 -5.234375 3.1875 -5.234375 C 2.625 -5.234375 2.171875 -5.09375 1.71875 -4.75 L 2.03125 -6.96875 L 5.328125 -6.96875 Z M 5.328125 -7.9375 "/>
</symbol>
<symbol overflow="visible" id="glyph1-7">
<path style="stroke:none;" d="M 5.578125 -6 C 5.390625 -7.3125 4.53125 -8.09375 3.328125 -8.09375 C 2.453125 -8.09375 1.671875 -7.671875 1.203125 -6.953125 C 0.6875 -6.15625 0.484375 -5.171875 0.484375 -3.703125 C 0.484375 -2.328125 0.671875 -1.46875 1.15625 -0.75 C 1.578125 -0.09375 2.28125 0.25 3.140625 0.25 C 4.65625 0.25 5.75 -0.875 5.75 -2.453125 C 5.75 -3.9375 4.734375 -5 3.3125 -5 C 2.53125 -5 1.921875 -4.703125 1.484375 -4.109375 C 1.5 -6.109375 2.125 -7.21875 3.265625 -7.21875 C 3.953125 -7.21875 4.4375 -6.78125 4.59375 -6 Z M 3.1875 -4.125 C 4.140625 -4.125 4.734375 -3.453125 4.734375 -2.375 C 4.734375 -1.359375 4.0625 -0.609375 3.15625 -0.609375 C 2.234375 -0.609375 1.546875 -1.390625 1.546875 -2.421875 C 1.546875 -3.421875 2.21875 -4.125 3.1875 -4.125 Z M 3.1875 -4.125 "/>
</symbol>
<symbol overflow="visible" id="glyph1-8">
<path style="stroke:none;" d="M 5.828125 -7.9375 L 0.515625 -7.9375 L 0.515625 -6.96875 L 4.8125 -6.96875 C 2.90625 -4.265625 2.140625 -2.609375 1.546875 0 L 2.59375 0 C 3.03125 -2.546875 4.03125 -4.734375 5.828125 -7.109375 Z M 5.828125 -7.9375 "/>
</symbol>
<symbol overflow="visible" id="glyph1-9">
<path style="stroke:none;" d="M 4.375 -4.265625 C 5.203125 -4.765625 5.46875 -5.171875 5.46875 -5.9375 C 5.46875 -7.21875 4.5 -8.09375 3.078125 -8.09375 C 1.6875 -8.09375 0.6875 -7.21875 0.6875 -5.953125 C 0.6875 -5.171875 0.953125 -4.78125 1.765625 -4.265625 C 0.859375 -3.8125 0.421875 -3.140625 0.421875 -2.25 C 0.421875 -0.765625 1.5 0.25 3.078125 0.25 C 4.65625 0.25 5.75 -0.765625 5.75 -2.25 C 5.75 -3.140625 5.296875 -3.8125 4.375 -4.265625 Z M 3.078125 -7.21875 C 3.921875 -7.21875 4.453125 -6.71875 4.453125 -5.921875 C 4.453125 -5.15625 3.90625 -4.65625 3.078125 -4.65625 C 2.234375 -4.65625 1.703125 -5.15625 1.703125 -5.9375 C 1.703125 -6.71875 2.234375 -7.21875 3.078125 -7.21875 Z M 3.078125 -3.8125 C 4.0625 -3.8125 4.734375 -3.171875 4.734375 -2.234375 C 4.734375 -1.25 4.078125 -0.609375 3.0625 -0.609375 C 2.09375 -0.609375 1.421875 -1.28125 1.421875 -2.21875 C 1.421875 -3.1875 2.078125 -3.8125 3.078125 -3.8125 Z M 3.078125 -3.8125 "/>
</symbol>
<symbol overflow="visible" id="glyph1-10">
<path style="stroke:none;" d="M 1 0 L 4.140625 0 C 6.203125 0 7.46875 -1.546875 7.46875 -4.09375 C 7.46875 -6.625 6.21875 -8.171875 4.140625 -8.171875 L 1 -8.171875 Z M 2.03125 -0.921875 L 2.03125 -7.25 L 3.96875 -7.25 C 5.578125 -7.25 6.4375 -6.15625 6.4375 -4.078125 C 6.4375 -2 5.578125 -0.921875 3.96875 -0.921875 Z M 2.03125 -0.921875 "/>
</symbol>
<symbol overflow="visible" id="glyph1-11">
<path style="stroke:none;" d="M 6 -0.546875 C 5.890625 -0.53125 5.84375 -0.53125 5.796875 -0.53125 C 5.46875 -0.53125 5.28125 -0.6875 5.28125 -0.984375 L 5.28125 -4.4375 C 5.28125 -5.484375 4.53125 -6.03125 3.078125 -6.03125 C 2.21875 -6.03125 1.53125 -5.796875 1.125 -5.359375 C 0.859375 -5.046875 0.75 -4.71875 0.734375 -4.140625 L 1.671875 -4.140625 C 1.75 -4.84375 2.171875 -5.171875 3.046875 -5.171875 C 3.90625 -5.171875 4.359375 -4.859375 4.359375 -4.296875 L 4.359375 -4.0625 C 4.34375 -3.65625 4.140625 -3.5 3.390625 -3.40625 C 2.0625 -3.234375 1.859375 -3.1875 1.5 -3.046875 C 0.8125 -2.75 0.46875 -2.234375 0.46875 -1.484375 C 0.46875 -0.421875 1.203125 0.25 2.390625 0.25 C 3.140625 0.25 3.734375 0 4.390625 -0.609375 C 4.453125 0 4.75 0.25 5.359375 0.25 C 5.5625 0.25 5.6875 0.234375 6 0.15625 Z M 4.359375 -1.84375 C 4.359375 -1.53125 4.265625 -1.34375 3.984375 -1.09375 C 3.609375 -0.734375 3.140625 -0.5625 2.59375 -0.5625 C 1.875 -0.5625 1.4375 -0.90625 1.4375 -1.5 C 1.4375 -2.125 1.84375 -2.4375 2.859375 -2.578125 C 3.859375 -2.71875 4.046875 -2.75 4.359375 -2.90625 Z M 4.359375 -1.84375 "/>
</symbol>
<symbol overflow="visible" id="glyph1-12">
<path style="stroke:none;" d="M 2.84375 -5.875 L 1.875 -5.875 L 1.875 -7.484375 L 0.953125 -7.484375 L 0.953125 -5.875 L 0.15625 -5.875 L 0.15625 -5.109375 L 0.953125 -5.109375 L 0.953125 -0.671875 C 0.953125 -0.0625 1.359375 0.25 2.078125 0.25 C 2.328125 0.25 2.53125 0.234375 2.84375 0.171875 L 2.84375 -0.609375 C 2.71875 -0.578125 2.59375 -0.5625 2.390625 -0.5625 C 2 -0.5625 1.875 -0.671875 1.875 -1.09375 L 1.875 -5.109375 L 2.84375 -5.109375 Z M 2.84375 -5.875 "/>
</symbol>
<symbol overflow="visible" id="glyph1-13">
<path style="stroke:none;" d="M 2.390625 -1.171875 L 1.234375 -1.171875 L 1.234375 0 L 2.390625 0 Z M 2.390625 -5.875 L 1.234375 -5.875 L 1.234375 -4.703125 L 2.390625 -4.703125 Z M 2.390625 -5.875 "/>
</symbol>
<symbol overflow="visible" id="glyph1-14">
<path style="stroke:none;" d=""/>
</symbol>
<symbol overflow="visible" id="glyph1-15">
<path style="stroke:none;" d="M 0.78125 -8.171875 L 0.78125 0 L 1.71875 0 L 1.71875 -3.234375 C 1.71875 -4.4375 2.34375 -5.21875 3.3125 -5.21875 C 3.625 -5.21875 3.90625 -5.125 4.140625 -4.96875 C 4.40625 -4.765625 4.515625 -4.484375 4.515625 -4.0625 L 4.515625 0 L 5.4375 0 L 5.4375 -4.4375 C 5.4375 -5.421875 4.734375 -6.03125 3.59375 -6.03125 C 2.765625 -6.03125 2.265625 -5.78125 1.71875 -5.0625 L 1.71875 -8.171875 Z M 0.78125 -8.171875 "/>
</symbol>
<symbol overflow="visible" id="glyph1-16">
<path style="stroke:none;" d="M 0.609375 2.4375 L 1.546875 2.4375 L 1.546875 -0.609375 C 2.03125 -0.015625 2.59375 0.25 3.34375 0.25 C 4.875 0.25 5.859375 -0.96875 5.859375 -2.828125 C 5.859375 -4.8125 4.890625 -6.03125 3.34375 -6.03125 C 2.546875 -6.03125 1.90625 -5.6875 1.46875 -4.984375 L 1.46875 -5.875 L 0.609375 -5.875 Z M 3.1875 -5.171875 C 4.21875 -5.171875 4.890625 -4.25 4.890625 -2.859375 C 4.890625 -1.53125 4.203125 -0.609375 3.1875 -0.609375 C 2.1875 -0.609375 1.546875 -1.515625 1.546875 -2.890625 C 1.546875 -4.265625 2.1875 -5.171875 3.1875 -5.171875 Z M 3.1875 -5.171875 "/>
</symbol>
<symbol overflow="visible" id="glyph1-17">
<path style="stroke:none;" d="M 4.90625 -4.234375 C 4.890625 -5.390625 4.140625 -6.03125 2.78125 -6.03125 C 1.40625 -6.03125 0.53125 -5.328125 0.53125 -4.25 C 0.53125 -3.328125 1 -2.890625 2.390625 -2.546875 L 3.265625 -2.34375 C 3.90625 -2.1875 4.171875 -1.953125 4.171875 -1.53125 C 4.171875 -0.96875 3.625 -0.609375 2.796875 -0.609375 C 2.296875 -0.609375 1.875 -0.75 1.640625 -1 C 1.484375 -1.171875 1.421875 -1.328125 1.359375 -1.75 L 0.375 -1.75 C 0.421875 -0.390625 1.1875 0.25 2.71875 0.25 C 4.203125 0.25 5.140625 -0.46875 5.140625 -1.609375 C 5.140625 -2.46875 4.65625 -2.953125 3.484375 -3.234375 L 2.59375 -3.453125 C 1.828125 -3.625 1.5 -3.875 1.5 -4.296875 C 1.5 -4.84375 1.984375 -5.171875 2.75 -5.171875 C 3.5 -5.171875 3.90625 -4.84375 3.921875 -4.234375 Z M 4.90625 -4.234375 "/>
</symbol>
<symbol overflow="visible" id="glyph1-18">
<path style="stroke:none;" d="M 2.5625 -8.171875 L -0.09375 0.21875 L 0.53125 0.21875 L 3.1875 -8.171875 Z M 2.5625 -8.171875 "/>
</symbol>
<symbol overflow="visible" id="glyph1-19">
<path style="stroke:none;" d="M 4.53125 -5.875 L 4.53125 -5.015625 C 4.0625 -5.71875 3.546875 -6.03125 2.796875 -6.03125 C 1.375 -6.03125 0.390625 -4.71875 0.390625 -2.828125 C 0.390625 -1.84375 0.625 -1.125 1.125 -0.53125 C 1.5625 -0.015625 2.125 0.25 2.734375 0.25 C 3.4375 0.25 3.9375 -0.0625 4.4375 -0.796875 L 4.4375 -0.5 C 4.4375 1.078125 4 1.65625 2.828125 1.65625 C 2.03125 1.65625 1.625 1.34375 1.53125 0.671875 L 0.578125 0.671875 C 0.671875 1.765625 1.53125 2.4375 2.8125 2.4375 C 3.671875 2.4375 4.390625 2.15625 4.765625 1.6875 C 5.21875 1.140625 5.390625 0.421875 5.390625 -0.96875 L 5.390625 -5.875 Z M 2.890625 -5.171875 C 3.875 -5.171875 4.4375 -4.34375 4.4375 -2.859375 C 4.4375 -1.4375 3.859375 -0.609375 2.890625 -0.609375 C 1.921875 -0.609375 1.359375 -1.4375 1.359375 -2.890625 C 1.359375 -4.328125 1.921875 -5.171875 2.890625 -5.171875 Z M 2.890625 -5.171875 "/>
</symbol>
<symbol overflow="visible" id="glyph1-20">
<path style="stroke:none;" d="M 1.6875 -5.875 L 0.75 -5.875 L 0.75 0 L 1.6875 0 Z M 1.6875 -8.171875 L 0.734375 -8.171875 L 0.734375 -6.984375 L 1.6875 -6.984375 Z M 1.6875 -8.171875 "/>
</symbol>
<symbol overflow="visible" id="glyph1-21">
<path style="stroke:none;" d="M 5.40625 0 L 5.40625 -5.875 L 4.46875 -5.875 L 4.46875 -2.546875 C 4.46875 -1.34375 3.84375 -0.5625 2.875 -0.5625 C 2.125 -0.5625 1.65625 -1.015625 1.65625 -1.71875 L 1.65625 -5.875 L 0.734375 -5.875 L 0.734375 -1.34375 C 0.734375 -0.375 1.453125 0.25 2.59375 0.25 C 3.46875 0.25 4.015625 -0.046875 4.5625 -0.8125 L 4.5625 0 Z M 5.40625 0 "/>
</symbol>
<symbol overflow="visible" id="glyph1-22">
<path style="stroke:none;" d="M 0.609375 -8.171875 L 0.609375 0 L 1.4375 0 L 1.4375 -0.75 C 1.890625 -0.0625 2.484375 0.25 3.3125 0.25 C 4.84375 0.25 5.859375 -1.015625 5.859375 -2.953125 C 5.859375 -4.859375 4.90625 -6.03125 3.34375 -6.03125 C 2.546875 -6.03125 1.96875 -5.734375 1.53125 -5.078125 L 1.53125 -8.171875 Z M 3.171875 -5.171875 C 4.21875 -5.171875 4.890625 -4.25 4.890625 -2.859375 C 4.890625 -1.53125 4.1875 -0.609375 3.171875 -0.609375 C 2.171875 -0.609375 1.53125 -1.515625 1.53125 -2.890625 C 1.53125 -4.265625 2.171875 -5.171875 3.171875 -5.171875 Z M 3.171875 -5.171875 "/>
</symbol>
<symbol overflow="visible" id="glyph1-23">
<path style="stroke:none;" d="M 2.140625 -1.171875 L 0.96875 -1.171875 L 0.96875 0 L 2.140625 0 Z M 2.140625 -1.171875 "/>
</symbol>
<symbol overflow="visible" id="glyph1-24">
<path style="stroke:none;" d="M 5.28125 -3.90625 C 5.234375 -4.46875 5.109375 -4.84375 4.890625 -5.171875 C 4.484375 -5.71875 3.78125 -6.03125 2.953125 -6.03125 C 1.359375 -6.03125 0.34375 -4.78125 0.34375 -2.828125 C 0.34375 -0.9375 1.359375 0.25 2.953125 0.25 C 4.34375 0.25 5.234375 -0.578125 5.34375 -2.015625 L 4.40625 -2.015625 C 4.25 -1.078125 3.765625 -0.609375 2.96875 -0.609375 C 1.9375 -0.609375 1.328125 -1.4375 1.328125 -2.828125 C 1.328125 -4.296875 1.921875 -5.171875 2.953125 -5.171875 C 3.734375 -5.171875 4.21875 -4.71875 4.328125 -3.90625 Z M 5.28125 -3.90625 "/>
</symbol>
<symbol overflow="visible" id="glyph1-25">
<path style="stroke:none;" d="M 3.046875 -6.03125 C 1.390625 -6.03125 0.40625 -4.859375 0.40625 -2.890625 C 0.40625 -0.90625 1.390625 0.25 3.0625 0.25 C 4.71875 0.25 5.71875 -0.921875 5.71875 -2.84375 C 5.71875 -4.890625 4.75 -6.03125 3.046875 -6.03125 Z M 3.0625 -5.171875 C 4.109375 -5.171875 4.734375 -4.3125 4.734375 -2.859375 C 4.734375 -1.46875 4.09375 -0.609375 3.0625 -0.609375 C 2.015625 -0.609375 1.375 -1.46875 1.375 -2.890625 C 1.375 -4.3125 2.015625 -5.171875 3.0625 -5.171875 Z M 3.0625 -5.171875 "/>
</symbol>
<symbol overflow="visible" id="glyph1-26">
<path style="stroke:none;" d="M 0.78125 -5.875 L 0.78125 0 L 1.71875 0 L 1.71875 -3.6875 C 1.71875 -4.53125 2.34375 -5.21875 3.109375 -5.21875 C 3.796875 -5.21875 4.1875 -4.796875 4.1875 -4.046875 L 4.1875 0 L 5.125 0 L 5.125 -3.6875 C 5.125 -4.53125 5.75 -5.21875 6.515625 -5.21875 C 7.1875 -5.21875 7.59375 -4.78125 7.59375 -4.046875 L 7.59375 0 L 8.53125 0 L 8.53125 -4.40625 C 8.53125 -5.453125 7.9375 -6.03125 6.828125 -6.03125 C 6.046875 -6.03125 5.578125 -5.796875 5.03125 -5.140625 C 4.6875 -5.765625 4.21875 -6.03125 3.453125 -6.03125 C 2.671875 -6.03125 2.140625 -5.75 1.640625 -5.046875 L 1.640625 -5.875 Z M 0.78125 -5.875 "/>
</symbol>
<symbol overflow="visible" id="glyph1-27">
<path style="stroke:none;" d="M 5.75 -2.625 C 5.75 -3.515625 5.6875 -4.0625 5.515625 -4.5 C 5.125 -5.453125 4.234375 -6.03125 3.140625 -6.03125 C 1.5 -6.03125 0.453125 -4.796875 0.453125 -2.859375 C 0.453125 -0.921875 1.453125 0.25 3.109375 0.25 C 4.453125 0.25 5.390625 -0.5 5.625 -1.78125 L 4.6875 -1.78125 C 4.421875 -1.015625 3.90625 -0.609375 3.140625 -0.609375 C 2.546875 -0.609375 2.046875 -0.875 1.734375 -1.359375 C 1.515625 -1.703125 1.4375 -2.03125 1.421875 -2.625 Z M 1.4375 -3.390625 C 1.53125 -4.46875 2.1875 -5.171875 3.125 -5.171875 C 4.078125 -5.171875 4.734375 -4.4375 4.734375 -3.390625 Z M 1.4375 -3.390625 "/>
</symbol>
<symbol overflow="visible" id="glyph1-28">
<path style="stroke:none;" d="M 0.78125 -5.875 L 0.78125 0 L 1.71875 0 L 1.71875 -3.234375 C 1.71875 -4.4375 2.359375 -5.21875 3.3125 -5.21875 C 4.0625 -5.21875 4.53125 -4.765625 4.53125 -4.0625 L 4.53125 0 L 5.453125 0 L 5.453125 -4.4375 C 5.453125 -5.40625 4.734375 -6.03125 3.59375 -6.03125 C 2.71875 -6.03125 2.15625 -5.703125 1.640625 -4.890625 L 1.640625 -5.875 Z M 0.78125 -5.875 "/>
</symbol>
<symbol overflow="visible" id="glyph1-29">
<path style="stroke:none;" d="M 1.703125 -8.171875 L 0.765625 -8.171875 L 0.765625 0 L 1.703125 0 Z M 1.703125 -8.171875 "/>
</symbol>
<symbol overflow="visible" id="glyph1-30">
<path style="stroke:none;" d="M 0.765625 -5.875 L 0.765625 0 L 1.71875 0 L 1.71875 -3.046875 C 1.71875 -4.453125 2.3125 -5.09375 3.59375 -5.046875 L 3.59375 -6 C 3.4375 -6.03125 3.34375 -6.03125 3.234375 -6.03125 C 2.625 -6.03125 2.171875 -5.6875 1.640625 -4.8125 L 1.640625 -5.875 Z M 0.765625 -5.875 "/>
</symbol>
<symbol overflow="visible" id="glyph1-31">
<path style="stroke:none;" d="M 5.546875 -8.171875 L 4.609375 -8.171875 L 4.609375 -5.125 C 4.21875 -5.71875 3.59375 -6.03125 2.8125 -6.03125 C 1.28125 -6.03125 0.296875 -4.8125 0.296875 -2.953125 C 0.296875 -0.96875 1.25 0.25 2.84375 0.25 C 3.65625 0.25 4.21875 -0.046875 4.71875 -0.765625 L 4.71875 0 L 5.546875 0 Z M 2.96875 -5.171875 C 3.984375 -5.171875 4.609375 -4.28125 4.609375 -2.875 C 4.609375 -1.515625 3.96875 -0.609375 2.984375 -0.609375 C 1.953125 -0.609375 1.265625 -1.53125 1.265625 -2.890625 C 1.265625 -4.25 1.953125 -5.171875 2.96875 -5.171875 Z M 2.96875 -5.171875 "/>
</symbol>
<symbol overflow="visible" id="glyph1-32">
<path style="stroke:none;" d="M 3.1875 -3.5 L 0.515625 -3.5 L 0.515625 -2.6875 L 3.1875 -2.6875 Z M 3.1875 -3.5 "/>
</symbol>
<symbol overflow="visible" id="glyph1-33">
<path style="stroke:none;" d="M 6.203125 0 L 7.9375 -5.875 L 6.875 -5.875 L 5.71875 -1.296875 L 4.5625 -5.875 L 3.421875 -5.875 L 2.296875 -1.296875 L 1.09375 -5.875 L 0.0625 -5.875 L 1.765625 0 L 2.828125 0 L 3.953125 -4.609375 L 5.140625 0 Z M 6.203125 0 "/>
</symbol>
<symbol overflow="visible" id="glyph1-34">
<path style="stroke:none;" d="M 4.96875 -5.875 L 0.578125 -5.875 L 0.578125 -5.046875 L 3.859375 -5.046875 L 0.34375 -0.84375 L 0.34375 0 L 5.125 0 L 5.125 -0.8125 L 1.484375 -0.8125 L 4.96875 -5.046875 Z M 4.96875 -5.875 "/>
</symbol>
<symbol overflow="visible" id="glyph2-0">
<path style="stroke:none;" d=""/>
</symbol>
<symbol overflow="visible" id="glyph2-1">
<path style="stroke:none;" d="M 5.421875 -4 L 9.25 -10.203125 L 7.703125 -10.203125 L 4.78125 -5.234375 L 1.796875 -10.203125 L 0.1875 -10.203125 L 4.109375 -4 L 4.109375 0 L 5.421875 0 Z M 5.421875 -4 "/>
</symbol>
<symbol overflow="visible" id="glyph2-2">
<path style="stroke:none;" d="M 7.1875 -3.28125 C 7.1875 -4.390625 7.09375 -5.0625 6.890625 -5.609375 C 6.40625 -6.8125 5.296875 -7.546875 3.921875 -7.546875 C 1.875 -7.546875 0.5625 -5.984375 0.5625 -3.5625 C 0.5625 -1.140625 1.8125 0.328125 3.890625 0.328125 C 5.578125 0.328125 6.734375 -0.625 7.03125 -2.21875 L 5.859375 -2.21875 C 5.53125 -1.265625 4.875 -0.75 3.9375 -0.75 C 3.1875 -0.75 2.5625 -1.09375 2.171875 -1.703125 C 1.890625 -2.125 1.796875 -2.546875 1.78125 -3.28125 Z M 1.8125 -4.234375 C 1.90625 -5.59375 2.734375 -6.46875 3.90625 -6.46875 C 5.09375 -6.46875 5.921875 -5.546875 5.921875 -4.234375 Z M 1.8125 -4.234375 "/>
</symbol>
<symbol overflow="visible" id="glyph2-3">
<path style="stroke:none;" d="M 7.484375 -0.6875 C 7.359375 -0.65625 7.3125 -0.65625 7.234375 -0.65625 C 6.828125 -0.65625 6.609375 -0.875 6.609375 -1.234375 L 6.609375 -5.546875 C 6.609375 -6.84375 5.65625 -7.546875 3.84375 -7.546875 C 2.765625 -7.546875 1.921875 -7.234375 1.40625 -6.6875 C 1.078125 -6.3125 0.9375 -5.890625 0.90625 -5.171875 L 2.09375 -5.171875 C 2.1875 -6.0625 2.71875 -6.46875 3.8125 -6.46875 C 4.875 -6.46875 5.453125 -6.078125 5.453125 -5.375 L 5.453125 -5.0625 C 5.4375 -4.5625 5.1875 -4.375 4.234375 -4.25 C 2.578125 -4.046875 2.328125 -3.984375 1.875 -3.8125 C 1.015625 -3.4375 0.59375 -2.796875 0.59375 -1.84375 C 0.59375 -0.515625 1.515625 0.328125 3 0.328125 C 3.921875 0.328125 4.65625 0 5.484375 -0.75 C 5.578125 0 5.9375 0.328125 6.6875 0.328125 C 6.9375 0.328125 7.09375 0.296875 7.484375 0.203125 Z M 5.453125 -2.3125 C 5.453125 -1.921875 5.328125 -1.6875 4.984375 -1.359375 C 4.515625 -0.921875 3.9375 -0.703125 3.25 -0.703125 C 2.34375 -0.703125 1.8125 -1.140625 1.8125 -1.875 C 1.8125 -2.640625 2.3125 -3.03125 3.5625 -3.21875 C 4.8125 -3.390625 5.046875 -3.4375 5.453125 -3.625 Z M 5.453125 -2.3125 "/>
</symbol>
<symbol overflow="visible" id="glyph2-4">
<path style="stroke:none;" d="M 0.96875 -7.34375 L 0.96875 0 L 2.140625 0 L 2.140625 -3.8125 C 2.15625 -5.578125 2.890625 -6.359375 4.5 -6.3125 L 4.5 -7.5 C 4.296875 -7.53125 4.1875 -7.546875 4.046875 -7.546875 C 3.296875 -7.546875 2.71875 -7.09375 2.046875 -6 L 2.046875 -7.34375 Z M 0.96875 -7.34375 "/>
</symbol>
<symbol overflow="visible" id="glyph2-5">
<path style="stroke:none;" d="M 6.125 -5.296875 C 6.125 -6.734375 5.171875 -7.546875 3.46875 -7.546875 C 1.765625 -7.546875 0.65625 -6.65625 0.65625 -5.3125 C 0.65625 -4.15625 1.25 -3.609375 2.984375 -3.1875 L 4.078125 -2.921875 C 4.890625 -2.734375 5.203125 -2.4375 5.203125 -1.921875 C 5.203125 -1.21875 4.515625 -0.75 3.5 -0.75 C 2.875 -0.75 2.34375 -0.9375 2.046875 -1.25 C 1.859375 -1.453125 1.78125 -1.671875 1.703125 -2.1875 L 0.46875 -2.1875 C 0.53125 -0.484375 1.484375 0.328125 3.40625 0.328125 C 5.25 0.328125 6.421875 -0.59375 6.421875 -2 C 6.421875 -3.09375 5.8125 -3.703125 4.359375 -4.046875 L 3.234375 -4.3125 C 2.28125 -4.53125 1.875 -4.84375 1.875 -5.359375 C 1.875 -6.046875 2.484375 -6.46875 3.4375 -6.46875 C 4.375 -6.46875 4.875 -6.0625 4.90625 -5.296875 Z M 6.125 -5.296875 "/>
</symbol>
<symbol overflow="visible" id="glyph3-0">
<path style="stroke:none;" d=""/>
</symbol>
<symbol overflow="visible" id="glyph3-1">
<path style="stroke:none;" d="M -4.328125 -2.578125 L -4.328125 -5.78125 C -4.328125 -6.578125 -4.5625 -7.203125 -5.046875 -7.75 C -5.609375 -8.375 -6.265625 -8.640625 -7.203125 -8.640625 C -9.125 -8.640625 -10.203125 -7.5 -10.203125 -5.484375 L -10.203125 -1.28125 L 0 -1.28125 L 0 -2.578125 Z M -5.46875 -2.578125 L -9.0625 -2.578125 L -9.0625 -5.296875 C -9.0625 -6.53125 -8.390625 -7.28125 -7.265625 -7.28125 C -6.140625 -7.28125 -5.46875 -6.53125 -5.46875 -5.296875 Z M -5.46875 -2.578125 "/>
</symbol>
<symbol overflow="visible" id="glyph3-2">
<path style="stroke:none;" d="M -7.34375 -0.96875 L 0 -0.96875 L 0 -2.140625 L -3.8125 -2.140625 C -5.578125 -2.15625 -6.359375 -2.890625 -6.3125 -4.5 L -7.5 -4.5 C -7.53125 -4.296875 -7.546875 -4.1875 -7.546875 -4.046875 C -7.546875 -3.296875 -7.09375 -2.71875 -6 -2.046875 L -7.34375 -2.046875 Z M -7.34375 -0.96875 "/>
</symbol>
<symbol overflow="visible" id="glyph3-3">
<path style="stroke:none;" d="M -7.34375 -2.09375 L -7.34375 -0.9375 L 0 -0.9375 L 0 -2.09375 Z M -10.203125 -2.09375 L -10.203125 -0.921875 L -8.734375 -0.921875 L -8.734375 -2.09375 Z M -10.203125 -2.09375 "/>
</symbol>
<symbol overflow="visible" id="glyph3-4">
<path style="stroke:none;" d="M -4.875 -6.59375 C -5.59375 -6.53125 -6.046875 -6.390625 -6.453125 -6.109375 C -7.140625 -5.59375 -7.546875 -4.71875 -7.546875 -3.703125 C -7.546875 -1.703125 -5.984375 -0.4375 -3.546875 -0.4375 C -1.171875 -0.4375 0.328125 -1.6875 0.328125 -3.6875 C 0.328125 -5.4375 -0.734375 -6.53125 -2.515625 -6.671875 L -2.515625 -5.5 C -1.34375 -5.3125 -0.75 -4.703125 -0.75 -3.703125 C -0.75 -2.421875 -1.8125 -1.65625 -3.546875 -1.65625 C -5.375 -1.65625 -6.46875 -2.40625 -6.46875 -3.6875 C -6.46875 -4.65625 -5.890625 -5.28125 -4.875 -5.421875 Z M -4.875 -6.59375 "/>
</symbol>
<symbol overflow="visible" id="glyph3-5">
<path style="stroke:none;" d="M -3.28125 -7.1875 C -4.390625 -7.1875 -5.0625 -7.09375 -5.609375 -6.890625 C -6.8125 -6.40625 -7.546875 -5.296875 -7.546875 -3.921875 C -7.546875 -1.875 -5.984375 -0.5625 -3.5625 -0.5625 C -1.140625 -0.5625 0.328125 -1.8125 0.328125 -3.890625 C 0.328125 -5.578125 -0.625 -6.734375 -2.21875 -7.03125 L -2.21875 -5.859375 C -1.265625 -5.53125 -0.75 -4.875 -0.75 -3.9375 C -0.75 -3.1875 -1.09375 -2.5625 -1.703125 -2.171875 C -2.125 -1.890625 -2.546875 -1.796875 -3.28125 -1.78125 Z M -4.234375 -1.8125 C -5.59375 -1.90625 -6.46875 -2.734375 -6.46875 -3.90625 C -6.46875 -5.09375 -5.546875 -5.921875 -4.234375 -5.921875 Z M -4.234375 -1.8125 "/>
</symbol>
<symbol overflow="visible" id="glyph3-6">
<path style="stroke:none;" d=""/>
</symbol>
<symbol overflow="visible" id="glyph3-7">
<path style="stroke:none;" d="M -10.78125 -3.5 L -10.03125 -3.5 C -9.796875 -1.703125 -8.8125 -0.734375 -7.21875 -0.734375 C -6.34375 -0.734375 -5.65625 -1.078125 -5.1875 -1.71875 C -4.90625 -2.09375 -4.765625 -2.484375 -4.453125 -3.5 L -0.640625 -3.5 C -0.734375 -2.875 -1.015625 -2.34375 -1.4375 -2.015625 C -1.765625 -1.8125 -2 -1.75 -2.90625 -1.671875 L -2.90625 -0.5625 C -0.96875 -0.46875 0.203125 -1.53125 0.328125 -3.5 L 1.765625 -3.5 L 1.765625 -4.328125 L 0.328125 -4.328125 C 0.265625 -5.078125 0.109375 -5.59375 -0.171875 -6.0625 C -0.671875 -6.875 -1.625 -7.34375 -2.734375 -7.34375 C -3.71875 -7.34375 -4.421875 -6.96875 -4.890625 -6.15625 C -5.09375 -5.796875 -5.171875 -5.609375 -5.5625 -4.328125 L -9.046875 -4.328125 C -9 -5.265625 -8.28125 -5.921875 -7.265625 -5.9375 L -7.265625 -7.046875 C -8.859375 -7.046875 -9.890625 -6.015625 -10.03125 -4.328125 L -10.78125 -4.328125 Z M -5.671875 -3.5 C -5.96875 -2.390625 -6.515625 -1.875 -7.359375 -1.875 C -8.28125 -1.875 -8.890625 -2.46875 -9.03125 -3.5 Z M -4.328125 -4.328125 C -3.90625 -5.75 -3.484375 -6.203125 -2.5625 -6.203125 C -2.015625 -6.203125 -1.53125 -5.984375 -1.15625 -5.609375 C -0.84375 -5.28125 -0.71875 -4.921875 -0.640625 -4.328125 Z M -4.328125 -4.328125 "/>
</symbol>
<symbol overflow="visible" id="glyph3-8">
<path style="stroke:none;" d="M -10.203125 -9.046875 L -10.203125 -7.8125 L -1.859375 -7.8125 L -10.203125 -2.484375 L -10.203125 -1.0625 L 0 -1.0625 L 0 -2.296875 L -8.28125 -2.296875 L 0 -7.578125 L 0 -9.046875 Z M -10.203125 -9.046875 "/>
</symbol>
<symbol overflow="visible" id="glyph3-9">
<path style="stroke:none;" d="M -10.203125 -8.140625 L -10.203125 -0.78125 L -9.0625 -0.78125 L -9.0625 -6.53125 L -1.140625 -0.390625 L 0 -0.390625 L 0 -8.15625 L -1.140625 -8.15625 L -1.140625 -2.03125 L -9.03125 -8.140625 Z M -10.203125 -8.140625 "/>
</symbol>
<symbol overflow="visible" id="glyph3-10">
<path style="stroke:none;" d="M 0 -1.25 L 0 -5.1875 C 0 -7.75 -1.9375 -9.34375 -5.109375 -9.34375 C -8.28125 -9.34375 -10.203125 -7.765625 -10.203125 -5.1875 L -10.203125 -1.25 Z M -1.140625 -2.546875 L -9.0625 -2.546875 L -9.0625 -4.953125 C -9.0625 -6.96875 -7.703125 -8.03125 -5.09375 -8.03125 C -2.5 -8.03125 -1.140625 -6.96875 -1.140625 -4.953125 Z M -1.140625 -2.546875 "/>
</symbol>
<symbol overflow="visible" id="glyph4-0">
<path style="stroke:none;" d=""/>
</symbol>
<symbol overflow="visible" id="glyph4-1">
<path style="stroke:none;" d="M 9.234375 -4.21875 C 9.234375 -5.65625 9.125 -6.515625 8.859375 -7.21875 C 8.25 -8.765625 6.796875 -9.703125 5.046875 -9.703125 C 2.40625 -9.703125 0.71875 -7.703125 0.71875 -4.59375 C 0.71875 -1.46875 2.34375 0.40625 5 0.40625 C 7.15625 0.40625 8.65625 -0.8125 9.03125 -2.859375 L 7.53125 -2.859375 C 7.109375 -1.625 6.265625 -0.96875 5.0625 -0.96875 C 4.109375 -0.96875 3.296875 -1.40625 2.796875 -2.203125 C 2.4375 -2.734375 2.296875 -3.28125 2.28125 -4.21875 Z M 2.328125 -5.4375 C 2.453125 -7.1875 3.515625 -8.3125 5.015625 -8.3125 C 6.546875 -8.3125 7.609375 -7.125 7.609375 -5.4375 Z M 2.328125 -5.4375 "/>
</symbol>
<symbol overflow="visible" id="glyph4-2">
<path style="stroke:none;" d="M 1.265625 -9.4375 L 1.265625 0 L 2.765625 0 L 2.765625 -5.921875 C 2.765625 -7.296875 3.765625 -8.390625 4.984375 -8.390625 C 6.109375 -8.390625 6.734375 -7.703125 6.734375 -6.5 L 6.734375 0 L 8.25 0 L 8.25 -5.921875 C 8.25 -7.296875 9.234375 -8.390625 10.453125 -8.390625 C 11.5625 -8.390625 12.203125 -7.6875 12.203125 -6.5 L 12.203125 0 L 13.71875 0 L 13.71875 -7.078125 C 13.71875 -8.765625 12.75 -9.703125 10.984375 -9.703125 C 9.71875 -9.703125 8.96875 -9.328125 8.078125 -8.265625 C 7.53125 -9.265625 6.765625 -9.703125 5.546875 -9.703125 C 4.28125 -9.703125 3.4375 -9.234375 2.640625 -8.09375 L 2.640625 -9.4375 Z M 1.265625 -9.4375 "/>
</symbol>
<symbol overflow="visible" id="glyph4-3">
<path style="stroke:none;" d="M 7.890625 -6.796875 C 7.859375 -8.65625 6.640625 -9.703125 4.46875 -9.703125 C 2.265625 -9.703125 0.84375 -8.5625 0.84375 -6.828125 C 0.84375 -5.34375 1.609375 -4.640625 3.828125 -4.109375 L 5.234375 -3.765625 C 6.28125 -3.515625 6.703125 -3.125 6.703125 -2.46875 C 6.703125 -1.5625 5.8125 -0.96875 4.5 -0.96875 C 3.6875 -0.96875 3 -1.203125 2.625 -1.609375 C 2.390625 -1.875 2.28125 -2.140625 2.203125 -2.8125 L 0.609375 -2.8125 C 0.6875 -0.625 1.90625 0.40625 4.375 0.40625 C 6.75 0.40625 8.265625 -0.75 8.265625 -2.578125 C 8.265625 -3.984375 7.46875 -4.75 5.59375 -5.203125 L 4.15625 -5.546875 C 2.9375 -5.828125 2.40625 -6.234375 2.40625 -6.890625 C 2.40625 -7.78125 3.1875 -8.3125 4.40625 -8.3125 C 5.609375 -8.3125 6.265625 -7.796875 6.296875 -6.796875 Z M 7.890625 -6.796875 "/>
</symbol>
<symbol overflow="visible" id="glyph4-4">
<path style="stroke:none;" d="M 6.375 -11.640625 L 10.671875 -11.640625 L 10.671875 -13.125 L 0.375 -13.125 L 0.375 -11.640625 L 4.703125 -11.640625 L 4.703125 0 L 6.375 0 Z M 6.375 -11.640625 "/>
</symbol>
<symbol overflow="visible" id="glyph4-5">
<path style="stroke:none;" d="M 1.234375 -9.4375 L 1.234375 0 L 2.75 0 L 2.75 -4.890625 C 2.765625 -7.15625 3.703125 -8.171875 5.78125 -8.125 L 5.78125 -9.640625 C 5.53125 -9.6875 5.375 -9.703125 5.203125 -9.703125 C 4.234375 -9.703125 3.484375 -9.125 2.625 -7.71875 L 2.625 -9.4375 Z M 1.234375 -9.4375 "/>
</symbol>
<symbol overflow="visible" id="glyph4-6">
<path style="stroke:none;" d="M 9.625 -0.875 C 9.46875 -0.84375 9.390625 -0.84375 9.3125 -0.84375 C 8.78125 -0.84375 8.5 -1.109375 8.5 -1.578125 L 8.5 -7.125 C 8.5 -8.796875 7.265625 -9.703125 4.953125 -9.703125 C 3.5625 -9.703125 2.46875 -9.3125 1.8125 -8.609375 C 1.390625 -8.125 1.203125 -7.578125 1.171875 -6.640625 L 2.6875 -6.640625 C 2.8125 -7.796875 3.484375 -8.3125 4.890625 -8.3125 C 6.265625 -8.3125 7 -7.8125 7 -6.90625 L 7 -6.515625 C 6.984375 -5.875 6.65625 -5.640625 5.4375 -5.46875 C 3.3125 -5.203125 2.984375 -5.125 2.40625 -4.890625 C 1.3125 -4.421875 0.75 -3.59375 0.75 -2.375 C 0.75 -0.671875 1.9375 0.40625 3.859375 0.40625 C 5.046875 0.40625 6 0 7.0625 -0.96875 C 7.15625 0 7.625 0.40625 8.609375 0.40625 C 8.921875 0.40625 9.125 0.375 9.625 0.25 Z M 7 -2.96875 C 7 -2.46875 6.859375 -2.15625 6.40625 -1.75 C 5.796875 -1.1875 5.0625 -0.90625 4.171875 -0.90625 C 3 -0.90625 2.328125 -1.453125 2.328125 -2.40625 C 2.328125 -3.40625 2.96875 -3.90625 4.59375 -4.140625 C 6.1875 -4.359375 6.5 -4.421875 7 -4.65625 Z M 7 -2.96875 "/>
</symbol>
<symbol overflow="visible" id="glyph4-7">
<path style="stroke:none;" d="M 8.90625 -13.125 L 7.421875 -13.125 L 7.421875 -8.25 C 6.78125 -9.203125 5.78125 -9.703125 4.515625 -9.703125 C 2.0625 -9.703125 0.46875 -7.734375 0.46875 -4.734375 C 0.46875 -1.546875 2.015625 0.40625 4.578125 0.40625 C 5.875 0.40625 6.765625 -0.078125 7.578125 -1.234375 L 7.578125 0 L 8.90625 0 Z M 4.765625 -8.296875 C 6.390625 -8.296875 7.421875 -6.875 7.421875 -4.609375 C 7.421875 -2.4375 6.375 -0.984375 4.78125 -0.984375 C 3.125 -0.984375 2.03125 -2.453125 2.03125 -4.640625 C 2.03125 -6.84375 3.125 -8.296875 4.765625 -8.296875 Z M 4.765625 -8.296875 "/>
</symbol>
<symbol overflow="visible" id="glyph4-8">
<path style="stroke:none;" d="M 0.96875 3.921875 L 2.484375 3.921875 L 2.484375 -0.984375 C 3.28125 -0.015625 4.15625 0.40625 5.375 0.40625 C 7.828125 0.40625 9.40625 -1.546875 9.40625 -4.546875 C 9.40625 -7.71875 7.859375 -9.703125 5.359375 -9.703125 C 4.09375 -9.703125 3.0625 -9.125 2.359375 -8.015625 L 2.359375 -9.4375 L 0.96875 -9.4375 Z M 5.109375 -8.296875 C 6.765625 -8.296875 7.84375 -6.84375 7.84375 -4.59375 C 7.84375 -2.453125 6.75 -0.984375 5.109375 -0.984375 C 3.515625 -0.984375 2.484375 -2.4375 2.484375 -4.640625 C 2.484375 -6.859375 3.515625 -8.296875 5.109375 -8.296875 Z M 5.109375 -8.296875 "/>
</symbol>
<symbol overflow="visible" id="glyph4-9">
<path style="stroke:none;" d="M 4.890625 -9.703125 C 2.234375 -9.703125 0.640625 -7.8125 0.640625 -4.640625 C 0.640625 -1.453125 2.234375 0.40625 4.90625 0.40625 C 7.578125 0.40625 9.1875 -1.46875 9.1875 -4.578125 C 9.1875 -7.84375 7.625 -9.703125 4.890625 -9.703125 Z M 4.90625 -8.3125 C 6.609375 -8.3125 7.609375 -6.9375 7.609375 -4.59375 C 7.609375 -2.359375 6.5625 -0.96875 4.90625 -0.96875 C 3.234375 -0.96875 2.21875 -2.359375 2.21875 -4.640625 C 2.21875 -6.9375 3.234375 -8.3125 4.90625 -8.3125 Z M 4.90625 -8.3125 "/>
</symbol>
<symbol overflow="visible" id="glyph4-10">
<path style="stroke:none;" d="M 2.703125 -9.4375 L 1.203125 -9.4375 L 1.203125 0 L 2.703125 0 Z M 2.703125 -13.125 L 1.1875 -13.125 L 1.1875 -11.234375 L 2.703125 -11.234375 Z M 2.703125 -13.125 "/>
</symbol>
<symbol overflow="visible" id="glyph4-11">
<path style="stroke:none;" d="M 1.265625 -9.4375 L 1.265625 0 L 2.765625 0 L 2.765625 -5.203125 C 2.765625 -7.125 3.78125 -8.390625 5.328125 -8.390625 C 6.515625 -8.390625 7.265625 -7.671875 7.265625 -6.53125 L 7.265625 0 L 8.765625 0 L 8.765625 -7.125 C 8.765625 -8.6875 7.59375 -9.703125 5.78125 -9.703125 C 4.375 -9.703125 3.46875 -9.15625 2.640625 -7.84375 L 2.640625 -9.4375 Z M 1.265625 -9.4375 "/>
</symbol>
<symbol overflow="visible" id="glyph4-12">
<path style="stroke:none;" d="M 4.578125 -9.4375 L 3.03125 -9.4375 L 3.03125 -12.03125 L 1.53125 -12.03125 L 1.53125 -9.4375 L 0.25 -9.4375 L 0.25 -8.203125 L 1.53125 -8.203125 L 1.53125 -1.078125 C 1.53125 -0.109375 2.171875 0.40625 3.34375 0.40625 C 3.75 0.40625 4.0625 0.375 4.578125 0.28125 L 4.578125 -0.96875 C 4.359375 -0.921875 4.15625 -0.90625 3.859375 -0.90625 C 3.203125 -0.90625 3.03125 -1.078125 3.03125 -1.75 L 3.03125 -8.203125 L 4.578125 -8.203125 Z M 4.578125 -9.4375 "/>
</symbol>
<symbol overflow="visible" id="glyph4-13">
<path style="stroke:none;" d=""/>
</symbol>
<symbol overflow="visible" id="glyph4-14">
<path style="stroke:none;" d="M 11.625 -13.125 L 10.046875 -13.125 L 10.046875 -2.390625 L 3.1875 -13.125 L 1.375 -13.125 L 1.375 0 L 2.953125 0 L 2.953125 -10.640625 L 9.734375 0 L 11.625 0 Z M 11.625 -13.125 "/>
</symbol>
<symbol overflow="visible" id="glyph4-15">
<path style="stroke:none;" d="M 9.96875 0 L 12.75 -9.4375 L 11.046875 -9.4375 L 9.1875 -2.09375 L 7.328125 -9.4375 L 5.484375 -9.4375 L 3.6875 -2.09375 L 1.765625 -9.4375 L 0.109375 -9.4375 L 2.84375 0 L 4.53125 0 L 6.359375 -7.390625 L 8.265625 0 Z M 9.96875 0 "/>
</symbol>
<symbol overflow="visible" id="glyph4-16">
<path style="stroke:none;" d="M 10.453125 -13.125 L 1.015625 -13.125 L 1.015625 -11.640625 L 8.390625 -11.640625 L 0.5 -1.46875 L 0.5 0 L 10.5 0 L 10.5 -1.46875 L 2.609375 -1.46875 L 10.453125 -11.609375 Z M 10.453125 -13.125 "/>
</symbol>
<symbol overflow="visible" id="glyph4-17">
<path style="stroke:none;" d="M 2.734375 -13.125 L 1.21875 -13.125 L 1.21875 0 L 2.734375 0 Z M 2.734375 -13.125 "/>
</symbol>
<symbol overflow="visible" id="glyph4-18">
<path style="stroke:none;" d="M 9.9375 -13.125 L 9.9375 -3.90625 C 9.9375 -2.140625 8.65625 -1.0625 6.546875 -1.0625 C 5.578125 -1.0625 4.78125 -1.296875 4.15625 -1.75 C 3.515625 -2.25 3.203125 -2.921875 3.203125 -3.90625 L 3.203125 -13.125 L 1.53125 -13.125 L 1.53125 -3.90625 C 1.53125 -1.234375 3.4375 0.40625 6.546875 0.40625 C 9.625 0.40625 11.609375 -1.28125 11.609375 -3.90625 L 11.609375 -13.125 Z M 9.9375 -13.125 "/>
</symbol>
<symbol overflow="visible" id="glyph4-19">
<path style="stroke:none;" d="M 4.25 -13.125 C 2.453125 -10.765625 1.3125 -7.484375 1.3125 -4.65625 C 1.3125 -1.8125 2.453125 1.453125 4.25 3.8125 L 5.234375 3.8125 C 3.65625 1.234375 2.765625 -1.78125 2.765625 -4.65625 C 2.765625 -7.53125 3.65625 -10.5625 5.234375 -13.125 Z M 4.25 -13.125 "/>
</symbol>
<symbol overflow="visible" id="glyph4-20">
<path style="stroke:none;" d="M 1.671875 3.8125 C 3.46875 1.453125 4.609375 -1.8125 4.609375 -4.640625 C 4.609375 -7.484375 3.46875 -10.765625 1.671875 -13.125 L 0.6875 -13.125 C 2.265625 -10.546875 3.15625 -7.53125 3.15625 -4.640625 C 3.15625 -1.78125 2.265625 1.265625 0.6875 3.8125 Z M 1.671875 3.8125 "/>
</symbol>
<symbol overflow="visible" id="glyph4-21">
<path style="stroke:none;" d="M 6.984375 -9.4375 L 4.375 -2.09375 L 1.96875 -9.4375 L 0.359375 -9.4375 L 3.546875 0.03125 L 2.96875 1.53125 C 2.71875 2.203125 2.390625 2.453125 1.765625 2.453125 C 1.515625 2.453125 1.296875 2.40625 0.96875 2.34375 L 0.96875 3.6875 C 1.28125 3.859375 1.578125 3.921875 1.984375 3.921875 C 2.46875 3.921875 2.984375 3.765625 3.390625 3.46875 C 3.859375 3.125 4.125 2.734375 4.40625 1.984375 L 8.609375 -9.4375 Z M 6.984375 -9.4375 "/>
</symbol>
<symbol overflow="visible" id="glyph4-22">
<path style="stroke:none;" d="M 8.484375 -6.265625 C 8.40625 -7.1875 8.203125 -7.78125 7.84375 -8.296875 C 7.203125 -9.1875 6.0625 -9.703125 4.75 -9.703125 C 2.203125 -9.703125 0.5625 -7.6875 0.5625 -4.546875 C 0.5625 -1.515625 2.171875 0.40625 4.734375 0.40625 C 6.984375 0.40625 8.40625 -0.9375 8.59375 -3.234375 L 7.078125 -3.234375 C 6.828125 -1.734375 6.046875 -0.96875 4.765625 -0.96875 C 3.109375 -0.96875 2.125 -2.328125 2.125 -4.546875 C 2.125 -6.90625 3.09375 -8.3125 4.734375 -8.3125 C 6 -8.3125 6.78125 -7.578125 6.96875 -6.265625 Z M 8.484375 -6.265625 "/>
</symbol>
</g>
<clipPath id="clip1">
  <path d="M 40.25 31.949219 L 569.027344 31.949219 L 569.027344 372.777344 L 40.25 372.777344 Z M 40.25 31.949219 "/>
</clipPath>
<clipPath id="clip2">
  <path d="M 40.25 346 L 569.027344 346 L 569.027344 347 L 40.25 347 Z M 40.25 346 "/>
</clipPath>
<clipPath id="clip3">
  <path d="M 40.25 310 L 569.027344 310 L 569.027344 312 L 40.25 312 Z M 40.25 310 "/>
</clipPath>
<clipPath id="clip4">
  <path d="M 40.25 274 L 569.027344 274 L 569.027344 276 L 40.25 276 Z M 40.25 274 "/>
</clipPath>
<clipPath id="clip5">
  <path d="M 40.25 238 L 569.027344 238 L 569.027344 240 L 40.25 240 Z M 40.25 238 "/>
</clipPath>
<clipPath id="clip6">
  <path d="M 40.25 202 L 569.027344 202 L 569.027344 204 L 40.25 204 Z M 40.25 202 "/>
</clipPath>
<clipPath id="clip7">
  <path d="M 40.25 166 L 569.027344 166 L 569.027344 168 L 40.25 168 Z M 40.25 166 "/>
</clipPath>
<clipPath id="clip8">
  <path d="M 40.25 131 L 569.027344 131 L 569.027344 132 L 40.25 132 Z M 40.25 131 "/>
</clipPath>
<clipPath id="clip9">
  <path d="M 40.25 95 L 569.027344 95 L 569.027344 96 L 40.25 96 Z M 40.25 95 "/>
</clipPath>
<clipPath id="clip10">
  <path d="M 40.25 59 L 569.027344 59 L 569.027344 60 L 40.25 60 Z M 40.25 59 "/>
</clipPath>
<clipPath id="clip11">
  <path d="M 40.25 41 L 569.027344 41 L 569.027344 43 L 40.25 43 Z M 40.25 41 "/>
</clipPath>
<clipPath id="clip12">
  <path d="M 99 31.949219 L 101 31.949219 L 101 372.777344 L 99 372.777344 Z M 99 31.949219 "/>
</clipPath>
<clipPath id="clip13">
  <path d="M 195 31.949219 L 196 31.949219 L 196 372.777344 L 195 372.777344 Z M 195 31.949219 "/>
</clipPath>
<clipPath id="clip14">
  <path d="M 290 31.949219 L 292 31.949219 L 292 372.777344 L 290 372.777344 Z M 290 31.949219 "/>
</clipPath>
<clipPath id="clip15">
  <path d="M 386 31.949219 L 388 31.949219 L 388 372.777344 L 386 372.777344 Z M 386 31.949219 "/>
</clipPath>
<clipPath id="clip16">
  <path d="M 482 31.949219 L 484 31.949219 L 484 372.777344 L 482 372.777344 Z M 482 31.949219 "/>
</clipPath>
<clipPath id="clip17">
  <path d="M 40.25 363 L 569.027344 363 L 569.027344 366 L 40.25 366 Z M 40.25 363 "/>
</clipPath>
<clipPath id="clip18">
  <path d="M 40.25 327 L 569.027344 327 L 569.027344 330 L 40.25 330 Z M 40.25 327 "/>
</clipPath>
<clipPath id="clip19">
  <path d="M 40.25 292 L 569.027344 292 L 569.027344 294 L 40.25 294 Z M 40.25 292 "/>
</clipPath>
<clipPath id="clip20">
  <path d="M 40.25 256 L 569.027344 256 L 569.027344 258 L 40.25 258 Z M 40.25 256 "/>
</clipPath>
<clipPath id="clip21">
  <path d="M 40.25 220 L 569.027344 220 L 569.027344 222 L 40.25 222 Z M 40.25 220 "/>
</clipPath>
<clipPath id="clip22">
  <path d="M 40.25 184 L 569.027344 184 L 569.027344 186 L 40.25 186 Z M 40.25 184 "/>
</clipPath>
<clipPath id="clip23">
  <path d="M 40.25 148 L 569.027344 148 L 569.027344 150 L 40.25 150 Z M 40.25 148 "/>
</clipPath>
<clipPath id="clip24">
  <path d="M 40.25 112 L 569.027344 112 L 569.027344 115 L 40.25 115 Z M 40.25 112 "/>
</clipPath>
<clipPath id="clip25">
  <path d="M 40.25 76 L 569.027344 76 L 569.027344 79 L 40.25 79 Z M 40.25 76 "/>
</clipPath>
<clipPath id="clip26">
  <path d="M 51 31.949219 L 53 31.949219 L 53 372.777344 L 51 372.777344 Z M 51 31.949219 "/>
</clipPath>
<clipPath id="clip27">
  <path d="M 146 31.949219 L 149 31.949219 L 149 372.777344 L 146 372.777344 Z M 146 31.949219 "/>
</clipPath>
<clipPath id="clip28">
  <path d="M 242 31.949219 L 244 31.949219 L 244 372.777344 L 242 372.777344 Z M 242 31.949219 "/>
</clipPath>
<clipPath id="clip29">
  <path d="M 338 31.949219 L 340 31.949219 L 340 372.777344 L 338 372.777344 Z M 338 31.949219 "/>
</clipPath>
<clipPath id="clip30">
  <path d="M 434 31.949219 L 436 31.949219 L 436 372.777344 L 434 372.777344 Z M 434 31.949219 "/>
</clipPath>
<clipPath id="clip31">
  <path d="M 529 31.949219 L 532 31.949219 L 532 372.777344 L 529 372.777344 Z M 529 31.949219 "/>
</clipPath>
<clipPath id="clip32">
  <path d="M 40.25 31.949219 L 569.027344 31.949219 L 569.027344 372.777344 L 40.25 372.777344 Z M 40.25 31.949219 "/>
</clipPath>
</defs>
<g id="surface34">
<rect x="0" y="0" width="576" height="432" style="fill:rgb(100%,100%,100%);fill-opacity:1;stroke:none;"/>
<rect x="0" y="0" width="576" height="432" style="fill:rgb(100%,100%,100%);fill-opacity:1;stroke:none;"/>
<path style="fill:none;stroke-width:1.357972;stroke-linecap:round;stroke-linejoin:round;stroke:rgb(100%,100%,100%);stroke-opacity:1;stroke-miterlimit:10;" d="M 0 432 L 576 432 L 576 0 L 0 0 Z M 0 432 "/>
<g clip-path="url(#clip1)" clip-rule="nonzero">
<path style=" stroke:none;fill-rule:nonzero;fill:rgb(100%,100%,100%);fill-opacity:1;" d="M 40.25 372.777344 L 569.027344 372.777344 L 569.027344 31.949219 L 40.25 31.949219 Z M 40.25 372.777344 "/>
</g>
<g clip-path="url(#clip2)" clip-rule="nonzero">
<path style="fill:none;stroke-width:0.678986;stroke-linecap:butt;stroke-linejoin:round;stroke:rgb(92.156863%,92.156863%,92.156863%);stroke-opacity:1;stroke-miterlimit:10;" d="M 40.25 346.523438 L 569.027344 346.523438 "/>
</g>
<g clip-path="url(#clip3)" clip-rule="nonzero">
<path style="fill:none;stroke-width:0.678986;stroke-linecap:butt;stroke-linejoin:round;stroke:rgb(92.156863%,92.156863%,92.156863%);stroke-opacity:1;stroke-miterlimit:10;" d="M 40.25 310.664062 L 569.027344 310.664062 "/>
</g>
<g clip-path="url(#clip4)" clip-rule="nonzero">
<path style="fill:none;stroke-width:0.678986;stroke-linecap:butt;stroke-linejoin:round;stroke:rgb(92.156863%,92.156863%,92.156863%);stroke-opacity:1;stroke-miterlimit:10;" d="M 40.25 274.800781 L 569.027344 274.800781 "/>
</g>
<g clip-path="url(#clip5)" clip-rule="nonzero">
<path style="fill:none;stroke-width:0.678986;stroke-linecap:butt;stroke-linejoin:round;stroke:rgb(92.156863%,92.156863%,92.156863%);stroke-opacity:1;stroke-miterlimit:10;" d="M 40.25 238.941406 L 569.027344 238.941406 "/>
</g>
<g clip-path="url(#clip6)" clip-rule="nonzero">
<path style="fill:none;stroke-width:0.678986;stroke-linecap:butt;stroke-linejoin:round;stroke:rgb(92.156863%,92.156863%,92.156863%);stroke-opacity:1;stroke-miterlimit:10;" d="M 40.25 203.078125 L 569.027344 203.078125 "/>
</g>
<g clip-path="url(#clip7)" clip-rule="nonzero">
<path style="fill:none;stroke-width:0.678986;stroke-linecap:butt;stroke-linejoin:round;stroke:rgb(92.156863%,92.156863%,92.156863%);stroke-opacity:1;stroke-miterlimit:10;" d="M 40.25 167.21875 L 569.027344 167.21875 "/>
</g>
<g clip-path="url(#clip8)" clip-rule="nonzero">
<path style="fill:none;stroke-width:0.678986;stroke-linecap:butt;stroke-linejoin:round;stroke:rgb(92.156863%,92.156863%,92.156863%);stroke-opacity:1;stroke-miterlimit:10;" d="M 40.25 131.355469 L 569.027344 131.355469 "/>
</g>
<g clip-path="url(#clip9)" clip-rule="nonzero">
<path style="fill:none;stroke-width:0.678986;stroke-linecap:butt;stroke-linejoin:round;stroke:rgb(92.156863%,92.156863%,92.156863%);stroke-opacity:1;stroke-miterlimit:10;" d="M 40.25 95.496094 L 569.027344 95.496094 "/>
</g>
<g clip-path="url(#clip10)" clip-rule="nonzero">
<path style="fill:none;stroke-width:0.678986;stroke-linecap:butt;stroke-linejoin:round;stroke:rgb(92.156863%,92.156863%,92.156863%);stroke-opacity:1;stroke-miterlimit:10;" d="M 40.25 59.632812 L 569.027344 59.632812 "/>
</g>
<g clip-path="url(#clip11)" clip-rule="nonzero">
<path style="fill:none;stroke-width:0.678986;stroke-linecap:butt;stroke-linejoin:round;stroke:rgb(92.156863%,92.156863%,92.156863%);stroke-opacity:1;stroke-miterlimit:10;" d="M 40.25 41.703125 L 569.027344 41.703125 "/>
</g>
<g clip-path="url(#clip12)" clip-rule="nonzero">
<path style="fill:none;stroke-width:0.678986;stroke-linecap:butt;stroke-linejoin:round;stroke:rgb(92.156863%,92.156863%,92.156863%);stroke-opacity:1;stroke-miterlimit:10;" d="M 99.800781 372.777344 L 99.800781 31.949219 "/>
</g>
<g clip-path="url(#clip13)" clip-rule="nonzero">
<path style="fill:none;stroke-width:0.678986;stroke-linecap:butt;stroke-linejoin:round;stroke:rgb(92.156863%,92.156863%,92.156863%);stroke-opacity:1;stroke-miterlimit:10;" d="M 195.46875 372.777344 L 195.46875 31.949219 "/>
</g>
<g clip-path="url(#clip14)" clip-rule="nonzero">
<path style="fill:none;stroke-width:0.678986;stroke-linecap:butt;stroke-linejoin:round;stroke:rgb(92.156863%,92.156863%,92.156863%);stroke-opacity:1;stroke-miterlimit:10;" d="M 291.140625 372.777344 L 291.140625 31.949219 "/>
</g>
<g clip-path="url(#clip15)" clip-rule="nonzero">
<path style="fill:none;stroke-width:0.678986;stroke-linecap:butt;stroke-linejoin:round;stroke:rgb(92.156863%,92.156863%,92.156863%);stroke-opacity:1;stroke-miterlimit:10;" d="M 386.941406 372.777344 L 386.941406 31.949219 "/>
</g>
<g clip-path="url(#clip16)" clip-rule="nonzero">
<path style="fill:none;stroke-width:0.678986;stroke-linecap:butt;stroke-linejoin:round;stroke:rgb(92.156863%,92.156863%,92.156863%);stroke-opacity:1;stroke-miterlimit:10;" d="M 482.742188 372.777344 L 482.742188 31.949219 "/>
</g>
<g clip-path="url(#clip17)" clip-rule="nonzero">
<path style="fill:none;stroke-width:1.357972;stroke-linecap:butt;stroke-linejoin:round;stroke:rgb(92.156863%,92.156863%,92.156863%);stroke-opacity:1;stroke-miterlimit:10;" d="M 40.25 364.457031 L 569.027344 364.457031 "/>
</g>
<g clip-path="url(#clip18)" clip-rule="nonzero">
<path style="fill:none;stroke-width:1.357972;stroke-linecap:butt;stroke-linejoin:round;stroke:rgb(92.156863%,92.156863%,92.156863%);stroke-opacity:1;stroke-miterlimit:10;" d="M 40.25 328.59375 L 569.027344 328.59375 "/>
</g>
<g clip-path="url(#clip19)" clip-rule="nonzero">
<path style="fill:none;stroke-width:1.357972;stroke-linecap:butt;stroke-linejoin:round;stroke:rgb(92.156863%,92.156863%,92.156863%);stroke-opacity:1;stroke-miterlimit:10;" d="M 40.25 292.734375 L 569.027344 292.734375 "/>
</g>
<g clip-path="url(#clip20)" clip-rule="nonzero">
<path style="fill:none;stroke-width:1.357972;stroke-linecap:butt;stroke-linejoin:round;stroke:rgb(92.156863%,92.156863%,92.156863%);stroke-opacity:1;stroke-miterlimit:10;" d="M 40.25 256.871094 L 569.027344 256.871094 "/>
</g>
<g clip-path="url(#clip21)" clip-rule="nonzero">
<path style="fill:none;stroke-width:1.357972;stroke-linecap:butt;stroke-linejoin:round;stroke:rgb(92.156863%,92.156863%,92.156863%);stroke-opacity:1;stroke-miterlimit:10;" d="M 40.25 221.011719 L 569.027344 221.011719 "/>
</g>
<g clip-path="url(#clip22)" clip-rule="nonzero">
<path style="fill:none;stroke-width:1.357972;stroke-linecap:butt;stroke-linejoin:round;stroke:rgb(92.156863%,92.156863%,92.156863%);stroke-opacity:1;stroke-miterlimit:10;" d="M 40.25 185.148438 L 569.027344 185.148438 "/>
</g>
<g clip-path="url(#clip23)" clip-rule="nonzero">
<path style="fill:none;stroke-width:1.357972;stroke-linecap:butt;stroke-linejoin:round;stroke:rgb(92.156863%,92.156863%,92.156863%);stroke-opacity:1;stroke-miterlimit:10;" d="M 40.25 149.285156 L 569.027344 149.285156 "/>
</g>
<g clip-path="url(#clip24)" clip-rule="nonzero">
<path style="fill:none;stroke-width:1.357972;stroke-linecap:butt;stroke-linejoin:round;stroke:rgb(92.156863%,92.156863%,92.156863%);stroke-opacity:1;stroke-miterlimit:10;" d="M 40.25 113.425781 L 569.027344 113.425781 "/>
</g>
<g clip-path="url(#clip25)" clip-rule="nonzero">
<path style="fill:none;stroke-width:1.357972;stroke-linecap:butt;stroke-linejoin:round;stroke:rgb(92.156863%,92.156863%,92.156863%);stroke-opacity:1;stroke-miterlimit:10;" d="M 40.25 77.5625 L 569.027344 77.5625 "/>
</g>
<g clip-path="url(#clip26)" clip-rule="nonzero">
<path style="fill:none;stroke-width:1.357972;stroke-linecap:butt;stroke-linejoin:round;stroke:rgb(92.156863%,92.156863%,92.156863%);stroke-opacity:1;stroke-miterlimit:10;" d="M 51.964844 372.777344 L 51.964844 31.949219 "/>
</g>
<g clip-path="url(#clip27)" clip-rule="nonzero">
<path style="fill:none;stroke-width:1.357972;stroke-linecap:butt;stroke-linejoin:round;stroke:rgb(92.156863%,92.156863%,92.156863%);stroke-opacity:1;stroke-miterlimit:10;" d="M 147.636719 372.777344 L 147.636719 31.949219 "/>
</g>
<g clip-path="url(#clip28)" clip-rule="nonzero">
<path style="fill:none;stroke-width:1.357972;stroke-linecap:butt;stroke-linejoin:round;stroke:rgb(92.156863%,92.156863%,92.156863%);stroke-opacity:1;stroke-miterlimit:10;" d="M 243.304688 372.777344 L 243.304688 31.949219 "/>
</g>
<g clip-path="url(#clip29)" clip-rule="nonzero">
<path style="fill:none;stroke-width:1.357972;stroke-linecap:butt;stroke-linejoin:round;stroke:rgb(92.156863%,92.156863%,92.156863%);stroke-opacity:1;stroke-miterlimit:10;" d="M 338.972656 372.777344 L 338.972656 31.949219 "/>
</g>
<g clip-path="url(#clip30)" clip-rule="nonzero">
<path style="fill:none;stroke-width:1.357972;stroke-linecap:butt;stroke-linejoin:round;stroke:rgb(92.156863%,92.156863%,92.156863%);stroke-opacity:1;stroke-miterlimit:10;" d="M 434.90625 372.777344 L 434.90625 31.949219 "/>
</g>
<g clip-path="url(#clip31)" clip-rule="nonzero">
<path style="fill:none;stroke-width:1.357972;stroke-linecap:butt;stroke-linejoin:round;stroke:rgb(92.156863%,92.156863%,92.156863%);stroke-opacity:1;stroke-miterlimit:10;" d="M 530.574219 372.777344 L 530.574219 31.949219 "/>
</g>
<path style="fill:none;stroke-width:1.357972;stroke-linecap:butt;stroke-linejoin:round;stroke:rgb(92.941176%,10.196078%,23.137255%);stroke-opacity:1;stroke-miterlimit:10;" d="M 64.285156 221.011719 L 67.957031 224.773438 L 75.292969 224.597656 L 76.867188 224.597656 L 87.613281 216.886719 L 88.398438 231.160156 L 89.710938 229.976562 L 94.953125 220.113281 L 104.386719 192.320312 L 108.058594 189.703125 L 109.890625 188.015625 L 110.679688 185.148438 L 111.464844 186.941406 L 112.511719 186.582031 L 113.300781 184.144531 L 114.085938 182.816406 L 115.921875 152.871094 L 117.230469 142.113281 L 118.019531 127.769531 L 127.976562 131.355469 L 129.027344 131.355469 L 130.335938 131.175781 L 130.597656 131.355469 L 152.355469 102.667969 L 152.617188 99.082031 L 156.546875 84.734375 L 157.597656 86.527344 L 159.429688 63.21875 L 161.265625 70.390625 L 161.789062 73.976562 L 162.050781 76.667969 L 163.625 73.976562 L 163.886719 81.148438 L 164.671875 83.839844 L 164.933594 91.90625 L 165.195312 96.390625 L 167.816406 104.460938 L 169.128906 102.378906 L 169.390625 98.542969 L 171.226562 93.703125 L 172.011719 93.703125 L 174.109375 92.195312 L 174.632812 90.113281 L 176.207031 88.320312 L 176.46875 89.324219 L 177.777344 91.90625 L 178.039062 91.90625 L 179.351562 95.496094 L 179.613281 91.90625 L 180.136719 91.371094 L 181.449219 89.757812 L 183.542969 89.757812 L 185.117188 88.320312 L 185.378906 88.320312 L 185.640625 87.246094 L 186.691406 89.148438 L 187.476562 89.398438 L 187.738281 89.039062 L 189.3125 87.425781 L 189.574219 89.757812 L 190.359375 88.5 L 190.621094 90.113281 L 190.882812 89.21875 L 191.40625 88.609375 L 192.457031 90.472656 L 192.980469 90.113281 L 193.242188 90.292969 L 194.027344 91.90625 L 194.816406 91.90625 L 195.078125 92.050781 L 195.863281 94.058594 L 196.125 93.703125 L 196.648438 99.082031 L 196.910156 102.308594 L 197.699219 98.183594 L 197.960938 99.976562 L 198.222656 103.023438 L 198.746094 102.128906 L 199.796875 102.847656 L 200.320312 102.128906 L 201.367188 102.953125 L 201.890625 88.320312 L 202.152344 75.769531 L 202.417969 78.460938 L 203.726562 79.355469 L 204.25 79.175781 L 205.300781 78.28125 L 205.5625 77.5625 L 206.085938 77.5625 L 206.871094 76.667969 L 207.132812 74.335938 L 207.660156 61.425781 L 208.445312 59.632812 L 208.96875 58.914062 L 209.230469 57.839844 L 209.492188 58.199219 L 209.753906 56.046875 L 210.542969 54.253906 L 210.804688 53.824219 L 211.066406 54.972656 L 211.328125 53.714844 L 211.589844 53.464844 L 212.636719 52.460938 L 212.902344 54.613281 L 213.425781 57.121094 L 214.472656 50.667969 L 215.257812 66.625 L 216.308594 66.804688 L 217.09375 71.289062 L 218.144531 73.082031 L 218.40625 80.253906 L 219.714844 84.554688 L 219.976562 84.734375 L 221.550781 66.804688 L 221.8125 68.597656 L 224.171875 75.769531 L 225.742188 73.082031 L 226.007812 70.390625 L 226.269531 68.886719 L 227.839844 66.804688 L 228.101562 60.53125 L 228.890625 58.734375 L 229.414062 51.382812 L 229.675781 49.304688 L 229.9375 49.589844 L 230.722656 49.234375 L 231.511719 47.441406 L 231.773438 47.976562 L 232.820312 48.515625 L 233.34375 53.175781 L 233.605469 55.328125 L 234.65625 58.199219 L 234.917969 62.679688 L 235.179688 64.292969 L 236.492188 70.390625 L 237.015625 68.597656 L 237.277344 67.703125 L 238.585938 68.597656 L 238.847656 62.679688 L 239.113281 86.527344 L 239.898438 88.320312 L 240.945312 90.113281 L 242.257812 86.527344 L 244.089844 90.113281 L 244.351562 92.984375 L 245.925781 100.875 L 250.90625 107.148438 L 253.265625 109.121094 L 253.527344 109.839844 L 254.574219 109.480469 L 254.835938 109.121094 L 255.101562 109.839844 L 255.363281 109.480469 L 255.625 113.066406 L 256.933594 124.183594 L 257.457031 124.183594 L 258.246094 125.976562 L 258.507812 127.769531 L 258.769531 130.460938 L 259.03125 126.875 L 260.605469 129.023438 L 260.867188 127.769531 L 261.128906 128.199219 L 261.914062 125.976562 L 262.4375 113.425781 L 264.011719 131.355469 L 264.535156 131.355469 L 264.796875 141.21875 L 265.058594 142.113281 L 265.585938 142.113281 L 265.847656 145.699219 L 266.109375 156.460938 L 266.371094 160.046875 L 266.632812 167.21875 L 267.417969 185.148438 L 267.679688 167.21875 L 269.515625 160.046875 L 270.300781 131.355469 L 271.351562 143.011719 L 271.613281 153.769531 L 271.875 151.078125 L 272.136719 147.492188 L 272.398438 144.804688 L 272.921875 145.699219 L 273.449219 145.699219 L 275.019531 172.597656 L 275.28125 172.597656 L 275.542969 182.457031 L 275.804688 181.5625 L 276.59375 181.5625 L 277.378906 185.148438 L 277.640625 183.355469 L 278.425781 179.769531 L 278.691406 183.964844 L 278.953125 183.714844 L 279.214844 183.355469 L 279.476562 177.078125 L 280.261719 176.183594 L 280.785156 172.597656 L 281.046875 174.390625 L 282.359375 172.597656 L 282.882812 172.597656 L 283.144531 168.582031 L 284.195312 170.804688 L 284.71875 163.632812 L 285.765625 163.632812 L 286.027344 165.425781 L 286.289062 154.664062 L 286.816406 156.460938 L 287.601562 156.460938 L 287.863281 181.5625 L 290.222656 218.320312 L 290.484375 221.011719 L 291.796875 233.5625 L 293.105469 221.726562 L 293.890625 226.390625 L 294.679688 242.527344 L 294.941406 210.25 L 295.203125 194.113281 L 295.726562 199.492188 L 295.988281 203.078125 L 296.773438 206.664062 L 297.039062 185.148438 L 297.300781 131.355469 L 297.5625 135.839844 L 299.132812 158.253906 L 299.394531 167.21875 L 299.65625 167.21875 L 300.445312 160.046875 L 300.707031 156.460938 L 300.96875 149.285156 L 302.542969 149.285156 L 303.066406 145.699219 L 303.328125 138.527344 L 303.589844 136.734375 L 304.113281 133.042969 L 304.375 131.894531 L 304.636719 131.355469 L 305.164062 127.769531 L 306.210938 127.769531 L 306.472656 125.082031 L 306.734375 122.390625 L 306.996094 115.21875 L 307.785156 113.425781 L 308.308594 113.425781 L 308.570312 110.269531 L 308.832031 107.148438 L 310.40625 109.839844 L 310.929688 113.425781 L 311.714844 131.355469 L 311.976562 131.355469 L 312.238281 128.667969 L 312.5 131.355469 L 312.761719 133.148438 L 313.289062 123.285156 L 313.550781 134.941406 L 313.8125 136.734375 L 314.074219 131.355469 L 315.121094 131.355469 L 315.648438 134.941406 L 315.910156 120.597656 L 316.171875 130.460938 L 316.957031 131.355469 L 317.21875 129.5625 L 317.480469 124.542969 L 318.003906 124.183594 L 318.792969 127.589844 L 319.054688 122.390625 L 319.316406 118.375 L 320.890625 120.597656 L 321.152344 118.375 L 321.414062 117.011719 L 322.460938 117.011719 L 322.984375 115.21875 L 323.246094 115.21875 L 323.511719 117.011719 L 324.296875 113.425781 L 324.558594 112.707031 L 324.820312 109.839844 L 326.394531 110.199219 L 326.65625 113.425781 L 327.964844 113.425781 L 328.226562 112.527344 L 328.488281 112.707031 L 328.753906 112.636719 L 329.015625 110.019531 L 329.800781 106.253906 L 330.0625 102.667969 L 330.324219 95.496094 L 330.585938 100.875 L 330.847656 99.511719 L 331.375 97.289062 L 331.636719 95.496094 L 332.160156 96.390625 L 332.421875 109.839844 L 333.46875 113.425781 L 333.730469 109.839844 L 333.996094 106.433594 L 334.257812 108.046875 L 334.519531 109.839844 L 335.304688 109.839844 L 336.089844 113.425781 L 341.859375 119.34375 L 344.480469 124.183594 L 344.742188 122.390625 L 345.003906 117.011719 L 345.527344 115.039062 L 346.574219 112.527344 L 346.835938 102.667969 L 347.101562 102.238281 L 347.363281 102.667969 L 349.984375 102.667969 L 350.246094 109.839844 L 350.507812 113.425781 L 350.769531 113.425781 L 351.03125 118.804688 L 351.816406 119.164062 L 352.078125 116.113281 L 352.34375 125.082031 L 352.605469 125.976562 L 353.914062 125.976562 L 354.4375 128.667969 L 354.699219 125.082031 L 355.488281 131.355469 L 355.75 127.769531 L 356.011719 123.285156 L 356.273438 120.597656 L 356.535156 117.011719 L 357.320312 119.699219 L 357.582031 117.011719 L 357.847656 122.390625 L 358.371094 131.355469 L 359.15625 131.355469 L 359.417969 132.253906 L 359.679688 138.527344 L 359.941406 176.183594 L 360.203125 170.375 L 360.992188 170.804688 L 361.777344 163.632812 L 363.089844 160.046875 L 363.351562 154.664062 L 363.613281 157.355469 L 364.660156 159.148438 L 364.921875 167.21875 L 365.183594 170.804688 L 365.445312 172.597656 L 365.710938 170.804688 L 366.234375 170.804688 L 366.496094 176.183594 L 367.019531 177.976562 L 367.28125 176.183594 L 368.332031 167.21875 L 368.59375 165.425781 L 368.855469 167.21875 L 370.164062 170.804688 L 370.6875 167.21875 L 370.953125 173.566406 L 371.214844 173.851562 L 372 167.21875 L 372.523438 167.21875 L 372.785156 170.804688 L 373.046875 170.625 L 373.835938 170.804688 L 374.097656 171.699219 L 374.621094 170.804688 L 374.882812 177.976562 L 375.667969 203.078125 L 376.195312 204.871094 L 376.457031 201.285156 L 376.71875 204.871094 L 377.242188 204.871094 L 377.503906 206.664062 L 377.765625 204.871094 L 378.027344 199.492188 L 378.550781 192.320312 L 379.339844 199.492188 L 379.601562 177.976562 L 379.863281 167.21875 L 380.125 167.21875 L 380.386719 172.597656 L 381.4375 176.183594 L 381.699219 176.183594 L 381.960938 174.390625 L 382.222656 180.664062 L 383.007812 185.578125 L 383.53125 194.542969 L 383.792969 195.90625 L 384.058594 186.941406 L 384.84375 188.734375 L 385.367188 193.21875 L 386.152344 189.632812 L 386.679688 185.148438 L 386.941406 177.976562 L 387.203125 181.5625 L 387.464844 181.5625 L 388.511719 180.664062 L 388.773438 178.261719 L 389.035156 177.078125 L 389.300781 173.492188 L 389.5625 176.183594 L 390.347656 176.183594 L 390.609375 170.804688 L 390.871094 169.011719 L 392.183594 176.183594 L 392.445312 181.5625 L 392.707031 183.355469 L 392.96875 184.25 L 393.230469 184.429688 L 394.015625 185.148438 L 394.277344 177.976562 L 394.542969 179.769531 L 394.804688 181.5625 L 395.066406 176.183594 L 395.851562 174.390625 L 396.375 176.183594 L 397.949219 174.390625 L 398.210938 174.390625 L 399.519531 169.90625 L 399.785156 149.285156 L 400.046875 152.871094 L 400.570312 150.183594 L 401.355469 149.285156 L 401.617188 147.492188 L 402.140625 145.699219 L 402.40625 145.699219 L 403.191406 142.113281 L 403.714844 145.699219 L 403.976562 143.90625 L 404.238281 147.492188 L 405.027344 144.085938 L 405.289062 143.90625 L 405.550781 144.265625 L 405.8125 145.699219 L 407.382812 145.699219 L 407.648438 143.90625 L 407.910156 143.476562 L 408.695312 145.699219 L 408.957031 144.984375 L 409.21875 142.113281 L 410.53125 142.113281 L 410.792969 141.683594 L 411.054688 140.320312 L 411.316406 140.859375 L 412.625 143.90625 L 413.152344 141.039062 L 413.414062 140.320312 L 414.199219 141.683594 L 414.460938 139.425781 L 414.722656 140.320312 L 414.984375 138.527344 L 415.246094 140.320312 L 416.296875 139.246094 L 416.558594 139.785156 L 417.082031 139.246094 L 418.128906 140.320312 L 418.394531 139.425781 L 418.65625 138.527344 L 418.917969 138.527344 L 419.964844 136.734375 L 420.488281 136.734375 L 420.75 136.375 L 421.539062 136.734375 L 421.800781 136.375 L 422.324219 136.019531 L 422.585938 135.660156 L 424.421875 135.660156 L 425.207031 136.914062 L 425.46875 136.734375 L 425.730469 136.734375 L 425.992188 135.660156 L 427.042969 136.914062 L 427.304688 134.941406 L 427.566406 133.148438 L 427.828125 137.273438 L 428.089844 140.320312 L 428.878906 149.285156 L 429.925781 138.167969 L 430.710938 143.90625 L 430.972656 138.527344 L 431.5 147.492188 L 432.546875 150.363281 L 433.59375 142.113281 L 434.644531 141.039062 L 435.429688 138.527344 L 436.214844 137.632812 L 437.003906 137.632812 L 437.265625 140.320312 L 438.050781 142.113281 L 438.3125 138.167969 L 438.835938 138.527344 L 439.097656 138.527344 L 439.886719 137.632812 L 440.148438 138.527344 L 440.410156 140.320312 L 440.671875 134.941406 L 440.933594 138.097656 L 441.71875 138.527344 L 441.984375 137.632812 L 442.246094 138.527344 L 442.769531 135.839844 L 443.554688 137.164062 L 443.816406 136.734375 L 444.078125 137.09375 L 444.339844 136.734375 L 444.605469 137.8125 L 445.390625 138.527344 L 446.4375 138.527344 L 447.488281 140.320312 L 447.75 138.167969 L 448.011719 140.320312 L 448.273438 140.320312 L 449.058594 138.527344 L 449.582031 138.707031 L 449.847656 138.527344 L 450.894531 138.707031 L 451.15625 140.320312 L 451.941406 143.90625 L 452.203125 143.011719 L 453.253906 143.90625 L 453.515625 145.699219 L 453.777344 147.925781 L 454.5625 149.285156 L 454.824219 151.4375 L 455.089844 151.511719 L 455.351562 151.078125 L 455.613281 151.078125 L 456.398438 152.871094 L 456.660156 154.664062 L 456.921875 162.734375 L 457.183594 156.460938 L 457.445312 153.769531 L 458.234375 160.046875 L 458.496094 160.046875 L 458.757812 161.910156 L 459.019531 167.21875 L 459.28125 167.21875 L 460.332031 167.753906 L 460.59375 169.011719 L 461.117188 169.011719 L 461.902344 170.804688 L 462.164062 174.390625 L 462.425781 185.148438 L 462.6875 186.042969 L 462.953125 185.148438 L 464.261719 179.769531 L 465.574219 192.320312 L 465.835938 194.113281 L 466.097656 192.320312 L 466.359375 184.25 L 467.40625 185.148438 L 467.667969 181.5625 L 467.929688 182.457031 L 468.195312 183.355469 L 468.457031 188.734375 L 469.242188 177.617188 L 469.503906 174.75 L 470.027344 164.707031 L 470.289062 167.21875 L 471.078125 165.425781 L 472.910156 170.804688 L 473.171875 170.804688 L 473.433594 167.21875 L 473.699219 168.042969 L 473.960938 168.113281 L 475.007812 167.21875 L 475.269531 167.21875 L 475.53125 164.527344 L 475.792969 167.21875 L 476.84375 160.941406 L 477.105469 160.941406 L 477.367188 160.476562 L 477.628906 160.90625 L 478.414062 160.046875 L 478.675781 161.839844 L 478.941406 158.253906 L 479.203125 158.253906 L 480.25 154.664062 L 480.511719 152.871094 L 480.773438 152.871094 L 482.085938 154.664062 L 482.871094 160.046875 L 483.132812 160.046875 L 483.917969 158.253906 L 484.183594 156.460938 L 484.445312 156.386719 L 484.707031 158.253906 L 486.015625 156.460938 L 486.277344 156.460938 L 488.113281 163.632812 L 488.375 161.121094 L 489.160156 161.121094 L 489.6875 163.632812 L 489.949219 163.632812 L 490.210938 165.425781 L 490.472656 161.839844 L 491.257812 160.046875 L 491.519531 160.046875 L 493.355469 160.222656 L 493.878906 161.839844 L 494.140625 161.839844 L 494.929688 162.734375 L 497.023438 163.988281 L 497.289062 162.734375 L 497.550781 160.046875 L 498.597656 160.046875 L 498.859375 163.632812 L 499.121094 160.046875 L 499.382812 160.046875 L 499.644531 158.253906 L 500.695312 158.253906 L 500.957031 156.460938 L 501.480469 156.460938 L 502.53125 158.324219 L 502.792969 158.253906 L 503.316406 159.113281 L 504.101562 160.941406 L 504.363281 156.890625 L 504.625 158.683594 L 504.886719 159.972656 L 505.9375 159.6875 L 506.460938 160.046875 L 506.722656 161.011719 L 507.773438 160.222656 L 508.035156 161.480469 L 508.296875 165.425781 L 509.867188 163.632812 L 510.394531 163.632812 L 510.65625 163.988281 L 511.703125 165.78125 L 513.539062 167.574219 L 513.800781 174.390625 L 514.0625 174.75 L 515.109375 174.390625 L 515.371094 177.976562 L 515.636719 182.457031 L 516.160156 207.5625 L 516.945312 206.234375 L 517.207031 203.078125 L 517.46875 196.804688 L 517.730469 208.886719 L 518.78125 210.25 L 519.304688 207.5625 L 520.613281 203.078125 L 521.140625 210.25 L 521.402344 221.011719 L 523.5 215.628906 L 524.285156 221.011719 L 524.808594 221.011719 L 525.070312 221.90625 L 525.332031 222.625 L 526.382812 223.984375 L 526.644531 228.183594 L 526.90625 228.183594 L 527.167969 221.011719 L 531.625 221.90625 L 531.886719 222.804688 L 532.671875 231.230469 L 533.457031 235.355469 L 533.71875 234.816406 L 533.980469 236.789062 L 534.246094 238.941406 L 534.507812 245.394531 L 535.03125 243.960938 L 535.292969 243.960938 L 535.554688 235.355469 L 536.078125 229.078125 L 536.339844 240.554688 L 537.128906 242.527344 L 537.390625 242.097656 L 537.652344 241.808594 L 537.914062 240.734375 L 538.175781 238.941406 L 538.960938 238.941406 L 539.222656 235.355469 L 539.488281 230.871094 L 539.75 229.078125 L 540.796875 227.285156 L 541.058594 224.597656 L 541.320312 220.113281 L 541.582031 206.664062 L 542.632812 221.011719 L 542.894531 214.734375 L 543.15625 210.25 L 543.417969 210.789062 L 543.679688 204.691406 L 543.941406 210.25 L 544.464844 202.003906 L 544.730469 196.804688 L 544.992188 194.113281 "/>
<g style="fill:rgb(0%,0%,0%);fill-opacity:1;">
  <use xlink:href="#glyph0-1" x="370.992188" y="360.006836"/>
  <use xlink:href="#glyph0-2" x="376.992188" y="360.006836"/>
  <use xlink:href="#glyph0-3" x="378.992188" y="360.006836"/>
  <use xlink:href="#glyph0-4" x="382.992188" y="360.006836"/>
  <use xlink:href="#glyph0-5" x="387.992188" y="360.006836"/>
  <use xlink:href="#glyph0-6" x="390.992188" y="360.006836"/>
  <use xlink:href="#glyph0-7" x="394.992188" y="360.006836"/>
  <use xlink:href="#glyph0-8" x="396.992188" y="360.006836"/>
  <use xlink:href="#glyph0-9" x="401.992188" y="360.006836"/>
  <use xlink:href="#glyph0-2" x="406.992188" y="360.006836"/>
  <use xlink:href="#glyph0-10" x="408.992188" y="360.006836"/>
  <use xlink:href="#glyph0-11" x="413.992188" y="360.006836"/>
  <use xlink:href="#glyph0-12" x="415.992188" y="360.006836"/>
  <use xlink:href="#glyph0-11" x="420.992188" y="360.006836"/>
  <use xlink:href="#glyph0-12" x="422.992188" y="360.006836"/>
  <use xlink:href="#glyph0-2" x="427.992188" y="360.006836"/>
  <use xlink:href="#glyph0-13" x="429.992188" y="360.006836"/>
  <use xlink:href="#glyph0-14" x="434.992188" y="360.006836"/>
  <use xlink:href="#glyph0-15" x="439.992188" y="360.006836"/>
  <use xlink:href="#glyph0-16" x="441.992188" y="360.006836"/>
  <use xlink:href="#glyph0-17" x="445.992188" y="360.006836"/>
  <use xlink:href="#glyph0-4" x="450.992188" y="360.006836"/>
  <use xlink:href="#glyph0-18" x="455.992188" y="360.006836"/>
  <use xlink:href="#glyph0-2" x="460.992188" y="360.006836"/>
  <use xlink:href="#glyph0-19" x="462.992188" y="360.006836"/>
  <use xlink:href="#glyph0-12" x="465.992188" y="360.006836"/>
  <use xlink:href="#glyph0-20" x="470.992188" y="360.006836"/>
  <use xlink:href="#glyph0-12" x="475.992188" y="360.006836"/>
  <use xlink:href="#glyph0-12" x="480.992188" y="360.006836"/>
  <use xlink:href="#glyph0-21" x="485.992188" y="360.006836"/>
  <use xlink:href="#glyph0-22" x="488.992188" y="360.006836"/>
  <use xlink:href="#glyph0-22" x="493.992188" y="360.006836"/>
  <use xlink:href="#glyph0-21" x="498.992188" y="360.006836"/>
  <use xlink:href="#glyph0-22" x="501.992188" y="360.006836"/>
  <use xlink:href="#glyph0-20" x="506.992188" y="360.006836"/>
  <use xlink:href="#glyph0-2" x="511.992188" y="360.006836"/>
  <use xlink:href="#glyph0-5" x="513.992188" y="360.006836"/>
  <use xlink:href="#glyph0-23" x="516.992188" y="360.006836"/>
  <use xlink:href="#glyph0-24" x="521.992188" y="360.006836"/>
  <use xlink:href="#glyph0-24" x="526.992188" y="360.006836"/>
  <use xlink:href="#glyph0-24" x="531.992188" y="360.006836"/>
  <use xlink:href="#glyph0-20" x="536.992188" y="360.006836"/>
  <use xlink:href="#glyph0-25" x="541.992188" y="360.006836"/>
</g>
<g clip-path="url(#clip32)" clip-rule="nonzero">
<path style="fill:none;stroke-width:1.357972;stroke-linecap:round;stroke-linejoin:round;stroke:rgb(20%,20%,20%);stroke-opacity:1;stroke-miterlimit:10;" d="M 40.25 372.777344 L 569.027344 372.777344 L 569.027344 31.949219 L 40.25 31.949219 Z M 40.25 372.777344 "/>
</g>
<g style="fill:rgb(30.196078%,30.196078%,30.196078%);fill-opacity:1;">
  <use xlink:href="#glyph1-1" x="31.460938" y="368.121094"/>
</g>
<g style="fill:rgb(30.196078%,30.196078%,30.196078%);fill-opacity:1;">
  <use xlink:href="#glyph1-2" x="25.460938" y="332.257812"/>
  <use xlink:href="#glyph1-1" x="31.460938" y="332.257812"/>
</g>
<g style="fill:rgb(30.196078%,30.196078%,30.196078%);fill-opacity:1;">
  <use xlink:href="#glyph1-3" x="25.460938" y="296.398438"/>
  <use xlink:href="#glyph1-1" x="31.460938" y="296.398438"/>
</g>
<g style="fill:rgb(30.196078%,30.196078%,30.196078%);fill-opacity:1;">
  <use xlink:href="#glyph1-4" x="25.460938" y="260.535156"/>
  <use xlink:href="#glyph1-1" x="31.460938" y="260.535156"/>
</g>
<g style="fill:rgb(30.196078%,30.196078%,30.196078%);fill-opacity:1;">
  <use xlink:href="#glyph1-5" x="25.460938" y="224.675781"/>
  <use xlink:href="#glyph1-1" x="31.460938" y="224.675781"/>
</g>
<g style="fill:rgb(30.196078%,30.196078%,30.196078%);fill-opacity:1;">
  <use xlink:href="#glyph1-6" x="25.460938" y="188.8125"/>
  <use xlink:href="#glyph1-1" x="31.460938" y="188.8125"/>
</g>
<g style="fill:rgb(30.196078%,30.196078%,30.196078%);fill-opacity:1;">
  <use xlink:href="#glyph1-7" x="25.460938" y="152.949219"/>
  <use xlink:href="#glyph1-1" x="31.460938" y="152.949219"/>
</g>
<g style="fill:rgb(30.196078%,30.196078%,30.196078%);fill-opacity:1;">
  <use xlink:href="#glyph1-8" x="25.460938" y="117.089844"/>
  <use xlink:href="#glyph1-1" x="31.460938" y="117.089844"/>
</g>
<g style="fill:rgb(30.196078%,30.196078%,30.196078%);fill-opacity:1;">
  <use xlink:href="#glyph1-9" x="25.460938" y="81.226562"/>
  <use xlink:href="#glyph1-1" x="31.460938" y="81.226562"/>
</g>
<path style="fill:none;stroke-width:1.357972;stroke-linecap:butt;stroke-linejoin:round;stroke:rgb(20%,20%,20%);stroke-opacity:1;stroke-miterlimit:10;" d="M 43.238281 364.457031 L 40.25 364.457031 "/>
<path style="fill:none;stroke-width:1.357972;stroke-linecap:butt;stroke-linejoin:round;stroke:rgb(20%,20%,20%);stroke-opacity:1;stroke-miterlimit:10;" d="M 43.238281 328.59375 L 40.25 328.59375 "/>
<path style="fill:none;stroke-width:1.357972;stroke-linecap:butt;stroke-linejoin:round;stroke:rgb(20%,20%,20%);stroke-opacity:1;stroke-miterlimit:10;" d="M 43.238281 292.734375 L 40.25 292.734375 "/>
<path style="fill:none;stroke-width:1.357972;stroke-linecap:butt;stroke-linejoin:round;stroke:rgb(20%,20%,20%);stroke-opacity:1;stroke-miterlimit:10;" d="M 43.238281 256.871094 L 40.25 256.871094 "/>
<path style="fill:none;stroke-width:1.357972;stroke-linecap:butt;stroke-linejoin:round;stroke:rgb(20%,20%,20%);stroke-opacity:1;stroke-miterlimit:10;" d="M 43.238281 221.011719 L 40.25 221.011719 "/>
<path style="fill:none;stroke-width:1.357972;stroke-linecap:butt;stroke-linejoin:round;stroke:rgb(20%,20%,20%);stroke-opacity:1;stroke-miterlimit:10;" d="M 43.238281 185.148438 L 40.25 185.148438 "/>
<path style="fill:none;stroke-width:1.357972;stroke-linecap:butt;stroke-linejoin:round;stroke:rgb(20%,20%,20%);stroke-opacity:1;stroke-miterlimit:10;" d="M 43.238281 149.285156 L 40.25 149.285156 "/>
<path style="fill:none;stroke-width:1.357972;stroke-linecap:butt;stroke-linejoin:round;stroke:rgb(20%,20%,20%);stroke-opacity:1;stroke-miterlimit:10;" d="M 43.238281 113.425781 L 40.25 113.425781 "/>
<path style="fill:none;stroke-width:1.357972;stroke-linecap:butt;stroke-linejoin:round;stroke:rgb(20%,20%,20%);stroke-opacity:1;stroke-miterlimit:10;" d="M 43.238281 77.5625 L 40.25 77.5625 "/>
<path style="fill:none;stroke-width:1.357972;stroke-linecap:butt;stroke-linejoin:round;stroke:rgb(20%,20%,20%);stroke-opacity:1;stroke-miterlimit:10;" d="M 51.964844 369.785156 L 51.964844 372.777344 "/>
<path style="fill:none;stroke-width:1.357972;stroke-linecap:butt;stroke-linejoin:round;stroke:rgb(20%,20%,20%);stroke-opacity:1;stroke-miterlimit:10;" d="M 147.636719 369.785156 L 147.636719 372.777344 "/>
<path style="fill:none;stroke-width:1.357972;stroke-linecap:butt;stroke-linejoin:round;stroke:rgb(20%,20%,20%);stroke-opacity:1;stroke-miterlimit:10;" d="M 243.304688 369.785156 L 243.304688 372.777344 "/>
<path style="fill:none;stroke-width:1.357972;stroke-linecap:butt;stroke-linejoin:round;stroke:rgb(20%,20%,20%);stroke-opacity:1;stroke-miterlimit:10;" d="M 338.972656 369.785156 L 338.972656 372.777344 "/>
<path style="fill:none;stroke-width:1.357972;stroke-linecap:butt;stroke-linejoin:round;stroke:rgb(20%,20%,20%);stroke-opacity:1;stroke-miterlimit:10;" d="M 434.90625 369.785156 L 434.90625 372.777344 "/>
<path style="fill:none;stroke-width:1.357972;stroke-linecap:butt;stroke-linejoin:round;stroke:rgb(20%,20%,20%);stroke-opacity:1;stroke-miterlimit:10;" d="M 530.574219 369.785156 L 530.574219 372.777344 "/>
<g style="fill:rgb(30.196078%,30.196078%,30.196078%);fill-opacity:1;">
  <use xlink:href="#glyph1-3" x="39.964844" y="383.730469"/>
  <use xlink:href="#glyph1-1" x="45.964844" y="383.730469"/>
  <use xlink:href="#glyph1-3" x="51.964844" y="383.730469"/>
  <use xlink:href="#glyph1-2" x="57.964844" y="383.730469"/>
</g>
<g style="fill:rgb(30.196078%,30.196078%,30.196078%);fill-opacity:1;">
  <use xlink:href="#glyph1-3" x="135.636719" y="383.730469"/>
  <use xlink:href="#glyph1-1" x="141.636719" y="383.730469"/>
  <use xlink:href="#glyph1-3" x="147.636719" y="383.730469"/>
  <use xlink:href="#glyph1-3" x="153.636719" y="383.730469"/>
</g>
<g style="fill:rgb(30.196078%,30.196078%,30.196078%);fill-opacity:1;">
  <use xlink:href="#glyph1-3" x="231.304688" y="383.730469"/>
  <use xlink:href="#glyph1-1" x="237.304688" y="383.730469"/>
  <use xlink:href="#glyph1-3" x="243.304688" y="383.730469"/>
  <use xlink:href="#glyph1-4" x="249.304688" y="383.730469"/>
</g>
<g style="fill:rgb(30.196078%,30.196078%,30.196078%);fill-opacity:1;">
  <use xlink:href="#glyph1-3" x="326.972656" y="383.730469"/>
  <use xlink:href="#glyph1-1" x="332.972656" y="383.730469"/>
  <use xlink:href="#glyph1-3" x="338.972656" y="383.730469"/>
  <use xlink:href="#glyph1-5" x="344.972656" y="383.730469"/>
</g>
<g style="fill:rgb(30.196078%,30.196078%,30.196078%);fill-opacity:1;">
  <use xlink:href="#glyph1-3" x="422.90625" y="383.730469"/>
  <use xlink:href="#glyph1-1" x="428.90625" y="383.730469"/>
  <use xlink:href="#glyph1-3" x="434.90625" y="383.730469"/>
  <use xlink:href="#glyph1-6" x="440.90625" y="383.730469"/>
</g>
<g style="fill:rgb(30.196078%,30.196078%,30.196078%);fill-opacity:1;">
  <use xlink:href="#glyph1-3" x="518.574219" y="383.730469"/>
  <use xlink:href="#glyph1-1" x="524.574219" y="383.730469"/>
  <use xlink:href="#glyph1-3" x="530.574219" y="383.730469"/>
  <use xlink:href="#glyph1-7" x="536.574219" y="383.730469"/>
</g>
<g style="fill:rgb(0%,0%,0%);fill-opacity:1;">
  <use xlink:href="#glyph2-1" x="286.636719" y="401.256836"/>
  <use xlink:href="#glyph2-2" x="294.636719" y="401.256836"/>
  <use xlink:href="#glyph2-3" x="302.636719" y="401.256836"/>
  <use xlink:href="#glyph2-4" x="310.636719" y="401.256836"/>
  <use xlink:href="#glyph2-5" x="315.636719" y="401.256836"/>
</g>
<g style="fill:rgb(0%,0%,0%);fill-opacity:1;">
  <use xlink:href="#glyph3-1" x="17.178711" y="238.863281"/>
  <use xlink:href="#glyph3-2" x="17.178711" y="229.863281"/>
  <use xlink:href="#glyph3-3" x="17.178711" y="224.863281"/>
  <use xlink:href="#glyph3-4" x="17.178711" y="221.863281"/>
  <use xlink:href="#glyph3-5" x="17.178711" y="214.863281"/>
  <use xlink:href="#glyph3-6" x="17.178711" y="206.863281"/>
  <use xlink:href="#glyph3-7" x="17.178711" y="202.863281"/>
  <use xlink:href="#glyph3-8" x="17.178711" y="194.863281"/>
  <use xlink:href="#glyph3-9" x="17.178711" y="184.863281"/>
  <use xlink:href="#glyph3-10" x="17.178711" y="175.863281"/>
</g>
<g style="fill:rgb(0%,0%,0%);fill-opacity:1;">
  <use xlink:href="#glyph4-1" x="65.136719" y="56.094727"/>
  <use xlink:href="#glyph4-2" x="75.136719" y="56.094727"/>
  <use xlink:href="#glyph4-3" x="90.136719" y="56.094727"/>
  <use xlink:href="#glyph4-4" x="99.136719" y="56.094727"/>
  <use xlink:href="#glyph4-5" x="108.136719" y="56.094727"/>
  <use xlink:href="#glyph4-6" x="114.136719" y="56.094727"/>
  <use xlink:href="#glyph4-7" x="124.136719" y="56.094727"/>
  <use xlink:href="#glyph4-1" x="134.136719" y="56.094727"/>
  <use xlink:href="#glyph4-8" x="144.136719" y="56.094727"/>
  <use xlink:href="#glyph4-9" x="154.136719" y="56.094727"/>
  <use xlink:href="#glyph4-10" x="164.136719" y="56.094727"/>
  <use xlink:href="#glyph4-11" x="168.136719" y="56.094727"/>
  <use xlink:href="#glyph4-12" x="178.136719" y="56.094727"/>
  <use xlink:href="#glyph4-13" x="183.136719" y="56.094727"/>
  <use xlink:href="#glyph4-14" x="188.136719" y="56.094727"/>
  <use xlink:href="#glyph4-1" x="201.136719" y="56.094727"/>
  <use xlink:href="#glyph4-15" x="211.136719" y="56.094727"/>
  <use xlink:href="#glyph4-13" x="224.136719" y="56.094727"/>
  <use xlink:href="#glyph4-16" x="229.136719" y="56.094727"/>
  <use xlink:href="#glyph4-1" x="240.136719" y="56.094727"/>
  <use xlink:href="#glyph4-6" x="250.136719" y="56.094727"/>
  <use xlink:href="#glyph4-17" x="260.136719" y="56.094727"/>
  <use xlink:href="#glyph4-6" x="264.136719" y="56.094727"/>
  <use xlink:href="#glyph4-11" x="274.136719" y="56.094727"/>
  <use xlink:href="#glyph4-7" x="284.136719" y="56.094727"/>
  <use xlink:href="#glyph4-13" x="294.136719" y="56.094727"/>
  <use xlink:href="#glyph4-18" x="299.136719" y="56.094727"/>
  <use xlink:href="#glyph4-11" x="312.136719" y="56.094727"/>
  <use xlink:href="#glyph4-10" x="322.136719" y="56.094727"/>
  <use xlink:href="#glyph4-12" x="326.136719" y="56.094727"/>
  <use xlink:href="#glyph4-13" x="331.136719" y="56.094727"/>
  <use xlink:href="#glyph4-19" x="336.136719" y="56.094727"/>
  <use xlink:href="#glyph4-14" x="342.136719" y="56.094727"/>
  <use xlink:href="#glyph4-16" x="355.136719" y="56.094727"/>
  <use xlink:href="#glyph4-18" x="366.136719" y="56.094727"/>
  <use xlink:href="#glyph4-20" x="379.136719" y="56.094727"/>
  <use xlink:href="#glyph4-13" x="385.136719" y="56.094727"/>
  <use xlink:href="#glyph4-2" x="390.136719" y="56.094727"/>
  <use xlink:href="#glyph4-1" x="405.136719" y="56.094727"/>
  <use xlink:href="#glyph4-7" x="415.136719" y="56.094727"/>
  <use xlink:href="#glyph4-10" x="425.136719" y="56.094727"/>
  <use xlink:href="#glyph4-6" x="429.136719" y="56.094727"/>
  <use xlink:href="#glyph4-11" x="439.136719" y="56.094727"/>
  <use xlink:href="#glyph4-13" x="449.136719" y="56.094727"/>
  <use xlink:href="#glyph4-7" x="454.136719" y="56.094727"/>
  <use xlink:href="#glyph4-6" x="464.136719" y="56.094727"/>
  <use xlink:href="#glyph4-10" x="474.136719" y="56.094727"/>
  <use xlink:href="#glyph4-17" x="478.136719" y="56.094727"/>
  <use xlink:href="#glyph4-21" x="482.136719" y="56.094727"/>
  <use xlink:href="#glyph4-13" x="491.136719" y="56.094727"/>
  <use xlink:href="#glyph4-8" x="496.136719" y="56.094727"/>
  <use xlink:href="#glyph4-5" x="506.136719" y="56.094727"/>
  <use xlink:href="#glyph4-10" x="512.136719" y="56.094727"/>
  <use xlink:href="#glyph4-22" x="516.136719" y="56.094727"/>
  <use xlink:href="#glyph4-1" x="525.136719" y="56.094727"/>
  <use xlink:href="#glyph4-3" x="535.136719" y="56.094727"/>
</g>
<g style="fill:rgb(0%,0%,0%);fill-opacity:1;">
  <use xlink:href="#glyph1-10" x="96.136719" y="421.191406"/>
  <use xlink:href="#glyph1-11" x="104.136719" y="421.191406"/>
  <use xlink:href="#glyph1-12" x="110.136719" y="421.191406"/>
  <use xlink:href="#glyph1-11" x="113.136719" y="421.191406"/>
  <use xlink:href="#glyph1-13" x="119.136719" y="421.191406"/>
  <use xlink:href="#glyph1-14" x="122.136719" y="421.191406"/>
  <use xlink:href="#glyph1-15" x="125.136719" y="421.191406"/>
  <use xlink:href="#glyph1-12" x="131.136719" y="421.191406"/>
  <use xlink:href="#glyph1-12" x="134.136719" y="421.191406"/>
  <use xlink:href="#glyph1-16" x="137.136719" y="421.191406"/>
  <use xlink:href="#glyph1-17" x="143.136719" y="421.191406"/>
  <use xlink:href="#glyph1-13" x="148.136719" y="421.191406"/>
  <use xlink:href="#glyph1-18" x="151.136719" y="421.191406"/>
  <use xlink:href="#glyph1-18" x="154.136719" y="421.191406"/>
  <use xlink:href="#glyph1-19" x="157.136719" y="421.191406"/>
  <use xlink:href="#glyph1-20" x="163.136719" y="421.191406"/>
  <use xlink:href="#glyph1-12" x="165.136719" y="421.191406"/>
  <use xlink:href="#glyph1-15" x="168.136719" y="421.191406"/>
  <use xlink:href="#glyph1-21" x="174.136719" y="421.191406"/>
  <use xlink:href="#glyph1-22" x="180.136719" y="421.191406"/>
  <use xlink:href="#glyph1-23" x="186.136719" y="421.191406"/>
  <use xlink:href="#glyph1-24" x="189.136719" y="421.191406"/>
  <use xlink:href="#glyph1-25" x="195.136719" y="421.191406"/>
  <use xlink:href="#glyph1-26" x="201.136719" y="421.191406"/>
  <use xlink:href="#glyph1-18" x="210.136719" y="421.191406"/>
  <use xlink:href="#glyph1-12" x="213.136719" y="421.191406"/>
  <use xlink:href="#glyph1-15" x="216.136719" y="421.191406"/>
  <use xlink:href="#glyph1-27" x="222.136719" y="421.191406"/>
  <use xlink:href="#glyph1-27" x="228.136719" y="421.191406"/>
  <use xlink:href="#glyph1-24" x="234.136719" y="421.191406"/>
  <use xlink:href="#glyph1-11" x="240.136719" y="421.191406"/>
  <use xlink:href="#glyph1-28" x="246.136719" y="421.191406"/>
  <use xlink:href="#glyph1-26" x="252.136719" y="421.191406"/>
  <use xlink:href="#glyph1-25" x="261.136719" y="421.191406"/>
  <use xlink:href="#glyph1-29" x="267.136719" y="421.191406"/>
  <use xlink:href="#glyph1-27" x="269.136719" y="421.191406"/>
  <use xlink:href="#glyph1-18" x="275.136719" y="421.191406"/>
  <use xlink:href="#glyph1-27" x="278.136719" y="421.191406"/>
  <use xlink:href="#glyph1-26" x="284.136719" y="421.191406"/>
  <use xlink:href="#glyph1-17" x="293.136719" y="421.191406"/>
  <use xlink:href="#glyph1-12" x="299.136719" y="421.191406"/>
  <use xlink:href="#glyph1-30" x="302.136719" y="421.191406"/>
  <use xlink:href="#glyph1-11" x="306.136719" y="421.191406"/>
  <use xlink:href="#glyph1-31" x="312.136719" y="421.191406"/>
  <use xlink:href="#glyph1-27" x="318.136719" y="421.191406"/>
  <use xlink:href="#glyph1-16" x="324.136719" y="421.191406"/>
  <use xlink:href="#glyph1-25" x="330.136719" y="421.191406"/>
  <use xlink:href="#glyph1-20" x="336.136719" y="421.191406"/>
  <use xlink:href="#glyph1-28" x="338.136719" y="421.191406"/>
  <use xlink:href="#glyph1-12" x="344.136719" y="421.191406"/>
  <use xlink:href="#glyph1-32" x="347.136719" y="421.191406"/>
  <use xlink:href="#glyph1-28" x="351.136719" y="421.191406"/>
  <use xlink:href="#glyph1-27" x="357.136719" y="421.191406"/>
  <use xlink:href="#glyph1-33" x="363.136719" y="421.191406"/>
  <use xlink:href="#glyph1-32" x="371.136719" y="421.191406"/>
  <use xlink:href="#glyph1-34" x="374.136719" y="421.191406"/>
  <use xlink:href="#glyph1-27" x="379.136719" y="421.191406"/>
  <use xlink:href="#glyph1-11" x="385.136719" y="421.191406"/>
  <use xlink:href="#glyph1-29" x="391.136719" y="421.191406"/>
  <use xlink:href="#glyph1-11" x="393.136719" y="421.191406"/>
  <use xlink:href="#glyph1-28" x="399.136719" y="421.191406"/>
  <use xlink:href="#glyph1-31" x="405.136719" y="421.191406"/>
  <use xlink:href="#glyph1-32" x="411.136719" y="421.191406"/>
  <use xlink:href="#glyph1-27" x="415.136719" y="421.191406"/>
  <use xlink:href="#glyph1-26" x="421.136719" y="421.191406"/>
  <use xlink:href="#glyph1-20" x="430.136719" y="421.191406"/>
  <use xlink:href="#glyph1-17" x="432.136719" y="421.191406"/>
  <use xlink:href="#glyph1-17" x="438.136719" y="421.191406"/>
  <use xlink:href="#glyph1-20" x="444.136719" y="421.191406"/>
  <use xlink:href="#glyph1-25" x="446.136719" y="421.191406"/>
  <use xlink:href="#glyph1-28" x="452.136719" y="421.191406"/>
  <use xlink:href="#glyph1-32" x="458.136719" y="421.191406"/>
  <use xlink:href="#glyph1-21" x="462.136719" y="421.191406"/>
  <use xlink:href="#glyph1-28" x="468.136719" y="421.191406"/>
  <use xlink:href="#glyph1-20" x="474.136719" y="421.191406"/>
  <use xlink:href="#glyph1-12" x="476.136719" y="421.191406"/>
  <use xlink:href="#glyph1-32" x="479.136719" y="421.191406"/>
  <use xlink:href="#glyph1-16" x="483.136719" y="421.191406"/>
  <use xlink:href="#glyph1-30" x="489.136719" y="421.191406"/>
  <use xlink:href="#glyph1-20" x="493.136719" y="421.191406"/>
  <use xlink:href="#glyph1-24" x="495.136719" y="421.191406"/>
  <use xlink:href="#glyph1-27" x="501.136719" y="421.191406"/>
  <use xlink:href="#glyph1-17" x="507.136719" y="421.191406"/>
</g>
</g>
</svg>
